%TF.GenerationSoftware,KiCad,Pcbnew,(6.0.0)*%
%TF.CreationDate,2022-12-11T11:54:41+01:00*%
%TF.ProjectId,Apeks Panel,4170656b-7320-4506-916e-656c2e6b6963,rev?*%
%TF.SameCoordinates,Original*%
%TF.FileFunction,Soldermask,Bot*%
%TF.FilePolarity,Negative*%
%FSLAX46Y46*%
G04 Gerber Fmt 4.6, Leading zero omitted, Abs format (unit mm)*
G04 Created by KiCad (PCBNEW (6.0.0)) date 2022-12-11 11:54:41*
%MOMM*%
%LPD*%
G01*
G04 APERTURE LIST*
%ADD10C,0.010000*%
%ADD11C,7.600000*%
%ADD12C,6.600000*%
%ADD13C,5.600000*%
%ADD14C,3.500000*%
%ADD15O,7.200000X4.000000*%
G04 APERTURE END LIST*
D10*
%TO.C,Ref\u002A\u002A*%
X93467409Y-101807774D02*
X93547299Y-101816190D01*
X93547299Y-101816190D02*
X93704553Y-101846857D01*
X93704553Y-101846857D02*
X93856101Y-101892912D01*
X93856101Y-101892912D02*
X94000988Y-101953568D01*
X94000988Y-101953568D02*
X94138257Y-102028040D01*
X94138257Y-102028040D02*
X94266950Y-102115543D01*
X94266950Y-102115543D02*
X94386110Y-102215290D01*
X94386110Y-102215290D02*
X94494783Y-102326496D01*
X94494783Y-102326496D02*
X94592009Y-102448376D01*
X94592009Y-102448376D02*
X94676834Y-102580143D01*
X94676834Y-102580143D02*
X94748299Y-102721011D01*
X94748299Y-102721011D02*
X94795843Y-102841556D01*
X94795843Y-102841556D02*
X94841051Y-102997242D01*
X94841051Y-102997242D02*
X94869817Y-103154687D01*
X94869817Y-103154687D02*
X94882318Y-103312753D01*
X94882318Y-103312753D02*
X94878733Y-103470303D01*
X94878733Y-103470303D02*
X94859240Y-103626203D01*
X94859240Y-103626203D02*
X94824017Y-103779313D01*
X94824017Y-103779313D02*
X94773241Y-103928499D01*
X94773241Y-103928499D02*
X94707091Y-104072623D01*
X94707091Y-104072623D02*
X94625746Y-104210549D01*
X94625746Y-104210549D02*
X94568798Y-104291077D01*
X94568798Y-104291077D02*
X94465128Y-104414561D01*
X94465128Y-104414561D02*
X94350471Y-104525505D01*
X94350471Y-104525505D02*
X94225751Y-104623399D01*
X94225751Y-104623399D02*
X94091895Y-104707736D01*
X94091895Y-104707736D02*
X93949828Y-104778009D01*
X93949828Y-104778009D02*
X93800477Y-104833708D01*
X93800477Y-104833708D02*
X93644768Y-104874326D01*
X93644768Y-104874326D02*
X93483626Y-104899354D01*
X93483626Y-104899354D02*
X93455267Y-104902065D01*
X93455267Y-104902065D02*
X93394311Y-104906720D01*
X93394311Y-104906720D02*
X93342620Y-104908888D01*
X93342620Y-104908888D02*
X93293389Y-104908553D01*
X93293389Y-104908553D02*
X93239814Y-104905699D01*
X93239814Y-104905699D02*
X93187733Y-104901458D01*
X93187733Y-104901458D02*
X93030371Y-104879157D01*
X93030371Y-104879157D02*
X92878306Y-104841336D01*
X92878306Y-104841336D02*
X92732401Y-104788818D01*
X92732401Y-104788818D02*
X92593519Y-104722425D01*
X92593519Y-104722425D02*
X92462526Y-104642980D01*
X92462526Y-104642980D02*
X92340284Y-104551305D01*
X92340284Y-104551305D02*
X92227657Y-104448224D01*
X92227657Y-104448224D02*
X92125510Y-104334558D01*
X92125510Y-104334558D02*
X92034706Y-104211132D01*
X92034706Y-104211132D02*
X91956108Y-104078767D01*
X91956108Y-104078767D02*
X91890581Y-103938285D01*
X91890581Y-103938285D02*
X91838989Y-103790511D01*
X91838989Y-103790511D02*
X91802195Y-103636266D01*
X91802195Y-103636266D02*
X91791656Y-103571832D01*
X91791656Y-103571832D02*
X91782309Y-103478355D01*
X91782309Y-103478355D02*
X91778946Y-103376081D01*
X91778946Y-103376081D02*
X91781335Y-103270157D01*
X91781335Y-103270157D02*
X91789242Y-103165729D01*
X91789242Y-103165729D02*
X91802435Y-103067945D01*
X91802435Y-103067945D02*
X91817861Y-102992967D01*
X91817861Y-102992967D02*
X91864526Y-102839191D01*
X91864526Y-102839191D02*
X91926643Y-102690079D01*
X91926643Y-102690079D02*
X92003108Y-102547760D01*
X92003108Y-102547760D02*
X92092816Y-102414365D01*
X92092816Y-102414365D02*
X92163770Y-102326434D01*
X92163770Y-102326434D02*
X92268565Y-102218505D01*
X92268565Y-102218505D02*
X92386025Y-102120370D01*
X92386025Y-102120370D02*
X92514266Y-102033163D01*
X92514266Y-102033163D02*
X92651402Y-101958019D01*
X92651402Y-101958019D02*
X92795548Y-101896071D01*
X92795548Y-101896071D02*
X92944818Y-101848454D01*
X92944818Y-101848454D02*
X92968433Y-101842395D01*
X92968433Y-101842395D02*
X93056368Y-101824835D01*
X93056368Y-101824835D02*
X93155379Y-101812360D01*
X93155379Y-101812360D02*
X93260321Y-101805203D01*
X93260321Y-101805203D02*
X93366046Y-101803597D01*
X93366046Y-101803597D02*
X93467409Y-101807774D01*
X93467409Y-101807774D02*
X93467409Y-101807774D01*
G36*
X93467409Y-101807774D02*
G01*
X93547299Y-101816190D01*
X93704553Y-101846857D01*
X93856101Y-101892912D01*
X94000988Y-101953568D01*
X94138257Y-102028040D01*
X94266950Y-102115543D01*
X94386110Y-102215290D01*
X94494783Y-102326496D01*
X94592009Y-102448376D01*
X94676834Y-102580143D01*
X94748299Y-102721011D01*
X94795843Y-102841556D01*
X94841051Y-102997242D01*
X94869817Y-103154687D01*
X94882318Y-103312753D01*
X94878733Y-103470303D01*
X94859240Y-103626203D01*
X94824017Y-103779313D01*
X94773241Y-103928499D01*
X94707091Y-104072623D01*
X94625746Y-104210549D01*
X94568798Y-104291077D01*
X94465128Y-104414561D01*
X94350471Y-104525505D01*
X94225751Y-104623399D01*
X94091895Y-104707736D01*
X93949828Y-104778009D01*
X93800477Y-104833708D01*
X93644768Y-104874326D01*
X93483626Y-104899354D01*
X93455267Y-104902065D01*
X93394311Y-104906720D01*
X93342620Y-104908888D01*
X93293389Y-104908553D01*
X93239814Y-104905699D01*
X93187733Y-104901458D01*
X93030371Y-104879157D01*
X92878306Y-104841336D01*
X92732401Y-104788818D01*
X92593519Y-104722425D01*
X92462526Y-104642980D01*
X92340284Y-104551305D01*
X92227657Y-104448224D01*
X92125510Y-104334558D01*
X92034706Y-104211132D01*
X91956108Y-104078767D01*
X91890581Y-103938285D01*
X91838989Y-103790511D01*
X91802195Y-103636266D01*
X91791656Y-103571832D01*
X91782309Y-103478355D01*
X91778946Y-103376081D01*
X91781335Y-103270157D01*
X91789242Y-103165729D01*
X91802435Y-103067945D01*
X91817861Y-102992967D01*
X91864526Y-102839191D01*
X91926643Y-102690079D01*
X92003108Y-102547760D01*
X92092816Y-102414365D01*
X92163770Y-102326434D01*
X92268565Y-102218505D01*
X92386025Y-102120370D01*
X92514266Y-102033163D01*
X92651402Y-101958019D01*
X92795548Y-101896071D01*
X92944818Y-101848454D01*
X92968433Y-101842395D01*
X93056368Y-101824835D01*
X93155379Y-101812360D01*
X93260321Y-101805203D01*
X93366046Y-101803597D01*
X93467409Y-101807774D01*
G37*
X93467409Y-101807774D02*
X93547299Y-101816190D01*
X93704553Y-101846857D01*
X93856101Y-101892912D01*
X94000988Y-101953568D01*
X94138257Y-102028040D01*
X94266950Y-102115543D01*
X94386110Y-102215290D01*
X94494783Y-102326496D01*
X94592009Y-102448376D01*
X94676834Y-102580143D01*
X94748299Y-102721011D01*
X94795843Y-102841556D01*
X94841051Y-102997242D01*
X94869817Y-103154687D01*
X94882318Y-103312753D01*
X94878733Y-103470303D01*
X94859240Y-103626203D01*
X94824017Y-103779313D01*
X94773241Y-103928499D01*
X94707091Y-104072623D01*
X94625746Y-104210549D01*
X94568798Y-104291077D01*
X94465128Y-104414561D01*
X94350471Y-104525505D01*
X94225751Y-104623399D01*
X94091895Y-104707736D01*
X93949828Y-104778009D01*
X93800477Y-104833708D01*
X93644768Y-104874326D01*
X93483626Y-104899354D01*
X93455267Y-104902065D01*
X93394311Y-104906720D01*
X93342620Y-104908888D01*
X93293389Y-104908553D01*
X93239814Y-104905699D01*
X93187733Y-104901458D01*
X93030371Y-104879157D01*
X92878306Y-104841336D01*
X92732401Y-104788818D01*
X92593519Y-104722425D01*
X92462526Y-104642980D01*
X92340284Y-104551305D01*
X92227657Y-104448224D01*
X92125510Y-104334558D01*
X92034706Y-104211132D01*
X91956108Y-104078767D01*
X91890581Y-103938285D01*
X91838989Y-103790511D01*
X91802195Y-103636266D01*
X91791656Y-103571832D01*
X91782309Y-103478355D01*
X91778946Y-103376081D01*
X91781335Y-103270157D01*
X91789242Y-103165729D01*
X91802435Y-103067945D01*
X91817861Y-102992967D01*
X91864526Y-102839191D01*
X91926643Y-102690079D01*
X92003108Y-102547760D01*
X92092816Y-102414365D01*
X92163770Y-102326434D01*
X92268565Y-102218505D01*
X92386025Y-102120370D01*
X92514266Y-102033163D01*
X92651402Y-101958019D01*
X92795548Y-101896071D01*
X92944818Y-101848454D01*
X92968433Y-101842395D01*
X93056368Y-101824835D01*
X93155379Y-101812360D01*
X93260321Y-101805203D01*
X93366046Y-101803597D01*
X93467409Y-101807774D01*
X93442764Y-131017458D02*
X93526197Y-131023798D01*
X93526197Y-131023798D02*
X93600256Y-131033223D01*
X93600256Y-131033223D02*
X93628833Y-131038368D01*
X93628833Y-131038368D02*
X93785386Y-131078251D01*
X93785386Y-131078251D02*
X93935332Y-131133179D01*
X93935332Y-131133179D02*
X94077737Y-131202380D01*
X94077737Y-131202380D02*
X94211671Y-131285081D01*
X94211671Y-131285081D02*
X94336199Y-131380511D01*
X94336199Y-131380511D02*
X94450389Y-131487899D01*
X94450389Y-131487899D02*
X94553309Y-131606472D01*
X94553309Y-131606472D02*
X94644025Y-131735458D01*
X94644025Y-131735458D02*
X94721605Y-131874087D01*
X94721605Y-131874087D02*
X94770173Y-131982834D01*
X94770173Y-131982834D02*
X94794283Y-132044839D01*
X94794283Y-132044839D02*
X94812907Y-132098006D01*
X94812907Y-132098006D02*
X94827982Y-132148715D01*
X94827982Y-132148715D02*
X94841442Y-132203347D01*
X94841442Y-132203347D02*
X94852089Y-132252902D01*
X94852089Y-132252902D02*
X94875854Y-132409847D01*
X94875854Y-132409847D02*
X94883198Y-132567851D01*
X94883198Y-132567851D02*
X94874446Y-132725486D01*
X94874446Y-132725486D02*
X94849927Y-132881324D01*
X94849927Y-132881324D02*
X94809968Y-133033937D01*
X94809968Y-133033937D02*
X94754897Y-133181897D01*
X94754897Y-133181897D02*
X94685041Y-133323774D01*
X94685041Y-133323774D02*
X94600727Y-133458142D01*
X94600727Y-133458142D02*
X94564460Y-133507595D01*
X94564460Y-133507595D02*
X94460186Y-133630184D01*
X94460186Y-133630184D02*
X94344848Y-133740356D01*
X94344848Y-133740356D02*
X94219463Y-133837559D01*
X94219463Y-133837559D02*
X94085050Y-133921239D01*
X94085050Y-133921239D02*
X93942626Y-133990845D01*
X93942626Y-133990845D02*
X93793209Y-134045824D01*
X93793209Y-134045824D02*
X93637817Y-134085622D01*
X93637817Y-134085622D02*
X93477467Y-134109689D01*
X93477467Y-134109689D02*
X93451033Y-134112074D01*
X93451033Y-134112074D02*
X93401828Y-134115898D01*
X93401828Y-134115898D02*
X93362622Y-134118187D01*
X93362622Y-134118187D02*
X93328139Y-134118921D01*
X93328139Y-134118921D02*
X93293106Y-134118082D01*
X93293106Y-134118082D02*
X93252247Y-134115652D01*
X93252247Y-134115652D02*
X93200290Y-134111611D01*
X93200290Y-134111611D02*
X93194816Y-134111162D01*
X93194816Y-134111162D02*
X93037318Y-134089906D01*
X93037318Y-134089906D02*
X92884620Y-134052875D01*
X92884620Y-134052875D02*
X92737660Y-134000778D01*
X92737660Y-134000778D02*
X92597378Y-133934329D01*
X92597378Y-133934329D02*
X92464712Y-133854237D01*
X92464712Y-133854237D02*
X92340602Y-133761215D01*
X92340602Y-133761215D02*
X92225987Y-133655974D01*
X92225987Y-133655974D02*
X92121805Y-133539224D01*
X92121805Y-133539224D02*
X92028995Y-133411678D01*
X92028995Y-133411678D02*
X91948496Y-133274047D01*
X91948496Y-133274047D02*
X91881248Y-133127042D01*
X91881248Y-133127042D02*
X91875081Y-133111319D01*
X91875081Y-133111319D02*
X91834160Y-132985400D01*
X91834160Y-132985400D02*
X91804274Y-132850186D01*
X91804274Y-132850186D02*
X91785655Y-132709354D01*
X91785655Y-132709354D02*
X91778534Y-132566583D01*
X91778534Y-132566583D02*
X91783143Y-132425548D01*
X91783143Y-132425548D02*
X91799714Y-132289928D01*
X91799714Y-132289928D02*
X91817861Y-132202967D01*
X91817861Y-132202967D02*
X91864724Y-132047507D01*
X91864724Y-132047507D02*
X91926130Y-131898988D01*
X91926130Y-131898988D02*
X92001354Y-131758590D01*
X92001354Y-131758590D02*
X92089671Y-131627493D01*
X92089671Y-131627493D02*
X92190353Y-131506875D01*
X92190353Y-131506875D02*
X92302677Y-131397916D01*
X92302677Y-131397916D02*
X92324967Y-131378886D01*
X92324967Y-131378886D02*
X92456402Y-131279358D01*
X92456402Y-131279358D02*
X92594016Y-131195567D01*
X92594016Y-131195567D02*
X92738221Y-131127330D01*
X92738221Y-131127330D02*
X92889428Y-131074462D01*
X92889428Y-131074462D02*
X93048049Y-131036780D01*
X93048049Y-131036780D02*
X93116504Y-131025506D01*
X93116504Y-131025506D02*
X93186827Y-131018229D01*
X93186827Y-131018229D02*
X93268019Y-131014547D01*
X93268019Y-131014547D02*
X93355018Y-131014333D01*
X93355018Y-131014333D02*
X93442764Y-131017458D01*
X93442764Y-131017458D02*
X93442764Y-131017458D01*
G36*
X93442764Y-131017458D02*
G01*
X93526197Y-131023798D01*
X93600256Y-131033223D01*
X93628833Y-131038368D01*
X93785386Y-131078251D01*
X93935332Y-131133179D01*
X94077737Y-131202380D01*
X94211671Y-131285081D01*
X94336199Y-131380511D01*
X94450389Y-131487899D01*
X94553309Y-131606472D01*
X94644025Y-131735458D01*
X94721605Y-131874087D01*
X94770173Y-131982834D01*
X94794283Y-132044839D01*
X94812907Y-132098006D01*
X94827982Y-132148715D01*
X94841442Y-132203347D01*
X94852089Y-132252902D01*
X94875854Y-132409847D01*
X94883198Y-132567851D01*
X94874446Y-132725486D01*
X94849927Y-132881324D01*
X94809968Y-133033937D01*
X94754897Y-133181897D01*
X94685041Y-133323774D01*
X94600727Y-133458142D01*
X94564460Y-133507595D01*
X94460186Y-133630184D01*
X94344848Y-133740356D01*
X94219463Y-133837559D01*
X94085050Y-133921239D01*
X93942626Y-133990845D01*
X93793209Y-134045824D01*
X93637817Y-134085622D01*
X93477467Y-134109689D01*
X93451033Y-134112074D01*
X93401828Y-134115898D01*
X93362622Y-134118187D01*
X93328139Y-134118921D01*
X93293106Y-134118082D01*
X93252247Y-134115652D01*
X93200290Y-134111611D01*
X93194816Y-134111162D01*
X93037318Y-134089906D01*
X92884620Y-134052875D01*
X92737660Y-134000778D01*
X92597378Y-133934329D01*
X92464712Y-133854237D01*
X92340602Y-133761215D01*
X92225987Y-133655974D01*
X92121805Y-133539224D01*
X92028995Y-133411678D01*
X91948496Y-133274047D01*
X91881248Y-133127042D01*
X91875081Y-133111319D01*
X91834160Y-132985400D01*
X91804274Y-132850186D01*
X91785655Y-132709354D01*
X91778534Y-132566583D01*
X91783143Y-132425548D01*
X91799714Y-132289928D01*
X91817861Y-132202967D01*
X91864724Y-132047507D01*
X91926130Y-131898988D01*
X92001354Y-131758590D01*
X92089671Y-131627493D01*
X92190353Y-131506875D01*
X92302677Y-131397916D01*
X92324967Y-131378886D01*
X92456402Y-131279358D01*
X92594016Y-131195567D01*
X92738221Y-131127330D01*
X92889428Y-131074462D01*
X93048049Y-131036780D01*
X93116504Y-131025506D01*
X93186827Y-131018229D01*
X93268019Y-131014547D01*
X93355018Y-131014333D01*
X93442764Y-131017458D01*
G37*
X93442764Y-131017458D02*
X93526197Y-131023798D01*
X93600256Y-131033223D01*
X93628833Y-131038368D01*
X93785386Y-131078251D01*
X93935332Y-131133179D01*
X94077737Y-131202380D01*
X94211671Y-131285081D01*
X94336199Y-131380511D01*
X94450389Y-131487899D01*
X94553309Y-131606472D01*
X94644025Y-131735458D01*
X94721605Y-131874087D01*
X94770173Y-131982834D01*
X94794283Y-132044839D01*
X94812907Y-132098006D01*
X94827982Y-132148715D01*
X94841442Y-132203347D01*
X94852089Y-132252902D01*
X94875854Y-132409847D01*
X94883198Y-132567851D01*
X94874446Y-132725486D01*
X94849927Y-132881324D01*
X94809968Y-133033937D01*
X94754897Y-133181897D01*
X94685041Y-133323774D01*
X94600727Y-133458142D01*
X94564460Y-133507595D01*
X94460186Y-133630184D01*
X94344848Y-133740356D01*
X94219463Y-133837559D01*
X94085050Y-133921239D01*
X93942626Y-133990845D01*
X93793209Y-134045824D01*
X93637817Y-134085622D01*
X93477467Y-134109689D01*
X93451033Y-134112074D01*
X93401828Y-134115898D01*
X93362622Y-134118187D01*
X93328139Y-134118921D01*
X93293106Y-134118082D01*
X93252247Y-134115652D01*
X93200290Y-134111611D01*
X93194816Y-134111162D01*
X93037318Y-134089906D01*
X92884620Y-134052875D01*
X92737660Y-134000778D01*
X92597378Y-133934329D01*
X92464712Y-133854237D01*
X92340602Y-133761215D01*
X92225987Y-133655974D01*
X92121805Y-133539224D01*
X92028995Y-133411678D01*
X91948496Y-133274047D01*
X91881248Y-133127042D01*
X91875081Y-133111319D01*
X91834160Y-132985400D01*
X91804274Y-132850186D01*
X91785655Y-132709354D01*
X91778534Y-132566583D01*
X91783143Y-132425548D01*
X91799714Y-132289928D01*
X91817861Y-132202967D01*
X91864724Y-132047507D01*
X91926130Y-131898988D01*
X92001354Y-131758590D01*
X92089671Y-131627493D01*
X92190353Y-131506875D01*
X92302677Y-131397916D01*
X92324967Y-131378886D01*
X92456402Y-131279358D01*
X92594016Y-131195567D01*
X92738221Y-131127330D01*
X92889428Y-131074462D01*
X93048049Y-131036780D01*
X93116504Y-131025506D01*
X93186827Y-131018229D01*
X93268019Y-131014547D01*
X93355018Y-131014333D01*
X93442764Y-131017458D01*
%TD*%
D11*
%TO.C,Ref\u002A\u002A*%
X107300001Y-59530001D03*
X107300001Y-81439999D03*
X107300001Y-103349998D03*
X107300001Y-125260002D03*
D12*
X113010000Y-146850000D03*
X101580000Y-146850000D03*
D13*
X85070000Y-55400000D03*
D14*
X85070000Y-61750000D03*
D13*
X85070000Y-68099998D03*
D14*
X85070000Y-74450001D03*
X85070000Y-79849998D03*
X85070000Y-85250000D03*
X85070000Y-90650002D03*
D12*
X86980000Y-103349998D03*
X86980000Y-117639999D03*
X86980000Y-132559998D03*
X86980000Y-146850000D03*
%TD*%
D15*
%TO.C,REF\u002A\u002A*%
X87300000Y-161250000D03*
%TD*%
%TO.C,REF\u002A\u002A*%
X87300000Y-38750000D03*
%TD*%
M02*
