%TF.GenerationSoftware,KiCad,Pcbnew,(6.0.0)*%
%TF.CreationDate,2022-11-14T01:28:24+01:00*%
%TF.ProjectId,Apeks,4170656b-732e-46b6-9963-61645f706362,rev?*%
%TF.SameCoordinates,Original*%
%TF.FileFunction,Soldermask,Top*%
%TF.FilePolarity,Negative*%
%FSLAX46Y46*%
G04 Gerber Fmt 4.6, Leading zero omitted, Abs format (unit mm)*
G04 Created by KiCad (PCBNEW (6.0.0)) date 2022-11-14 01:28:24*
%MOMM*%
%LPD*%
G01*
G04 APERTURE LIST*
G04 Aperture macros list*
%AMRoundRect*
0 Rectangle with rounded corners*
0 $1 Rounding radius*
0 $2 $3 $4 $5 $6 $7 $8 $9 X,Y pos of 4 corners*
0 Add a 4 corners polygon primitive as box body*
4,1,4,$2,$3,$4,$5,$6,$7,$8,$9,$2,$3,0*
0 Add four circle primitives for the rounded corners*
1,1,$1+$1,$2,$3*
1,1,$1+$1,$4,$5*
1,1,$1+$1,$6,$7*
1,1,$1+$1,$8,$9*
0 Add four rect primitives between the rounded corners*
20,1,$1+$1,$2,$3,$4,$5,0*
20,1,$1+$1,$4,$5,$6,$7,0*
20,1,$1+$1,$6,$7,$8,$9,0*
20,1,$1+$1,$8,$9,$2,$3,0*%
G04 Aperture macros list end*
%ADD10RoundRect,0.050000X-0.900000X-0.900000X0.900000X-0.900000X0.900000X0.900000X-0.900000X0.900000X0*%
%ADD11C,1.900000*%
%ADD12RoundRect,0.050000X0.965000X0.915000X-0.965000X0.915000X-0.965000X-0.915000X0.965000X-0.915000X0*%
%ADD13C,2.230000*%
%ADD14RoundRect,0.050000X-0.750000X0.750000X-0.750000X-0.750000X0.750000X-0.750000X0.750000X0.750000X0*%
%ADD15C,1.600000*%
%ADD16RoundRect,0.050000X-0.750000X-0.750000X0.750000X-0.750000X0.750000X0.750000X-0.750000X0.750000X0*%
%ADD17C,1.500000*%
%ADD18O,1.500000X1.500000*%
%ADD19C,3.340000*%
%ADD20RoundRect,0.050000X0.900000X0.900000X-0.900000X0.900000X-0.900000X-0.900000X0.900000X-0.900000X0*%
%ADD21C,1.700000*%
%ADD22C,2.100000*%
%ADD23C,3.300000*%
%ADD24RoundRect,0.050000X-0.850000X-0.850000X0.850000X-0.850000X0.850000X0.850000X-0.850000X0.850000X0*%
%ADD25O,1.800000X1.800000*%
%ADD26RoundRect,0.050000X0.850000X0.850000X-0.850000X0.850000X-0.850000X-0.850000X0.850000X-0.850000X0*%
G04 APERTURE END LIST*
D10*
%TO.C,D3*%
X23950000Y-44100000D03*
D11*
X26490000Y-44100000D03*
%TD*%
D10*
%TO.C,D4*%
X23950000Y-56800000D03*
D11*
X26490000Y-56800000D03*
%TD*%
D10*
%TO.C,D5*%
X23950000Y-62200000D03*
D11*
X26490000Y-62200000D03*
%TD*%
D10*
%TO.C,D6*%
X23950000Y-67600000D03*
D11*
X26490000Y-67600000D03*
%TD*%
D10*
%TO.C,D7*%
X23950000Y-73000000D03*
D11*
X26490000Y-73000000D03*
%TD*%
D12*
%TO.C,J1*%
X27130000Y-93510000D03*
D13*
X27130000Y-104910000D03*
X27130000Y-96610000D03*
%TD*%
D12*
%TO.C,J2*%
X27130000Y-122720000D03*
D13*
X27130000Y-134120000D03*
X27130000Y-125820000D03*
%TD*%
D14*
%TO.C,Q1*%
X38735000Y-105275000D03*
D15*
X36195000Y-107815000D03*
X33655000Y-105275000D03*
%TD*%
D16*
%TO.C,Q2*%
X38092000Y-115062000D03*
D15*
X40632000Y-117602000D03*
X38092000Y-120142000D03*
%TD*%
D17*
%TO.C,R1*%
X36195000Y-93345000D03*
D18*
X36195000Y-100965000D03*
%TD*%
D17*
%TO.C,R3*%
X34366200Y-132715000D03*
D18*
X34366200Y-125095000D03*
%TD*%
D17*
%TO.C,R2*%
X33655000Y-93345000D03*
D18*
X33655000Y-100965000D03*
%TD*%
D17*
%TO.C,R5*%
X51435000Y-118745000D03*
D18*
X43815000Y-118745000D03*
%TD*%
D17*
%TO.C,R18*%
X31750000Y-52070000D03*
D18*
X31750000Y-44450000D03*
%TD*%
D17*
%TO.C,R21*%
X29337000Y-64262000D03*
D18*
X29337000Y-56642000D03*
%TD*%
D17*
%TO.C,R22*%
X31546800Y-64262000D03*
D18*
X31546800Y-56642000D03*
%TD*%
D17*
%TO.C,R23*%
X31546800Y-66522600D03*
D18*
X31546800Y-74142600D03*
%TD*%
D17*
%TO.C,R24*%
X29311600Y-66548000D03*
D18*
X29311600Y-74168000D03*
%TD*%
D17*
%TO.C,R19*%
X39700000Y-81280000D03*
D18*
X32080000Y-81280000D03*
%TD*%
D17*
%TO.C,R20*%
X39700000Y-110490000D03*
D18*
X32080000Y-110490000D03*
%TD*%
D19*
%TO.C,RV1*%
X52250000Y-41880000D03*
X42650000Y-41880000D03*
D20*
X44950000Y-49380000D03*
D11*
X47450000Y-49380000D03*
X49950000Y-49380000D03*
%TD*%
D19*
%TO.C,RV2*%
X42650000Y-63790000D03*
X52250000Y-63790000D03*
D20*
X44950000Y-71290000D03*
D11*
X47450000Y-71290000D03*
X49950000Y-71290000D03*
%TD*%
D19*
%TO.C,RV3*%
X42650000Y-85700000D03*
X52250000Y-85700000D03*
D20*
X44950000Y-93200000D03*
D11*
X47450000Y-93200000D03*
X49950000Y-93200000D03*
%TD*%
D19*
%TO.C,RV4*%
X42650000Y-107610000D03*
X52250000Y-107610000D03*
D20*
X44950000Y-115110000D03*
D11*
X47450000Y-115110000D03*
X49950000Y-115110000D03*
%TD*%
D21*
%TO.C,SW3*%
X24630000Y-83200000D03*
X24630000Y-85700000D03*
X24630000Y-88200000D03*
X29630000Y-83200000D03*
X29630000Y-85700000D03*
X29630000Y-88200000D03*
X27130000Y-80700000D03*
X27130000Y-90700000D03*
%TD*%
%TO.C,SW4*%
X24630000Y-112410000D03*
X24630000Y-114910000D03*
X24630000Y-117410000D03*
X29630000Y-112410000D03*
X29630000Y-114910000D03*
X29630000Y-117410000D03*
X27130000Y-109910000D03*
X27130000Y-119910000D03*
%TD*%
D22*
%TO.C,SW1*%
X21970000Y-35500000D03*
X28470000Y-35500000D03*
X21970000Y-40000000D03*
X28470000Y-40000000D03*
%TD*%
%TO.C,SW2*%
X28470000Y-48200000D03*
X21970000Y-48200000D03*
X28470000Y-52700000D03*
X21970000Y-52700000D03*
%TD*%
D23*
%TO.C,H2*%
X47450000Y-54250000D03*
%TD*%
D12*
%TO.C,J4*%
X41730000Y-122720000D03*
D13*
X41730000Y-134120000D03*
X41730000Y-125820000D03*
%TD*%
D12*
%TO.C,J5*%
X53160000Y-122720000D03*
D13*
X53160000Y-134120000D03*
X53160000Y-125820000D03*
%TD*%
D20*
%TO.C,D8*%
X34750000Y-85700000D03*
D11*
X32210000Y-85700000D03*
%TD*%
D20*
%TO.C,D9*%
X34750000Y-114910000D03*
D11*
X32210000Y-114910000D03*
%TD*%
D24*
%TO.C,J9*%
X57795000Y-77470000D03*
D25*
X57795000Y-74930000D03*
X57795000Y-72390000D03*
X57795000Y-69850000D03*
X57795000Y-67310000D03*
X57795000Y-64770000D03*
X57795000Y-62230000D03*
X57795000Y-59690000D03*
X57795000Y-57150000D03*
X57795000Y-54610000D03*
%TD*%
D26*
%TO.C,J8*%
X34935000Y-52070000D03*
D25*
X34935000Y-54610000D03*
X34935000Y-57150000D03*
X34935000Y-59690000D03*
X34935000Y-62230000D03*
X34935000Y-64770000D03*
X34935000Y-67310000D03*
X34935000Y-69850000D03*
X34935000Y-72390000D03*
X34935000Y-74930000D03*
X34935000Y-77470000D03*
%TD*%
M02*
