%TF.GenerationSoftware,KiCad,Pcbnew,(6.0.0)*%
%TF.CreationDate,2022-11-14T01:28:24+01:00*%
%TF.ProjectId,Apeks,4170656b-732e-46b6-9963-61645f706362,rev?*%
%TF.SameCoordinates,Original*%
%TF.FileFunction,Legend,Top*%
%TF.FilePolarity,Positive*%
%FSLAX46Y46*%
G04 Gerber Fmt 4.6, Leading zero omitted, Abs format (unit mm)*
G04 Created by KiCad (PCBNEW (6.0.0)) date 2022-11-14 01:28:24*
%MOMM*%
%LPD*%
G01*
G04 APERTURE LIST*
%ADD10C,0.300000*%
%ADD11C,0.150000*%
%ADD12C,0.120000*%
G04 APERTURE END LIST*
D10*
X38627857Y-75237142D02*
X38627857Y-74737142D01*
X39413571Y-74522857D02*
X39413571Y-75237142D01*
X37913571Y-75237142D01*
X37913571Y-74522857D01*
X39413571Y-73880000D02*
X38413571Y-73880000D01*
X38556428Y-73880000D02*
X38485000Y-73808571D01*
X38413571Y-73665714D01*
X38413571Y-73451428D01*
X38485000Y-73308571D01*
X38627857Y-73237142D01*
X39413571Y-73237142D01*
X38627857Y-73237142D02*
X38485000Y-73165714D01*
X38413571Y-73022857D01*
X38413571Y-72808571D01*
X38485000Y-72665714D01*
X38627857Y-72594285D01*
X39413571Y-72594285D01*
X39413571Y-71880000D02*
X38413571Y-71880000D01*
X37913571Y-71880000D02*
X37985000Y-71951428D01*
X38056428Y-71880000D01*
X37985000Y-71808571D01*
X37913571Y-71880000D01*
X38056428Y-71880000D01*
X39413571Y-70951428D02*
X39342142Y-71094285D01*
X39199285Y-71165714D01*
X37913571Y-71165714D01*
X39413571Y-70380000D02*
X38413571Y-70380000D01*
X37913571Y-70380000D02*
X37985000Y-70451428D01*
X38056428Y-70380000D01*
X37985000Y-70308571D01*
X37913571Y-70380000D01*
X38056428Y-70380000D01*
X39342142Y-69094285D02*
X39413571Y-69237142D01*
X39413571Y-69522857D01*
X39342142Y-69665714D01*
X39199285Y-69737142D01*
X38627857Y-69737142D01*
X38485000Y-69665714D01*
X38413571Y-69522857D01*
X38413571Y-69237142D01*
X38485000Y-69094285D01*
X38627857Y-69022857D01*
X38770714Y-69022857D01*
X38913571Y-69737142D01*
X37985000Y-66451428D02*
X37913571Y-66594285D01*
X37913571Y-66808571D01*
X37985000Y-67022857D01*
X38127857Y-67165714D01*
X38270714Y-67237142D01*
X38556428Y-67308571D01*
X38770714Y-67308571D01*
X39056428Y-67237142D01*
X39199285Y-67165714D01*
X39342142Y-67022857D01*
X39413571Y-66808571D01*
X39413571Y-66665714D01*
X39342142Y-66451428D01*
X39270714Y-66380000D01*
X38770714Y-66380000D01*
X38770714Y-66665714D01*
X39413571Y-65737142D02*
X38413571Y-65737142D01*
X37913571Y-65737142D02*
X37985000Y-65808571D01*
X38056428Y-65737142D01*
X37985000Y-65665714D01*
X37913571Y-65737142D01*
X38056428Y-65737142D01*
X39413571Y-64808571D02*
X39342142Y-64951428D01*
X39199285Y-65022857D01*
X37913571Y-65022857D01*
X39413571Y-64022857D02*
X39342142Y-64165714D01*
X39199285Y-64237142D01*
X37913571Y-64237142D01*
X39342142Y-62880000D02*
X39413571Y-63022857D01*
X39413571Y-63308571D01*
X39342142Y-63451428D01*
X39199285Y-63522857D01*
X38627857Y-63522857D01*
X38485000Y-63451428D01*
X38413571Y-63308571D01*
X38413571Y-63022857D01*
X38485000Y-62880000D01*
X38627857Y-62808571D01*
X38770714Y-62808571D01*
X38913571Y-63522857D01*
X38413571Y-62380000D02*
X38413571Y-61808571D01*
X37913571Y-62165714D02*
X39199285Y-62165714D01*
X39342142Y-62094285D01*
X39413571Y-61951428D01*
X39413571Y-61808571D01*
X39342142Y-61237142D02*
X39413571Y-61237142D01*
X39556428Y-61308571D01*
X39627857Y-61380000D01*
X39342142Y-58808571D02*
X39413571Y-58951428D01*
X39413571Y-59237142D01*
X39342142Y-59380000D01*
X39270714Y-59451428D01*
X39127857Y-59522857D01*
X38699285Y-59522857D01*
X38556428Y-59451428D01*
X38485000Y-59380000D01*
X38413571Y-59237142D01*
X38413571Y-58951428D01*
X38485000Y-58808571D01*
X39342142Y-57522857D02*
X39413571Y-57665714D01*
X39413571Y-57951428D01*
X39342142Y-58094285D01*
X39270714Y-58165714D01*
X39127857Y-58237142D01*
X38699285Y-58237142D01*
X38556428Y-58165714D01*
X38485000Y-58094285D01*
X38413571Y-57951428D01*
X38413571Y-57665714D01*
X38485000Y-57522857D01*
X38842142Y-56880000D02*
X38842142Y-55737142D01*
X39413571Y-55022857D02*
X37913571Y-55022857D01*
X38485000Y-55022857D02*
X38413571Y-54880000D01*
X38413571Y-54594285D01*
X38485000Y-54451428D01*
X38556428Y-54380000D01*
X38699285Y-54308571D01*
X39127857Y-54308571D01*
X39270714Y-54380000D01*
X39342142Y-54451428D01*
X39413571Y-54594285D01*
X39413571Y-54880000D01*
X39342142Y-55022857D01*
X38413571Y-53808571D02*
X39413571Y-53451428D01*
X38413571Y-53094285D02*
X39413571Y-53451428D01*
X39770714Y-53594285D01*
X39842142Y-53665714D01*
X39913571Y-53808571D01*
X38842142Y-52522857D02*
X38842142Y-51380000D01*
X39342142Y-50737142D02*
X39413571Y-50594285D01*
X39413571Y-50308571D01*
X39342142Y-50165714D01*
X39199285Y-50094285D01*
X39127857Y-50094285D01*
X38985000Y-50165714D01*
X38913571Y-50308571D01*
X38913571Y-50522857D01*
X38842142Y-50665714D01*
X38699285Y-50737142D01*
X38627857Y-50737142D01*
X38485000Y-50665714D01*
X38413571Y-50522857D01*
X38413571Y-50308571D01*
X38485000Y-50165714D01*
X39413571Y-48808571D02*
X38627857Y-48808571D01*
X38485000Y-48880000D01*
X38413571Y-49022857D01*
X38413571Y-49308571D01*
X38485000Y-49451428D01*
X39342142Y-48808571D02*
X39413571Y-48951428D01*
X39413571Y-49308571D01*
X39342142Y-49451428D01*
X39199285Y-49522857D01*
X39056428Y-49522857D01*
X38913571Y-49451428D01*
X38842142Y-49308571D01*
X38842142Y-48951428D01*
X38770714Y-48808571D01*
X38842142Y-48094285D02*
X38842142Y-46951428D01*
X37913571Y-46380000D02*
X37913571Y-45451428D01*
X38485000Y-45951428D01*
X38485000Y-45737142D01*
X38556428Y-45594285D01*
X38627857Y-45522857D01*
X38770714Y-45451428D01*
X39127857Y-45451428D01*
X39270714Y-45522857D01*
X39342142Y-45594285D01*
X39413571Y-45737142D01*
X39413571Y-46165714D01*
X39342142Y-46308571D01*
X39270714Y-46380000D01*
X39270714Y-44808571D02*
X39342142Y-44737142D01*
X39413571Y-44808571D01*
X39342142Y-44879999D01*
X39270714Y-44808571D01*
X39413571Y-44808571D01*
X37913571Y-43808571D02*
X37913571Y-43665714D01*
X37985000Y-43522857D01*
X38056428Y-43451428D01*
X38199285Y-43380000D01*
X38485000Y-43308571D01*
X38842142Y-43308571D01*
X39127857Y-43380000D01*
X39270714Y-43451428D01*
X39342142Y-43522857D01*
X39413571Y-43665714D01*
X39413571Y-43808571D01*
X39342142Y-43951428D01*
X39270714Y-44022857D01*
X39127857Y-44094285D01*
X38842142Y-44165714D01*
X38485000Y-44165714D01*
X38199285Y-44094285D01*
X38056428Y-44022857D01*
X37985000Y-43951428D01*
X37913571Y-43808571D01*
X38056428Y-41594285D02*
X37985000Y-41522857D01*
X37913571Y-41380000D01*
X37913571Y-41022857D01*
X37985000Y-40880000D01*
X38056428Y-40808571D01*
X38199285Y-40737142D01*
X38342142Y-40737142D01*
X38556428Y-40808571D01*
X39413571Y-41665714D01*
X39413571Y-40737142D01*
X37913571Y-39808571D02*
X37913571Y-39665714D01*
X37985000Y-39522857D01*
X38056428Y-39451428D01*
X38199285Y-39380000D01*
X38485000Y-39308571D01*
X38842142Y-39308571D01*
X39127857Y-39380000D01*
X39270714Y-39451428D01*
X39342142Y-39522857D01*
X39413571Y-39665714D01*
X39413571Y-39808571D01*
X39342142Y-39951428D01*
X39270714Y-40022857D01*
X39127857Y-40094285D01*
X38842142Y-40165714D01*
X38485000Y-40165714D01*
X38199285Y-40094285D01*
X38056428Y-40022857D01*
X37985000Y-39951428D01*
X37913571Y-39808571D01*
X39413571Y-37880000D02*
X39413571Y-38737142D01*
X39413571Y-38308571D02*
X37913571Y-38308571D01*
X38127857Y-38451428D01*
X38270714Y-38594285D01*
X38342142Y-38737142D01*
X39413571Y-37165714D02*
X39413571Y-36880000D01*
X39342142Y-36737142D01*
X39270714Y-36665714D01*
X39056428Y-36522857D01*
X38770714Y-36451428D01*
X38199285Y-36451428D01*
X38056428Y-36522857D01*
X37985000Y-36594285D01*
X37913571Y-36737142D01*
X37913571Y-37022857D01*
X37985000Y-37165714D01*
X38056428Y-37237142D01*
X38199285Y-37308571D01*
X38556428Y-37308571D01*
X38699285Y-37237142D01*
X38770714Y-37165714D01*
X38842142Y-37022857D01*
X38842142Y-36737142D01*
X38770714Y-36594285D01*
X38699285Y-36522857D01*
X38556428Y-36451428D01*
D11*
%TO.C,D3*%
X21042904Y-42977580D02*
X21042904Y-41977580D01*
X21281000Y-41977580D01*
X21423857Y-42025200D01*
X21519095Y-42120438D01*
X21566714Y-42215676D01*
X21614333Y-42406152D01*
X21614333Y-42549009D01*
X21566714Y-42739485D01*
X21519095Y-42834723D01*
X21423857Y-42929961D01*
X21281000Y-42977580D01*
X21042904Y-42977580D01*
X21947666Y-41977580D02*
X22566714Y-41977580D01*
X22233380Y-42358533D01*
X22376238Y-42358533D01*
X22471476Y-42406152D01*
X22519095Y-42453771D01*
X22566714Y-42549009D01*
X22566714Y-42787104D01*
X22519095Y-42882342D01*
X22471476Y-42929961D01*
X22376238Y-42977580D01*
X22090523Y-42977580D01*
X21995285Y-42929961D01*
X21947666Y-42882342D01*
%TO.C,D4*%
X20941304Y-55677580D02*
X20941304Y-54677580D01*
X21179400Y-54677580D01*
X21322257Y-54725200D01*
X21417495Y-54820438D01*
X21465114Y-54915676D01*
X21512733Y-55106152D01*
X21512733Y-55249009D01*
X21465114Y-55439485D01*
X21417495Y-55534723D01*
X21322257Y-55629961D01*
X21179400Y-55677580D01*
X20941304Y-55677580D01*
X22369876Y-55010914D02*
X22369876Y-55677580D01*
X22131780Y-54629961D02*
X21893685Y-55344247D01*
X22512733Y-55344247D01*
%TO.C,D5*%
X20992104Y-61026780D02*
X20992104Y-60026780D01*
X21230200Y-60026780D01*
X21373057Y-60074400D01*
X21468295Y-60169638D01*
X21515914Y-60264876D01*
X21563533Y-60455352D01*
X21563533Y-60598209D01*
X21515914Y-60788685D01*
X21468295Y-60883923D01*
X21373057Y-60979161D01*
X21230200Y-61026780D01*
X20992104Y-61026780D01*
X22468295Y-60026780D02*
X21992104Y-60026780D01*
X21944485Y-60502971D01*
X21992104Y-60455352D01*
X22087342Y-60407733D01*
X22325438Y-60407733D01*
X22420676Y-60455352D01*
X22468295Y-60502971D01*
X22515914Y-60598209D01*
X22515914Y-60836304D01*
X22468295Y-60931542D01*
X22420676Y-60979161D01*
X22325438Y-61026780D01*
X22087342Y-61026780D01*
X21992104Y-60979161D01*
X21944485Y-60931542D01*
%TO.C,D6*%
X21042904Y-66604580D02*
X21042904Y-65604580D01*
X21281000Y-65604580D01*
X21423857Y-65652200D01*
X21519095Y-65747438D01*
X21566714Y-65842676D01*
X21614333Y-66033152D01*
X21614333Y-66176009D01*
X21566714Y-66366485D01*
X21519095Y-66461723D01*
X21423857Y-66556961D01*
X21281000Y-66604580D01*
X21042904Y-66604580D01*
X22471476Y-65604580D02*
X22281000Y-65604580D01*
X22185761Y-65652200D01*
X22138142Y-65699819D01*
X22042904Y-65842676D01*
X21995285Y-66033152D01*
X21995285Y-66414104D01*
X22042904Y-66509342D01*
X22090523Y-66556961D01*
X22185761Y-66604580D01*
X22376238Y-66604580D01*
X22471476Y-66556961D01*
X22519095Y-66509342D01*
X22566714Y-66414104D01*
X22566714Y-66176009D01*
X22519095Y-66080771D01*
X22471476Y-66033152D01*
X22376238Y-65985533D01*
X22185761Y-65985533D01*
X22090523Y-66033152D01*
X22042904Y-66080771D01*
X21995285Y-66176009D01*
%TO.C,D7*%
X21068304Y-71852180D02*
X21068304Y-70852180D01*
X21306400Y-70852180D01*
X21449257Y-70899800D01*
X21544495Y-70995038D01*
X21592114Y-71090276D01*
X21639733Y-71280752D01*
X21639733Y-71423609D01*
X21592114Y-71614085D01*
X21544495Y-71709323D01*
X21449257Y-71804561D01*
X21306400Y-71852180D01*
X21068304Y-71852180D01*
X21973066Y-70852180D02*
X22639733Y-70852180D01*
X22211161Y-71852180D01*
%TO.C,J1*%
X22766666Y-94042380D02*
X22766666Y-94756666D01*
X22719047Y-94899523D01*
X22623809Y-94994761D01*
X22480952Y-95042380D01*
X22385714Y-95042380D01*
X23766666Y-95042380D02*
X23195238Y-95042380D01*
X23480952Y-95042380D02*
X23480952Y-94042380D01*
X23385714Y-94185238D01*
X23290476Y-94280476D01*
X23195238Y-94328095D01*
%TO.C,J2*%
X22766666Y-123252380D02*
X22766666Y-123966666D01*
X22719047Y-124109523D01*
X22623809Y-124204761D01*
X22480952Y-124252380D01*
X22385714Y-124252380D01*
X23195238Y-123347619D02*
X23242857Y-123300000D01*
X23338095Y-123252380D01*
X23576190Y-123252380D01*
X23671428Y-123300000D01*
X23719047Y-123347619D01*
X23766666Y-123442857D01*
X23766666Y-123538095D01*
X23719047Y-123680952D01*
X23147619Y-124252380D01*
X23766666Y-124252380D01*
%TO.C,Q1*%
X36216761Y-105957619D02*
X36121523Y-105910000D01*
X36026285Y-105814761D01*
X35883428Y-105671904D01*
X35788190Y-105624285D01*
X35692952Y-105624285D01*
X35740571Y-105862380D02*
X35645333Y-105814761D01*
X35550095Y-105719523D01*
X35502476Y-105529047D01*
X35502476Y-105195714D01*
X35550095Y-105005238D01*
X35645333Y-104910000D01*
X35740571Y-104862380D01*
X35931047Y-104862380D01*
X36026285Y-104910000D01*
X36121523Y-105005238D01*
X36169142Y-105195714D01*
X36169142Y-105529047D01*
X36121523Y-105719523D01*
X36026285Y-105814761D01*
X35931047Y-105862380D01*
X35740571Y-105862380D01*
X37121523Y-105862380D02*
X36550095Y-105862380D01*
X36835809Y-105862380D02*
X36835809Y-104862380D01*
X36740571Y-105005238D01*
X36645333Y-105100476D01*
X36550095Y-105148095D01*
%TO.C,Q2*%
X38817419Y-117707238D02*
X38769800Y-117802476D01*
X38674561Y-117897714D01*
X38531704Y-118040571D01*
X38484085Y-118135809D01*
X38484085Y-118231047D01*
X38722180Y-118183428D02*
X38674561Y-118278666D01*
X38579323Y-118373904D01*
X38388847Y-118421523D01*
X38055514Y-118421523D01*
X37865038Y-118373904D01*
X37769800Y-118278666D01*
X37722180Y-118183428D01*
X37722180Y-117992952D01*
X37769800Y-117897714D01*
X37865038Y-117802476D01*
X38055514Y-117754857D01*
X38388847Y-117754857D01*
X38579323Y-117802476D01*
X38674561Y-117897714D01*
X38722180Y-117992952D01*
X38722180Y-118183428D01*
X37817419Y-117373904D02*
X37769800Y-117326285D01*
X37722180Y-117231047D01*
X37722180Y-116992952D01*
X37769800Y-116897714D01*
X37817419Y-116850095D01*
X37912657Y-116802476D01*
X38007895Y-116802476D01*
X38150752Y-116850095D01*
X38722180Y-117421523D01*
X38722180Y-116802476D01*
%TO.C,R1*%
X36647380Y-97448666D02*
X36171190Y-97782000D01*
X36647380Y-98020095D02*
X35647380Y-98020095D01*
X35647380Y-97639142D01*
X35695000Y-97543904D01*
X35742619Y-97496285D01*
X35837857Y-97448666D01*
X35980714Y-97448666D01*
X36075952Y-97496285D01*
X36123571Y-97543904D01*
X36171190Y-97639142D01*
X36171190Y-98020095D01*
X36647380Y-96496285D02*
X36647380Y-97067714D01*
X36647380Y-96782000D02*
X35647380Y-96782000D01*
X35790238Y-96877238D01*
X35885476Y-96972476D01*
X35933095Y-97067714D01*
%TO.C,R3*%
X34843980Y-129198666D02*
X34367790Y-129532000D01*
X34843980Y-129770095D02*
X33843980Y-129770095D01*
X33843980Y-129389142D01*
X33891600Y-129293904D01*
X33939219Y-129246285D01*
X34034457Y-129198666D01*
X34177314Y-129198666D01*
X34272552Y-129246285D01*
X34320171Y-129293904D01*
X34367790Y-129389142D01*
X34367790Y-129770095D01*
X33843980Y-128865333D02*
X33843980Y-128246285D01*
X34224933Y-128579619D01*
X34224933Y-128436761D01*
X34272552Y-128341523D01*
X34320171Y-128293904D01*
X34415409Y-128246285D01*
X34653504Y-128246285D01*
X34748742Y-128293904D01*
X34796361Y-128341523D01*
X34843980Y-128436761D01*
X34843980Y-128722476D01*
X34796361Y-128817714D01*
X34748742Y-128865333D01*
%TO.C,R2*%
X34183580Y-97194666D02*
X33707390Y-97528000D01*
X34183580Y-97766095D02*
X33183580Y-97766095D01*
X33183580Y-97385142D01*
X33231200Y-97289904D01*
X33278819Y-97242285D01*
X33374057Y-97194666D01*
X33516914Y-97194666D01*
X33612152Y-97242285D01*
X33659771Y-97289904D01*
X33707390Y-97385142D01*
X33707390Y-97766095D01*
X33278819Y-96813714D02*
X33231200Y-96766095D01*
X33183580Y-96670857D01*
X33183580Y-96432761D01*
X33231200Y-96337523D01*
X33278819Y-96289904D01*
X33374057Y-96242285D01*
X33469295Y-96242285D01*
X33612152Y-96289904D01*
X34183580Y-96861333D01*
X34183580Y-96242285D01*
%TO.C,R5*%
X47483733Y-119222780D02*
X47150400Y-118746590D01*
X46912304Y-119222780D02*
X46912304Y-118222780D01*
X47293257Y-118222780D01*
X47388495Y-118270400D01*
X47436114Y-118318019D01*
X47483733Y-118413257D01*
X47483733Y-118556114D01*
X47436114Y-118651352D01*
X47388495Y-118698971D01*
X47293257Y-118746590D01*
X46912304Y-118746590D01*
X48388495Y-118222780D02*
X47912304Y-118222780D01*
X47864685Y-118698971D01*
X47912304Y-118651352D01*
X48007542Y-118603733D01*
X48245638Y-118603733D01*
X48340876Y-118651352D01*
X48388495Y-118698971D01*
X48436114Y-118794209D01*
X48436114Y-119032304D01*
X48388495Y-119127542D01*
X48340876Y-119175161D01*
X48245638Y-119222780D01*
X48007542Y-119222780D01*
X47912304Y-119175161D01*
X47864685Y-119127542D01*
%TO.C,R18*%
X32100780Y-48775857D02*
X31624590Y-49109190D01*
X32100780Y-49347285D02*
X31100780Y-49347285D01*
X31100780Y-48966333D01*
X31148400Y-48871095D01*
X31196019Y-48823476D01*
X31291257Y-48775857D01*
X31434114Y-48775857D01*
X31529352Y-48823476D01*
X31576971Y-48871095D01*
X31624590Y-48966333D01*
X31624590Y-49347285D01*
X32100780Y-47823476D02*
X32100780Y-48394904D01*
X32100780Y-48109190D02*
X31100780Y-48109190D01*
X31243638Y-48204428D01*
X31338876Y-48299666D01*
X31386495Y-48394904D01*
X31529352Y-47252047D02*
X31481733Y-47347285D01*
X31434114Y-47394904D01*
X31338876Y-47442523D01*
X31291257Y-47442523D01*
X31196019Y-47394904D01*
X31148400Y-47347285D01*
X31100780Y-47252047D01*
X31100780Y-47061571D01*
X31148400Y-46966333D01*
X31196019Y-46918714D01*
X31291257Y-46871095D01*
X31338876Y-46871095D01*
X31434114Y-46918714D01*
X31481733Y-46966333D01*
X31529352Y-47061571D01*
X31529352Y-47252047D01*
X31576971Y-47347285D01*
X31624590Y-47394904D01*
X31719828Y-47442523D01*
X31910304Y-47442523D01*
X32005542Y-47394904D01*
X32053161Y-47347285D01*
X32100780Y-47252047D01*
X32100780Y-47061571D01*
X32053161Y-46966333D01*
X32005542Y-46918714D01*
X31910304Y-46871095D01*
X31719828Y-46871095D01*
X31624590Y-46918714D01*
X31576971Y-46966333D01*
X31529352Y-47061571D01*
%TO.C,R21*%
X29713180Y-61145657D02*
X29236990Y-61478990D01*
X29713180Y-61717085D02*
X28713180Y-61717085D01*
X28713180Y-61336133D01*
X28760800Y-61240895D01*
X28808419Y-61193276D01*
X28903657Y-61145657D01*
X29046514Y-61145657D01*
X29141752Y-61193276D01*
X29189371Y-61240895D01*
X29236990Y-61336133D01*
X29236990Y-61717085D01*
X28808419Y-60764704D02*
X28760800Y-60717085D01*
X28713180Y-60621847D01*
X28713180Y-60383752D01*
X28760800Y-60288514D01*
X28808419Y-60240895D01*
X28903657Y-60193276D01*
X28998895Y-60193276D01*
X29141752Y-60240895D01*
X29713180Y-60812323D01*
X29713180Y-60193276D01*
X29713180Y-59240895D02*
X29713180Y-59812323D01*
X29713180Y-59526609D02*
X28713180Y-59526609D01*
X28856038Y-59621847D01*
X28951276Y-59717085D01*
X28998895Y-59812323D01*
%TO.C,R22*%
X31922980Y-60993257D02*
X31446790Y-61326590D01*
X31922980Y-61564685D02*
X30922980Y-61564685D01*
X30922980Y-61183733D01*
X30970600Y-61088495D01*
X31018219Y-61040876D01*
X31113457Y-60993257D01*
X31256314Y-60993257D01*
X31351552Y-61040876D01*
X31399171Y-61088495D01*
X31446790Y-61183733D01*
X31446790Y-61564685D01*
X31018219Y-60612304D02*
X30970600Y-60564685D01*
X30922980Y-60469447D01*
X30922980Y-60231352D01*
X30970600Y-60136114D01*
X31018219Y-60088495D01*
X31113457Y-60040876D01*
X31208695Y-60040876D01*
X31351552Y-60088495D01*
X31922980Y-60659923D01*
X31922980Y-60040876D01*
X31018219Y-59659923D02*
X30970600Y-59612304D01*
X30922980Y-59517066D01*
X30922980Y-59278971D01*
X30970600Y-59183733D01*
X31018219Y-59136114D01*
X31113457Y-59088495D01*
X31208695Y-59088495D01*
X31351552Y-59136114D01*
X31922980Y-59707542D01*
X31922980Y-59088495D01*
%TO.C,R23*%
X31999180Y-70924657D02*
X31522990Y-71257990D01*
X31999180Y-71496085D02*
X30999180Y-71496085D01*
X30999180Y-71115133D01*
X31046800Y-71019895D01*
X31094419Y-70972276D01*
X31189657Y-70924657D01*
X31332514Y-70924657D01*
X31427752Y-70972276D01*
X31475371Y-71019895D01*
X31522990Y-71115133D01*
X31522990Y-71496085D01*
X31094419Y-70543704D02*
X31046800Y-70496085D01*
X30999180Y-70400847D01*
X30999180Y-70162752D01*
X31046800Y-70067514D01*
X31094419Y-70019895D01*
X31189657Y-69972276D01*
X31284895Y-69972276D01*
X31427752Y-70019895D01*
X31999180Y-70591323D01*
X31999180Y-69972276D01*
X30999180Y-69638942D02*
X30999180Y-69019895D01*
X31380133Y-69353228D01*
X31380133Y-69210371D01*
X31427752Y-69115133D01*
X31475371Y-69067514D01*
X31570609Y-69019895D01*
X31808704Y-69019895D01*
X31903942Y-69067514D01*
X31951561Y-69115133D01*
X31999180Y-69210371D01*
X31999180Y-69496085D01*
X31951561Y-69591323D01*
X31903942Y-69638942D01*
%TO.C,R24*%
X29814780Y-70975457D02*
X29338590Y-71308790D01*
X29814780Y-71546885D02*
X28814780Y-71546885D01*
X28814780Y-71165933D01*
X28862400Y-71070695D01*
X28910019Y-71023076D01*
X29005257Y-70975457D01*
X29148114Y-70975457D01*
X29243352Y-71023076D01*
X29290971Y-71070695D01*
X29338590Y-71165933D01*
X29338590Y-71546885D01*
X28910019Y-70594504D02*
X28862400Y-70546885D01*
X28814780Y-70451647D01*
X28814780Y-70213552D01*
X28862400Y-70118314D01*
X28910019Y-70070695D01*
X29005257Y-70023076D01*
X29100495Y-70023076D01*
X29243352Y-70070695D01*
X29814780Y-70642123D01*
X29814780Y-70023076D01*
X29148114Y-69165933D02*
X29814780Y-69165933D01*
X28767161Y-69404028D02*
X29481447Y-69642123D01*
X29481447Y-69023076D01*
%TO.C,R19*%
X35247142Y-81783180D02*
X34913809Y-81306990D01*
X34675714Y-81783180D02*
X34675714Y-80783180D01*
X35056666Y-80783180D01*
X35151904Y-80830800D01*
X35199523Y-80878419D01*
X35247142Y-80973657D01*
X35247142Y-81116514D01*
X35199523Y-81211752D01*
X35151904Y-81259371D01*
X35056666Y-81306990D01*
X34675714Y-81306990D01*
X36199523Y-81783180D02*
X35628095Y-81783180D01*
X35913809Y-81783180D02*
X35913809Y-80783180D01*
X35818571Y-80926038D01*
X35723333Y-81021276D01*
X35628095Y-81068895D01*
X36675714Y-81783180D02*
X36866190Y-81783180D01*
X36961428Y-81735561D01*
X37009047Y-81687942D01*
X37104285Y-81545085D01*
X37151904Y-81354609D01*
X37151904Y-80973657D01*
X37104285Y-80878419D01*
X37056666Y-80830800D01*
X36961428Y-80783180D01*
X36770952Y-80783180D01*
X36675714Y-80830800D01*
X36628095Y-80878419D01*
X36580476Y-80973657D01*
X36580476Y-81211752D01*
X36628095Y-81306990D01*
X36675714Y-81354609D01*
X36770952Y-81402228D01*
X36961428Y-81402228D01*
X37056666Y-81354609D01*
X37104285Y-81306990D01*
X37151904Y-81211752D01*
%TO.C,R20*%
X35170942Y-111069380D02*
X34837609Y-110593190D01*
X34599514Y-111069380D02*
X34599514Y-110069380D01*
X34980466Y-110069380D01*
X35075704Y-110117000D01*
X35123323Y-110164619D01*
X35170942Y-110259857D01*
X35170942Y-110402714D01*
X35123323Y-110497952D01*
X35075704Y-110545571D01*
X34980466Y-110593190D01*
X34599514Y-110593190D01*
X35551895Y-110164619D02*
X35599514Y-110117000D01*
X35694752Y-110069380D01*
X35932847Y-110069380D01*
X36028085Y-110117000D01*
X36075704Y-110164619D01*
X36123323Y-110259857D01*
X36123323Y-110355095D01*
X36075704Y-110497952D01*
X35504276Y-111069380D01*
X36123323Y-111069380D01*
X36742371Y-110069380D02*
X36837609Y-110069380D01*
X36932847Y-110117000D01*
X36980466Y-110164619D01*
X37028085Y-110259857D01*
X37075704Y-110450333D01*
X37075704Y-110688428D01*
X37028085Y-110878904D01*
X36980466Y-110974142D01*
X36932847Y-111021761D01*
X36837609Y-111069380D01*
X36742371Y-111069380D01*
X36647133Y-111021761D01*
X36599514Y-110974142D01*
X36551895Y-110878904D01*
X36504276Y-110688428D01*
X36504276Y-110450333D01*
X36551895Y-110259857D01*
X36599514Y-110164619D01*
X36647133Y-110117000D01*
X36742371Y-110069380D01*
%TO.C,RV1*%
X47029761Y-42362380D02*
X46696428Y-41886190D01*
X46458333Y-42362380D02*
X46458333Y-41362380D01*
X46839285Y-41362380D01*
X46934523Y-41410000D01*
X46982142Y-41457619D01*
X47029761Y-41552857D01*
X47029761Y-41695714D01*
X46982142Y-41790952D01*
X46934523Y-41838571D01*
X46839285Y-41886190D01*
X46458333Y-41886190D01*
X47315476Y-41362380D02*
X47648809Y-42362380D01*
X47982142Y-41362380D01*
X48839285Y-42362380D02*
X48267857Y-42362380D01*
X48553571Y-42362380D02*
X48553571Y-41362380D01*
X48458333Y-41505238D01*
X48363095Y-41600476D01*
X48267857Y-41648095D01*
%TO.C,RV2*%
X47029761Y-64587380D02*
X46696428Y-64111190D01*
X46458333Y-64587380D02*
X46458333Y-63587380D01*
X46839285Y-63587380D01*
X46934523Y-63635000D01*
X46982142Y-63682619D01*
X47029761Y-63777857D01*
X47029761Y-63920714D01*
X46982142Y-64015952D01*
X46934523Y-64063571D01*
X46839285Y-64111190D01*
X46458333Y-64111190D01*
X47315476Y-63587380D02*
X47648809Y-64587380D01*
X47982142Y-63587380D01*
X48267857Y-63682619D02*
X48315476Y-63635000D01*
X48410714Y-63587380D01*
X48648809Y-63587380D01*
X48744047Y-63635000D01*
X48791666Y-63682619D01*
X48839285Y-63777857D01*
X48839285Y-63873095D01*
X48791666Y-64015952D01*
X48220238Y-64587380D01*
X48839285Y-64587380D01*
%TO.C,RV3*%
X47029761Y-86177380D02*
X46696428Y-85701190D01*
X46458333Y-86177380D02*
X46458333Y-85177380D01*
X46839285Y-85177380D01*
X46934523Y-85225000D01*
X46982142Y-85272619D01*
X47029761Y-85367857D01*
X47029761Y-85510714D01*
X46982142Y-85605952D01*
X46934523Y-85653571D01*
X46839285Y-85701190D01*
X46458333Y-85701190D01*
X47315476Y-85177380D02*
X47648809Y-86177380D01*
X47982142Y-85177380D01*
X48220238Y-85177380D02*
X48839285Y-85177380D01*
X48505952Y-85558333D01*
X48648809Y-85558333D01*
X48744047Y-85605952D01*
X48791666Y-85653571D01*
X48839285Y-85748809D01*
X48839285Y-85986904D01*
X48791666Y-86082142D01*
X48744047Y-86129761D01*
X48648809Y-86177380D01*
X48363095Y-86177380D01*
X48267857Y-86129761D01*
X48220238Y-86082142D01*
%TO.C,RV4*%
X47029761Y-108402380D02*
X46696428Y-107926190D01*
X46458333Y-108402380D02*
X46458333Y-107402380D01*
X46839285Y-107402380D01*
X46934523Y-107450000D01*
X46982142Y-107497619D01*
X47029761Y-107592857D01*
X47029761Y-107735714D01*
X46982142Y-107830952D01*
X46934523Y-107878571D01*
X46839285Y-107926190D01*
X46458333Y-107926190D01*
X47315476Y-107402380D02*
X47648809Y-108402380D01*
X47982142Y-107402380D01*
X48744047Y-107735714D02*
X48744047Y-108402380D01*
X48505952Y-107354761D02*
X48267857Y-108069047D01*
X48886904Y-108069047D01*
%TO.C,SW3*%
X27712561Y-87058733D02*
X27760180Y-86915876D01*
X27760180Y-86677780D01*
X27712561Y-86582542D01*
X27664942Y-86534923D01*
X27569704Y-86487304D01*
X27474466Y-86487304D01*
X27379228Y-86534923D01*
X27331609Y-86582542D01*
X27283990Y-86677780D01*
X27236371Y-86868257D01*
X27188752Y-86963495D01*
X27141133Y-87011114D01*
X27045895Y-87058733D01*
X26950657Y-87058733D01*
X26855419Y-87011114D01*
X26807800Y-86963495D01*
X26760180Y-86868257D01*
X26760180Y-86630161D01*
X26807800Y-86487304D01*
X26760180Y-86153971D02*
X27760180Y-85915876D01*
X27045895Y-85725400D01*
X27760180Y-85534923D01*
X26760180Y-85296828D01*
X26760180Y-85011114D02*
X26760180Y-84392066D01*
X27141133Y-84725400D01*
X27141133Y-84582542D01*
X27188752Y-84487304D01*
X27236371Y-84439685D01*
X27331609Y-84392066D01*
X27569704Y-84392066D01*
X27664942Y-84439685D01*
X27712561Y-84487304D01*
X27760180Y-84582542D01*
X27760180Y-84868257D01*
X27712561Y-84963495D01*
X27664942Y-85011114D01*
%TO.C,SW4*%
X27588361Y-116141733D02*
X27635980Y-115998876D01*
X27635980Y-115760780D01*
X27588361Y-115665542D01*
X27540742Y-115617923D01*
X27445504Y-115570304D01*
X27350266Y-115570304D01*
X27255028Y-115617923D01*
X27207409Y-115665542D01*
X27159790Y-115760780D01*
X27112171Y-115951257D01*
X27064552Y-116046495D01*
X27016933Y-116094114D01*
X26921695Y-116141733D01*
X26826457Y-116141733D01*
X26731219Y-116094114D01*
X26683600Y-116046495D01*
X26635980Y-115951257D01*
X26635980Y-115713161D01*
X26683600Y-115570304D01*
X26635980Y-115236971D02*
X27635980Y-114998876D01*
X26921695Y-114808400D01*
X27635980Y-114617923D01*
X26635980Y-114379828D01*
X26969314Y-113570304D02*
X27635980Y-113570304D01*
X26588361Y-113808400D02*
X27302647Y-114046495D01*
X27302647Y-113427447D01*
%TO.C,SW1*%
X23964066Y-38216161D02*
X24106923Y-38263780D01*
X24345019Y-38263780D01*
X24440257Y-38216161D01*
X24487876Y-38168542D01*
X24535495Y-38073304D01*
X24535495Y-37978066D01*
X24487876Y-37882828D01*
X24440257Y-37835209D01*
X24345019Y-37787590D01*
X24154542Y-37739971D01*
X24059304Y-37692352D01*
X24011685Y-37644733D01*
X23964066Y-37549495D01*
X23964066Y-37454257D01*
X24011685Y-37359019D01*
X24059304Y-37311400D01*
X24154542Y-37263780D01*
X24392638Y-37263780D01*
X24535495Y-37311400D01*
X24868828Y-37263780D02*
X25106923Y-38263780D01*
X25297400Y-37549495D01*
X25487876Y-38263780D01*
X25725971Y-37263780D01*
X26630733Y-38263780D02*
X26059304Y-38263780D01*
X26345019Y-38263780D02*
X26345019Y-37263780D01*
X26249780Y-37406638D01*
X26154542Y-37501876D01*
X26059304Y-37549495D01*
%TO.C,SW2*%
X24091066Y-50814561D02*
X24233923Y-50862180D01*
X24472019Y-50862180D01*
X24567257Y-50814561D01*
X24614876Y-50766942D01*
X24662495Y-50671704D01*
X24662495Y-50576466D01*
X24614876Y-50481228D01*
X24567257Y-50433609D01*
X24472019Y-50385990D01*
X24281542Y-50338371D01*
X24186304Y-50290752D01*
X24138685Y-50243133D01*
X24091066Y-50147895D01*
X24091066Y-50052657D01*
X24138685Y-49957419D01*
X24186304Y-49909800D01*
X24281542Y-49862180D01*
X24519638Y-49862180D01*
X24662495Y-49909800D01*
X24995828Y-49862180D02*
X25233923Y-50862180D01*
X25424400Y-50147895D01*
X25614876Y-50862180D01*
X25852971Y-49862180D01*
X26186304Y-49957419D02*
X26233923Y-49909800D01*
X26329161Y-49862180D01*
X26567257Y-49862180D01*
X26662495Y-49909800D01*
X26710114Y-49957419D01*
X26757733Y-50052657D01*
X26757733Y-50147895D01*
X26710114Y-50290752D01*
X26138685Y-50862180D01*
X26757733Y-50862180D01*
%TO.C,H2*%
X46688095Y-58237380D02*
X46688095Y-57237380D01*
X46688095Y-57713571D02*
X47259523Y-57713571D01*
X47259523Y-58237380D02*
X47259523Y-57237380D01*
X47688095Y-57332619D02*
X47735714Y-57285000D01*
X47830952Y-57237380D01*
X48069047Y-57237380D01*
X48164285Y-57285000D01*
X48211904Y-57332619D01*
X48259523Y-57427857D01*
X48259523Y-57523095D01*
X48211904Y-57665952D01*
X47640476Y-58237380D01*
X48259523Y-58237380D01*
%TO.C,J4*%
X37366666Y-123252380D02*
X37366666Y-123966666D01*
X37319047Y-124109523D01*
X37223809Y-124204761D01*
X37080952Y-124252380D01*
X36985714Y-124252380D01*
X38271428Y-123585714D02*
X38271428Y-124252380D01*
X38033333Y-123204761D02*
X37795238Y-123919047D01*
X38414285Y-123919047D01*
%TO.C,J5*%
X48796666Y-123252380D02*
X48796666Y-123966666D01*
X48749047Y-124109523D01*
X48653809Y-124204761D01*
X48510952Y-124252380D01*
X48415714Y-124252380D01*
X49749047Y-123252380D02*
X49272857Y-123252380D01*
X49225238Y-123728571D01*
X49272857Y-123680952D01*
X49368095Y-123633333D01*
X49606190Y-123633333D01*
X49701428Y-123680952D01*
X49749047Y-123728571D01*
X49796666Y-123823809D01*
X49796666Y-124061904D01*
X49749047Y-124157142D01*
X49701428Y-124204761D01*
X49606190Y-124252380D01*
X49368095Y-124252380D01*
X49272857Y-124204761D01*
X49225238Y-124157142D01*
%TO.C,D8*%
X32741904Y-89112380D02*
X32741904Y-88112380D01*
X32980000Y-88112380D01*
X33122857Y-88160000D01*
X33218095Y-88255238D01*
X33265714Y-88350476D01*
X33313333Y-88540952D01*
X33313333Y-88683809D01*
X33265714Y-88874285D01*
X33218095Y-88969523D01*
X33122857Y-89064761D01*
X32980000Y-89112380D01*
X32741904Y-89112380D01*
X33884761Y-88540952D02*
X33789523Y-88493333D01*
X33741904Y-88445714D01*
X33694285Y-88350476D01*
X33694285Y-88302857D01*
X33741904Y-88207619D01*
X33789523Y-88160000D01*
X33884761Y-88112380D01*
X34075238Y-88112380D01*
X34170476Y-88160000D01*
X34218095Y-88207619D01*
X34265714Y-88302857D01*
X34265714Y-88350476D01*
X34218095Y-88445714D01*
X34170476Y-88493333D01*
X34075238Y-88540952D01*
X33884761Y-88540952D01*
X33789523Y-88588571D01*
X33741904Y-88636190D01*
X33694285Y-88731428D01*
X33694285Y-88921904D01*
X33741904Y-89017142D01*
X33789523Y-89064761D01*
X33884761Y-89112380D01*
X34075238Y-89112380D01*
X34170476Y-89064761D01*
X34218095Y-89017142D01*
X34265714Y-88921904D01*
X34265714Y-88731428D01*
X34218095Y-88636190D01*
X34170476Y-88588571D01*
X34075238Y-88540952D01*
%TO.C,D9*%
X32741904Y-118322380D02*
X32741904Y-117322380D01*
X32980000Y-117322380D01*
X33122857Y-117370000D01*
X33218095Y-117465238D01*
X33265714Y-117560476D01*
X33313333Y-117750952D01*
X33313333Y-117893809D01*
X33265714Y-118084285D01*
X33218095Y-118179523D01*
X33122857Y-118274761D01*
X32980000Y-118322380D01*
X32741904Y-118322380D01*
X33789523Y-118322380D02*
X33980000Y-118322380D01*
X34075238Y-118274761D01*
X34122857Y-118227142D01*
X34218095Y-118084285D01*
X34265714Y-117893809D01*
X34265714Y-117512857D01*
X34218095Y-117417619D01*
X34170476Y-117370000D01*
X34075238Y-117322380D01*
X33884761Y-117322380D01*
X33789523Y-117370000D01*
X33741904Y-117417619D01*
X33694285Y-117512857D01*
X33694285Y-117750952D01*
X33741904Y-117846190D01*
X33789523Y-117893809D01*
X33884761Y-117941428D01*
X34075238Y-117941428D01*
X34170476Y-117893809D01*
X34218095Y-117846190D01*
X34265714Y-117750952D01*
D12*
%TO.C,D3*%
X23660000Y-42864000D02*
X23660000Y-43020000D01*
X23660000Y-45180000D02*
X23660000Y-45336000D01*
X26261130Y-43020163D02*
G75*
G03*
X24179039Y-43020000I-1041130J-1079837D01*
G01*
X24179039Y-45180000D02*
G75*
G03*
X26261130Y-45179837I1040961J1080000D01*
G01*
X23660000Y-45335516D02*
G75*
G03*
X26892335Y-45178608I1560000J1235517D01*
G01*
X26892335Y-43021392D02*
G75*
G03*
X23660000Y-42864484I-1672335J-1078609D01*
G01*
%TO.C,D4*%
X23660000Y-55564000D02*
X23660000Y-55720000D01*
X23660000Y-57880000D02*
X23660000Y-58036000D01*
X26892335Y-55721392D02*
G75*
G03*
X23660000Y-55564484I-1672335J-1078609D01*
G01*
X26261130Y-55720163D02*
G75*
G03*
X24179039Y-55720000I-1041130J-1079837D01*
G01*
X23660000Y-58035516D02*
G75*
G03*
X26892335Y-57878608I1560000J1235517D01*
G01*
X24179039Y-57880000D02*
G75*
G03*
X26261130Y-57879837I1040961J1080000D01*
G01*
%TO.C,D5*%
X23660000Y-60964000D02*
X23660000Y-61120000D01*
X23660000Y-63280000D02*
X23660000Y-63436000D01*
X24179039Y-63280000D02*
G75*
G03*
X26261130Y-63279837I1040961J1080000D01*
G01*
X26261130Y-61120163D02*
G75*
G03*
X24179039Y-61120000I-1041130J-1079837D01*
G01*
X23660000Y-63435516D02*
G75*
G03*
X26892335Y-63278608I1560000J1235517D01*
G01*
X26892335Y-61121392D02*
G75*
G03*
X23660000Y-60964484I-1672335J-1078609D01*
G01*
%TO.C,D6*%
X23660000Y-68680000D02*
X23660000Y-68836000D01*
X23660000Y-66364000D02*
X23660000Y-66520000D01*
X23660000Y-68835516D02*
G75*
G03*
X26892335Y-68678608I1560000J1235517D01*
G01*
X24179039Y-68680000D02*
G75*
G03*
X26261130Y-68679837I1040961J1080000D01*
G01*
X26261130Y-66520163D02*
G75*
G03*
X24179039Y-66520000I-1041130J-1079837D01*
G01*
X26892335Y-66521392D02*
G75*
G03*
X23660000Y-66364484I-1672335J-1078609D01*
G01*
%TO.C,D7*%
X23660000Y-71764000D02*
X23660000Y-71920000D01*
X23660000Y-74080000D02*
X23660000Y-74236000D01*
X26261130Y-71920163D02*
G75*
G03*
X24179039Y-71920000I-1041130J-1079837D01*
G01*
X26892335Y-71921392D02*
G75*
G03*
X23660000Y-71764484I-1672335J-1078609D01*
G01*
X24179039Y-74080000D02*
G75*
G03*
X26261130Y-74079837I1040961J1080000D01*
G01*
X23660000Y-74235516D02*
G75*
G03*
X26892335Y-74078608I1560000J1235517D01*
G01*
%TO.C,J1*%
X31630000Y-95490000D02*
X27480000Y-95490000D01*
X26070000Y-92510000D02*
X26070000Y-93310000D01*
X26070000Y-92510000D02*
X26930000Y-92510000D01*
X26780000Y-95490000D02*
X22630000Y-95490000D01*
X26630000Y-105990000D02*
X22630000Y-105990000D01*
X31630000Y-105990000D02*
X27630000Y-105990000D01*
X22630000Y-95490000D02*
X22630000Y-105990000D01*
X31630000Y-95490000D02*
X31630000Y-105990000D01*
X28930000Y-99990000D02*
G75*
G03*
X28930000Y-99990000I-1800000J0D01*
G01*
%TO.C,J2*%
X26070000Y-121720000D02*
X26930000Y-121720000D01*
X31630000Y-135200000D02*
X27630000Y-135200000D01*
X26070000Y-121720000D02*
X26070000Y-122520000D01*
X26630000Y-135200000D02*
X22630000Y-135200000D01*
X31630000Y-124700000D02*
X31630000Y-135200000D01*
X22630000Y-124700000D02*
X22630000Y-135200000D01*
X31630000Y-124700000D02*
X27480000Y-124700000D01*
X26780000Y-124700000D02*
X22630000Y-124700000D01*
X28930000Y-129200000D02*
G75*
G03*
X28930000Y-129200000I-1800000J0D01*
G01*
%TO.C,Q1*%
X37995000Y-103425000D02*
X34395000Y-103425000D01*
X34395000Y-103425000D02*
G75*
G03*
X33870816Y-104152205I1799991J-1849994D01*
G01*
X37335000Y-107624999D02*
G75*
G03*
X38562199Y-106378842I-1139999J2349998D01*
G01*
X38519184Y-104152205D02*
G75*
G03*
X37995000Y-103425000I-2324175J-1122789D01*
G01*
X33839542Y-106373371D02*
G75*
G03*
X35085000Y-107625000I2355460J1098374D01*
G01*
%TO.C,Q2*%
X36242000Y-115802000D02*
X36242000Y-119402000D01*
X40441999Y-116462000D02*
G75*
G03*
X39195842Y-115234801I-2349998J-1139999D01*
G01*
X36969205Y-115277816D02*
G75*
G03*
X36242000Y-115802000I1122789J-2324175D01*
G01*
X36242000Y-119402000D02*
G75*
G03*
X36969205Y-119926184I1849994J1799991D01*
G01*
X39190371Y-119957458D02*
G75*
G03*
X40442000Y-118712000I-1098374J2355460D01*
G01*
%TO.C,R1*%
X36195000Y-94285000D02*
X36195000Y-95235000D01*
X35275000Y-99075000D02*
X37115000Y-99075000D01*
X37115000Y-95235000D02*
X35275000Y-95235000D01*
X36195000Y-100025000D02*
X36195000Y-99075000D01*
X35275000Y-95235000D02*
X35275000Y-99075000D01*
X37115000Y-99075000D02*
X37115000Y-95235000D01*
%TO.C,R3*%
X34366200Y-126035000D02*
X34366200Y-126985000D01*
X33446200Y-126985000D02*
X33446200Y-130825000D01*
X33446200Y-130825000D02*
X35286200Y-130825000D01*
X35286200Y-130825000D02*
X35286200Y-126985000D01*
X34366200Y-131775000D02*
X34366200Y-130825000D01*
X35286200Y-126985000D02*
X33446200Y-126985000D01*
%TO.C,R2*%
X33655000Y-100025000D02*
X33655000Y-99075000D01*
X32735000Y-99075000D02*
X34575000Y-99075000D01*
X33655000Y-94285000D02*
X33655000Y-95235000D01*
X34575000Y-95235000D02*
X32735000Y-95235000D01*
X34575000Y-99075000D02*
X34575000Y-95235000D01*
X32735000Y-95235000D02*
X32735000Y-99075000D01*
%TO.C,R5*%
X45705000Y-119665000D02*
X49545000Y-119665000D01*
X50495000Y-118745000D02*
X49545000Y-118745000D01*
X45705000Y-117825000D02*
X45705000Y-119665000D01*
X49545000Y-117825000D02*
X45705000Y-117825000D01*
X44755000Y-118745000D02*
X45705000Y-118745000D01*
X49545000Y-119665000D02*
X49545000Y-117825000D01*
%TO.C,R18*%
X30830000Y-46340000D02*
X30830000Y-50180000D01*
X31750000Y-51130000D02*
X31750000Y-50180000D01*
X30830000Y-50180000D02*
X32670000Y-50180000D01*
X31750000Y-45390000D02*
X31750000Y-46340000D01*
X32670000Y-50180000D02*
X32670000Y-46340000D01*
X32670000Y-46340000D02*
X30830000Y-46340000D01*
%TO.C,R21*%
X30257000Y-58532000D02*
X28417000Y-58532000D01*
X29337000Y-63322000D02*
X29337000Y-62372000D01*
X30257000Y-62372000D02*
X30257000Y-58532000D01*
X28417000Y-62372000D02*
X30257000Y-62372000D01*
X28417000Y-58532000D02*
X28417000Y-62372000D01*
X29337000Y-57582000D02*
X29337000Y-58532000D01*
%TO.C,R22*%
X30626800Y-62372000D02*
X32466800Y-62372000D01*
X32466800Y-58532000D02*
X30626800Y-58532000D01*
X31546800Y-57582000D02*
X31546800Y-58532000D01*
X31546800Y-63322000D02*
X31546800Y-62372000D01*
X30626800Y-58532000D02*
X30626800Y-62372000D01*
X32466800Y-62372000D02*
X32466800Y-58532000D01*
%TO.C,R23*%
X32466800Y-72252600D02*
X32466800Y-68412600D01*
X31546800Y-73202600D02*
X31546800Y-72252600D01*
X30626800Y-72252600D02*
X32466800Y-72252600D01*
X32466800Y-68412600D02*
X30626800Y-68412600D01*
X30626800Y-68412600D02*
X30626800Y-72252600D01*
X31546800Y-67462600D02*
X31546800Y-68412600D01*
%TO.C,R24*%
X28391600Y-72278000D02*
X30231600Y-72278000D01*
X30231600Y-72278000D02*
X30231600Y-68438000D01*
X29311600Y-67488000D02*
X29311600Y-68438000D01*
X29311600Y-73228000D02*
X29311600Y-72278000D01*
X28391600Y-68438000D02*
X28391600Y-72278000D01*
X30231600Y-68438000D02*
X28391600Y-68438000D01*
%TO.C,R19*%
X33970000Y-80360000D02*
X33970000Y-82200000D01*
X37810000Y-80360000D02*
X33970000Y-80360000D01*
X33970000Y-82200000D02*
X37810000Y-82200000D01*
X38760000Y-81280000D02*
X37810000Y-81280000D01*
X37810000Y-82200000D02*
X37810000Y-80360000D01*
X33020000Y-81280000D02*
X33970000Y-81280000D01*
%TO.C,R20*%
X37810000Y-111410000D02*
X37810000Y-109570000D01*
X38760000Y-110490000D02*
X37810000Y-110490000D01*
X33970000Y-109570000D02*
X33970000Y-111410000D01*
X33970000Y-111410000D02*
X37810000Y-111410000D01*
X33020000Y-110490000D02*
X33970000Y-110490000D01*
X37810000Y-109570000D02*
X33970000Y-109570000D01*
%TO.C,RV1*%
X52320000Y-48500000D02*
X52320000Y-43780000D01*
X49110000Y-48500000D02*
X48280000Y-48500000D01*
X52320000Y-39970000D02*
X52320000Y-36910000D01*
X43760000Y-48500000D02*
X42580000Y-48500000D01*
X52320000Y-48500000D02*
X50830000Y-48500000D01*
X46660000Y-48500000D02*
X46130000Y-48500000D01*
X42570000Y-48500000D02*
X42570000Y-43780000D01*
X42580000Y-39970000D02*
X42580000Y-36910000D01*
X52320000Y-36910000D02*
X42580000Y-36910000D01*
%TO.C,RV2*%
X49110000Y-70410000D02*
X48280000Y-70410000D01*
X43760000Y-70410000D02*
X42580000Y-70410000D01*
X42580000Y-61880000D02*
X42580000Y-58820000D01*
X52320000Y-58820000D02*
X42580000Y-58820000D01*
X52320000Y-70410000D02*
X50830000Y-70410000D01*
X52320000Y-61880000D02*
X52320000Y-58820000D01*
X46660000Y-70410000D02*
X46130000Y-70410000D01*
X52320000Y-70410000D02*
X52320000Y-65690000D01*
X42570000Y-70410000D02*
X42570000Y-65690000D01*
%TO.C,RV3*%
X52320000Y-92320000D02*
X52320000Y-87600000D01*
X52320000Y-80730000D02*
X42580000Y-80730000D01*
X43760000Y-92320000D02*
X42580000Y-92320000D01*
X42570000Y-92320000D02*
X42570000Y-87600000D01*
X52320000Y-92320000D02*
X50830000Y-92320000D01*
X46660000Y-92320000D02*
X46130000Y-92320000D01*
X42580000Y-83790000D02*
X42580000Y-80730000D01*
X52320000Y-83790000D02*
X52320000Y-80730000D01*
X49110000Y-92320000D02*
X48280000Y-92320000D01*
%TO.C,RV4*%
X49110000Y-114230000D02*
X48280000Y-114230000D01*
X52320000Y-102640000D02*
X42580000Y-102640000D01*
X42580000Y-105700000D02*
X42580000Y-102640000D01*
X42570000Y-114230000D02*
X42570000Y-109510000D01*
X52320000Y-105700000D02*
X52320000Y-102640000D01*
X46660000Y-114230000D02*
X46130000Y-114230000D01*
X52320000Y-114230000D02*
X52320000Y-109510000D01*
X52320000Y-114230000D02*
X50830000Y-114230000D01*
X43760000Y-114230000D02*
X42580000Y-114230000D01*
D11*
%TO.C,SW3*%
X30880000Y-90050000D02*
X30880000Y-81350000D01*
X23380000Y-90050000D02*
X23380000Y-81350000D01*
X23380000Y-90050000D02*
X30880000Y-90050000D01*
X23380000Y-81350000D02*
X30880000Y-81350000D01*
X30880000Y-85700000D02*
G75*
G03*
X30880000Y-85700000I-3750000J0D01*
G01*
%TO.C,SW4*%
X30880000Y-119260000D02*
X30880000Y-110560000D01*
X23380000Y-110560000D02*
X30880000Y-110560000D01*
X23380000Y-119260000D02*
X30880000Y-119260000D01*
X23380000Y-119260000D02*
X23380000Y-110560000D01*
X30880000Y-114910000D02*
G75*
G03*
X30880000Y-114910000I-3750000J0D01*
G01*
D12*
%TO.C,SW1*%
X22970000Y-41000000D02*
X27470000Y-41000000D01*
X27470000Y-34500000D02*
X22970000Y-34500000D01*
X21720000Y-37000000D02*
X21720000Y-38500000D01*
X28720000Y-38500000D02*
X28720000Y-37000000D01*
%TO.C,SW2*%
X21720000Y-49700000D02*
X21720000Y-51200000D01*
X28720000Y-51200000D02*
X28720000Y-49700000D01*
X22970000Y-53700000D02*
X27470000Y-53700000D01*
X27470000Y-47200000D02*
X22970000Y-47200000D01*
%TO.C,J4*%
X46230000Y-124700000D02*
X46230000Y-135200000D01*
X37230000Y-124700000D02*
X37230000Y-135200000D01*
X41230000Y-135200000D02*
X37230000Y-135200000D01*
X40670000Y-121720000D02*
X40670000Y-122520000D01*
X40670000Y-121720000D02*
X41530000Y-121720000D01*
X41380000Y-124700000D02*
X37230000Y-124700000D01*
X46230000Y-135200000D02*
X42230000Y-135200000D01*
X46230000Y-124700000D02*
X42080000Y-124700000D01*
X43530000Y-129200000D02*
G75*
G03*
X43530000Y-129200000I-1800000J0D01*
G01*
%TO.C,J5*%
X57660000Y-124700000D02*
X53510000Y-124700000D01*
X52100000Y-121720000D02*
X52960000Y-121720000D01*
X52810000Y-124700000D02*
X48660000Y-124700000D01*
X57660000Y-135200000D02*
X53660000Y-135200000D01*
X57660000Y-124700000D02*
X57660000Y-135200000D01*
X52660000Y-135200000D02*
X48660000Y-135200000D01*
X48660000Y-124700000D02*
X48660000Y-135200000D01*
X52100000Y-121720000D02*
X52100000Y-122520000D01*
X54960000Y-129200000D02*
G75*
G03*
X54960000Y-129200000I-1800000J0D01*
G01*
%TO.C,D8*%
X35040000Y-84620000D02*
X35040000Y-84464000D01*
X35040000Y-86936000D02*
X35040000Y-86780000D01*
X32438870Y-86779837D02*
G75*
G03*
X34520961Y-86780000I1041130J1079837D01*
G01*
X31807665Y-86778608D02*
G75*
G03*
X35040000Y-86935516I1672335J1078609D01*
G01*
X35040000Y-84464484D02*
G75*
G03*
X31807665Y-84621392I-1560000J-1235517D01*
G01*
X34520961Y-84620000D02*
G75*
G03*
X32438870Y-84620163I-1040961J-1080000D01*
G01*
%TO.C,D9*%
X35040000Y-116146000D02*
X35040000Y-115990000D01*
X35040000Y-113830000D02*
X35040000Y-113674000D01*
X31807665Y-115988608D02*
G75*
G03*
X35040000Y-116145516I1672335J1078609D01*
G01*
X34520961Y-113830000D02*
G75*
G03*
X32438870Y-113830163I-1040961J-1080000D01*
G01*
X35040000Y-113674484D02*
G75*
G03*
X31807665Y-113831392I-1560000J-1235517D01*
G01*
X32438870Y-115989837D02*
G75*
G03*
X34520961Y-115990000I1041130J1079837D01*
G01*
%TD*%
M02*
