M48
; DRILL file {KiCad (6.0.0)} date Mon Nov 14 01:28:21 2022
; FORMAT={-:-/ absolute / metric / decimal}
; #@! TF.CreationDate,2022-11-14T01:28:21+01:00
; #@! TF.GenerationSoftware,Kicad,Pcbnew,(6.0.0)
; #@! TF.FileFunction,MixedPlating,1,2
FMAT,2
METRIC
; #@! TA.AperFunction,Plated,PTH,ViaDrill
T1C0.400
; #@! TA.AperFunction,Plated,PTH,ComponentDrill
T2C0.700
; #@! TA.AperFunction,Plated,PTH,ComponentDrill
T3C0.800
; #@! TA.AperFunction,Plated,PTH,ComponentDrill
T4C0.900
; #@! TA.AperFunction,Plated,PTH,ComponentDrill
T5C1.000
; #@! TA.AperFunction,Plated,PTH,ComponentDrill
T6C1.100
; #@! TA.AperFunction,Plated,PTH,ComponentDrill
T7C1.220
; #@! TA.AperFunction,Plated,PTH,ComponentDrill
T8C1.420
; #@! TA.AperFunction,Plated,PTH,ComponentDrill
T9C1.430
; #@! TA.AperFunction,Plated,PTH,ComponentDrill
T10C1.800
; #@! TA.AperFunction,NonPlated,NPTH,ComponentDrill
T11C3.200
%
G90
G05
T1
X36.83Y-76.835
X41.91Y-99.695
T2
X29.312Y-66.548
X29.312Y-74.168
X29.337Y-56.642
X29.337Y-64.262
X31.547Y-56.642
X31.547Y-64.262
X31.547Y-66.523
X31.547Y-74.143
X31.75Y-44.45
X31.75Y-52.07
X32.08Y-81.28
X32.08Y-110.49
X33.655Y-93.345
X33.655Y-100.965
X34.366Y-125.095
X34.366Y-132.715
X36.195Y-93.345
X36.195Y-100.965
X39.7Y-81.28
X39.7Y-110.49
X43.815Y-118.745
X51.435Y-118.745
T3
X33.655Y-105.275
X36.195Y-107.815
X38.092Y-115.062
X38.092Y-120.142
X38.735Y-105.275
X40.632Y-117.602
T4
X23.95Y-44.1
X23.95Y-56.8
X23.95Y-62.2
X23.95Y-67.6
X23.95Y-73.0
X24.63Y-83.2
X24.63Y-85.7
X24.63Y-88.2
X24.63Y-112.41
X24.63Y-114.91
X24.63Y-117.41
X26.49Y-44.1
X26.49Y-56.8
X26.49Y-62.2
X26.49Y-67.6
X26.49Y-73.0
X27.13Y-80.7
X27.13Y-90.7
X27.13Y-109.91
X27.13Y-119.91
X29.63Y-83.2
X29.63Y-85.7
X29.63Y-88.2
X29.63Y-112.41
X29.63Y-114.91
X29.63Y-117.41
X32.21Y-85.7
X32.21Y-114.91
X34.75Y-85.7
X34.75Y-114.91
T5
X34.935Y-52.07
X34.935Y-54.61
X34.935Y-57.15
X34.935Y-59.69
X34.935Y-62.23
X34.935Y-64.77
X34.935Y-67.31
X34.935Y-69.85
X34.935Y-72.39
X34.935Y-74.93
X34.935Y-77.47
X44.95Y-49.38
X44.95Y-71.29
X44.95Y-93.2
X44.95Y-115.11
X47.45Y-49.38
X47.45Y-71.29
X47.45Y-93.2
X47.45Y-115.11
X49.95Y-49.38
X49.95Y-71.29
X49.95Y-93.2
X49.95Y-115.11
X57.795Y-54.61
X57.795Y-57.15
X57.795Y-59.69
X57.795Y-62.23
X57.795Y-64.77
X57.795Y-67.31
X57.795Y-69.85
X57.795Y-72.39
X57.795Y-74.93
X57.795Y-77.47
T6
X21.97Y-35.5
X21.97Y-40.0
X21.97Y-48.2
X21.97Y-52.7
X28.47Y-35.5
X28.47Y-40.0
X28.47Y-48.2
X28.47Y-52.7
T7
X27.13Y-93.51
X27.13Y-122.72
X41.73Y-122.72
X53.16Y-122.72
T8
X27.13Y-96.61
X27.13Y-125.82
X41.73Y-125.82
X53.16Y-125.82
T9
X27.13Y-104.91
X27.13Y-134.12
X41.73Y-134.12
X53.16Y-134.12
T10
X42.65Y-41.88
X42.65Y-63.79
X42.65Y-85.7
X42.65Y-107.61
X52.25Y-41.88
X52.25Y-63.79
X52.25Y-85.7
X52.25Y-107.61
T11
X47.45Y-54.25
T0
M30
