%TF.GenerationSoftware,KiCad,Pcbnew,(6.0.0)*%
%TF.CreationDate,2022-11-14T01:28:36+01:00*%
%TF.ProjectId,Apeks,4170656b-732e-46b6-9963-61645f706362,rev?*%
%TF.SameCoordinates,Original*%
%TF.FileFunction,Legend,Bot*%
%TF.FilePolarity,Positive*%
%FSLAX46Y46*%
G04 Gerber Fmt 4.6, Leading zero omitted, Abs format (unit mm)*
G04 Created by KiCad (PCBNEW (6.0.0)) date 2022-11-14 01:28:36*
%MOMM*%
%LPD*%
G01*
G04 APERTURE LIST*
%ADD10C,0.375000*%
%ADD11C,0.100000*%
%ADD12C,0.300000*%
%ADD13C,0.125000*%
%ADD14C,0.200000*%
%ADD15C,0.150000*%
%ADD16C,0.222250*%
%ADD17C,0.120000*%
%ADD18C,0.304800*%
%ADD19R,2.250000X1.727200*%
%ADD20O,2.250000X1.727200*%
G04 APERTURE END LIST*
D10*
X112454842Y-38560333D02*
X111502461Y-38560333D01*
X112645319Y-39131761D02*
X111978652Y-37131761D01*
X111311985Y-39131761D01*
X110645319Y-37798428D02*
X110645319Y-39798428D01*
X110645319Y-37893666D02*
X110454842Y-37798428D01*
X110073890Y-37798428D01*
X109883414Y-37893666D01*
X109788176Y-37988904D01*
X109692938Y-38179380D01*
X109692938Y-38750809D01*
X109788176Y-38941285D01*
X109883414Y-39036523D01*
X110073890Y-39131761D01*
X110454842Y-39131761D01*
X110645319Y-39036523D01*
X108073890Y-39036523D02*
X108264366Y-39131761D01*
X108645319Y-39131761D01*
X108835795Y-39036523D01*
X108931033Y-38846047D01*
X108931033Y-38084142D01*
X108835795Y-37893666D01*
X108645319Y-37798428D01*
X108264366Y-37798428D01*
X108073890Y-37893666D01*
X107978652Y-38084142D01*
X107978652Y-38274619D01*
X108931033Y-38465095D01*
X107121509Y-39131761D02*
X107121509Y-37131761D01*
X106931033Y-38369857D02*
X106359604Y-39131761D01*
X106359604Y-37798428D02*
X107121509Y-38560333D01*
X105597700Y-39036523D02*
X105407223Y-39131761D01*
X105026271Y-39131761D01*
X104835795Y-39036523D01*
X104740557Y-38846047D01*
X104740557Y-38750809D01*
X104835795Y-38560333D01*
X105026271Y-38465095D01*
X105311985Y-38465095D01*
X105502461Y-38369857D01*
X105597700Y-38179380D01*
X105597700Y-38084142D01*
X105502461Y-37893666D01*
X105311985Y-37798428D01*
X105026271Y-37798428D01*
X104835795Y-37893666D01*
D11*
X112786428Y-46375785D02*
X112786428Y-45875785D01*
X112786428Y-45947214D02*
X112750714Y-45911500D01*
X112679285Y-45875785D01*
X112572142Y-45875785D01*
X112500714Y-45911500D01*
X112465000Y-45982928D01*
X112465000Y-46375785D01*
X112465000Y-45982928D02*
X112429285Y-45911500D01*
X112357857Y-45875785D01*
X112250714Y-45875785D01*
X112179285Y-45911500D01*
X112143571Y-45982928D01*
X112143571Y-46375785D01*
X111465000Y-45875785D02*
X111465000Y-46375785D01*
X111786428Y-45875785D02*
X111786428Y-46268642D01*
X111750714Y-46340071D01*
X111679285Y-46375785D01*
X111572142Y-46375785D01*
X111500714Y-46340071D01*
X111465000Y-46304357D01*
X111215000Y-45875785D02*
X110929285Y-45875785D01*
X111107857Y-45625785D02*
X111107857Y-46268642D01*
X111072142Y-46340071D01*
X111000714Y-46375785D01*
X110929285Y-46375785D01*
X110357857Y-46375785D02*
X110357857Y-45982928D01*
X110393571Y-45911500D01*
X110465000Y-45875785D01*
X110607857Y-45875785D01*
X110679285Y-45911500D01*
X110357857Y-46340071D02*
X110429285Y-46375785D01*
X110607857Y-46375785D01*
X110679285Y-46340071D01*
X110715000Y-46268642D01*
X110715000Y-46197214D01*
X110679285Y-46125785D01*
X110607857Y-46090071D01*
X110429285Y-46090071D01*
X110357857Y-46054357D01*
X110000714Y-46375785D02*
X110000714Y-45625785D01*
X110000714Y-45911500D02*
X109929285Y-45875785D01*
X109786428Y-45875785D01*
X109715000Y-45911500D01*
X109679285Y-45947214D01*
X109643571Y-46018642D01*
X109643571Y-46232928D01*
X109679285Y-46304357D01*
X109715000Y-46340071D01*
X109786428Y-46375785D01*
X109929285Y-46375785D01*
X110000714Y-46340071D01*
X109215000Y-46375785D02*
X109286428Y-46340071D01*
X109322142Y-46268642D01*
X109322142Y-45625785D01*
X108643571Y-46340071D02*
X108715000Y-46375785D01*
X108857857Y-46375785D01*
X108929285Y-46340071D01*
X108965000Y-46268642D01*
X108965000Y-45982928D01*
X108929285Y-45911500D01*
X108857857Y-45875785D01*
X108715000Y-45875785D01*
X108643571Y-45911500D01*
X108607857Y-45982928D01*
X108607857Y-46054357D01*
X108965000Y-46125785D01*
X108286428Y-46090071D02*
X107715000Y-46090071D01*
X107357857Y-46375785D02*
X107357857Y-45875785D01*
X107357857Y-45625785D02*
X107393571Y-45661500D01*
X107357857Y-45697214D01*
X107322142Y-45661500D01*
X107357857Y-45625785D01*
X107357857Y-45697214D01*
X107000714Y-45875785D02*
X107000714Y-46375785D01*
X107000714Y-45947214D02*
X106965000Y-45911500D01*
X106893571Y-45875785D01*
X106786428Y-45875785D01*
X106715000Y-45911500D01*
X106679285Y-45982928D01*
X106679285Y-46375785D01*
X106357857Y-46340071D02*
X106286428Y-46375785D01*
X106143571Y-46375785D01*
X106072142Y-46340071D01*
X106036428Y-46268642D01*
X106036428Y-46232928D01*
X106072142Y-46161500D01*
X106143571Y-46125785D01*
X106250714Y-46125785D01*
X106322142Y-46090071D01*
X106357857Y-46018642D01*
X106357857Y-45982928D01*
X106322142Y-45911500D01*
X106250714Y-45875785D01*
X106143571Y-45875785D01*
X106072142Y-45911500D01*
X105822142Y-45875785D02*
X105536428Y-45875785D01*
X105715000Y-45625785D02*
X105715000Y-46268642D01*
X105679285Y-46340071D01*
X105607857Y-46375785D01*
X105536428Y-46375785D01*
X105286428Y-46375785D02*
X105286428Y-45875785D01*
X105286428Y-46018642D02*
X105250714Y-45947214D01*
X105215000Y-45911500D01*
X105143571Y-45875785D01*
X105072142Y-45875785D01*
X104500714Y-45875785D02*
X104500714Y-46375785D01*
X104822142Y-45875785D02*
X104822142Y-46268642D01*
X104786428Y-46340071D01*
X104715000Y-46375785D01*
X104607857Y-46375785D01*
X104536428Y-46340071D01*
X104500714Y-46304357D01*
X104143571Y-46375785D02*
X104143571Y-45875785D01*
X104143571Y-45947214D02*
X104107857Y-45911500D01*
X104036428Y-45875785D01*
X103929285Y-45875785D01*
X103857857Y-45911500D01*
X103822142Y-45982928D01*
X103822142Y-46375785D01*
X103822142Y-45982928D02*
X103786428Y-45911500D01*
X103715000Y-45875785D01*
X103607857Y-45875785D01*
X103536428Y-45911500D01*
X103500714Y-45982928D01*
X103500714Y-46375785D01*
X102857857Y-46340071D02*
X102929285Y-46375785D01*
X103072142Y-46375785D01*
X103143571Y-46340071D01*
X103179285Y-46268642D01*
X103179285Y-45982928D01*
X103143571Y-45911500D01*
X103072142Y-45875785D01*
X102929285Y-45875785D01*
X102857857Y-45911500D01*
X102822142Y-45982928D01*
X102822142Y-46054357D01*
X103179285Y-46125785D01*
X102500714Y-45875785D02*
X102500714Y-46375785D01*
X102500714Y-45947214D02*
X102465000Y-45911500D01*
X102393571Y-45875785D01*
X102286428Y-45875785D01*
X102215000Y-45911500D01*
X102179285Y-45982928D01*
X102179285Y-46375785D01*
X101929285Y-45875785D02*
X101643571Y-45875785D01*
X101822142Y-45625785D02*
X101822142Y-46268642D01*
X101786428Y-46340071D01*
X101715000Y-46375785D01*
X101643571Y-46375785D01*
X101429285Y-46340071D02*
X101357857Y-46375785D01*
X101215000Y-46375785D01*
X101143571Y-46340071D01*
X101107857Y-46268642D01*
X101107857Y-46232928D01*
X101143571Y-46161500D01*
X101215000Y-46125785D01*
X101322142Y-46125785D01*
X101393571Y-46090071D01*
X101429285Y-46018642D01*
X101429285Y-45982928D01*
X101393571Y-45911500D01*
X101322142Y-45875785D01*
X101215000Y-45875785D01*
X101143571Y-45911500D01*
X112822142Y-47547571D02*
X112750714Y-47583285D01*
X112607857Y-47583285D01*
X112536428Y-47547571D01*
X112500714Y-47476142D01*
X112500714Y-47440428D01*
X112536428Y-47369000D01*
X112607857Y-47333285D01*
X112715000Y-47333285D01*
X112786428Y-47297571D01*
X112822142Y-47226142D01*
X112822142Y-47190428D01*
X112786428Y-47119000D01*
X112715000Y-47083285D01*
X112607857Y-47083285D01*
X112536428Y-47119000D01*
X112072142Y-47583285D02*
X112143571Y-47547571D01*
X112179285Y-47511857D01*
X112215000Y-47440428D01*
X112215000Y-47226142D01*
X112179285Y-47154714D01*
X112143571Y-47119000D01*
X112072142Y-47083285D01*
X111965000Y-47083285D01*
X111893571Y-47119000D01*
X111857857Y-47154714D01*
X111822142Y-47226142D01*
X111822142Y-47440428D01*
X111857857Y-47511857D01*
X111893571Y-47547571D01*
X111965000Y-47583285D01*
X112072142Y-47583285D01*
X111179285Y-47083285D02*
X111179285Y-47583285D01*
X111500714Y-47083285D02*
X111500714Y-47476142D01*
X111465000Y-47547571D01*
X111393571Y-47583285D01*
X111286428Y-47583285D01*
X111215000Y-47547571D01*
X111179285Y-47511857D01*
X110822142Y-47083285D02*
X110822142Y-47583285D01*
X110822142Y-47154714D02*
X110786428Y-47119000D01*
X110715000Y-47083285D01*
X110607857Y-47083285D01*
X110536428Y-47119000D01*
X110500714Y-47190428D01*
X110500714Y-47583285D01*
X109822142Y-47583285D02*
X109822142Y-46833285D01*
X109822142Y-47547571D02*
X109893571Y-47583285D01*
X110036428Y-47583285D01*
X110107857Y-47547571D01*
X110143571Y-47511857D01*
X110179285Y-47440428D01*
X110179285Y-47226142D01*
X110143571Y-47154714D01*
X110107857Y-47119000D01*
X110036428Y-47083285D01*
X109893571Y-47083285D01*
X109822142Y-47119000D01*
X109465000Y-47297571D02*
X108893571Y-47297571D01*
X108643571Y-47083285D02*
X108357857Y-47083285D01*
X108536428Y-47583285D02*
X108536428Y-46940428D01*
X108500714Y-46869000D01*
X108429285Y-46833285D01*
X108357857Y-46833285D01*
X108000714Y-47583285D02*
X108072142Y-47547571D01*
X108107857Y-47511857D01*
X108143571Y-47440428D01*
X108143571Y-47226142D01*
X108107857Y-47154714D01*
X108072142Y-47119000D01*
X108000714Y-47083285D01*
X107893571Y-47083285D01*
X107822142Y-47119000D01*
X107786428Y-47154714D01*
X107750714Y-47226142D01*
X107750714Y-47440428D01*
X107786428Y-47511857D01*
X107822142Y-47547571D01*
X107893571Y-47583285D01*
X108000714Y-47583285D01*
X107429285Y-47583285D02*
X107429285Y-47083285D01*
X107429285Y-47226142D02*
X107393571Y-47154714D01*
X107357857Y-47119000D01*
X107286428Y-47083285D01*
X107215000Y-47083285D01*
X106643571Y-47547571D02*
X106715000Y-47583285D01*
X106857857Y-47583285D01*
X106929285Y-47547571D01*
X106965000Y-47511857D01*
X107000714Y-47440428D01*
X107000714Y-47226142D01*
X106965000Y-47154714D01*
X106929285Y-47119000D01*
X106857857Y-47083285D01*
X106715000Y-47083285D01*
X106643571Y-47119000D01*
X106036428Y-47547571D02*
X106107857Y-47583285D01*
X106250714Y-47583285D01*
X106322142Y-47547571D01*
X106357857Y-47476142D01*
X106357857Y-47190428D01*
X106322142Y-47119000D01*
X106250714Y-47083285D01*
X106107857Y-47083285D01*
X106036428Y-47119000D01*
X106000714Y-47190428D01*
X106000714Y-47261857D01*
X106357857Y-47333285D01*
X105679285Y-47511857D02*
X105643571Y-47547571D01*
X105679285Y-47583285D01*
X105715000Y-47547571D01*
X105679285Y-47511857D01*
X105679285Y-47583285D01*
X105322142Y-47083285D02*
X105322142Y-47583285D01*
X105322142Y-47154714D02*
X105286428Y-47119000D01*
X105215000Y-47083285D01*
X105107857Y-47083285D01*
X105036428Y-47119000D01*
X105000714Y-47190428D01*
X105000714Y-47583285D01*
X104536428Y-47583285D02*
X104607857Y-47547571D01*
X104643571Y-47476142D01*
X104643571Y-46833285D01*
X112786428Y-48790785D02*
X112786428Y-48290785D01*
X112786428Y-48362214D02*
X112750714Y-48326500D01*
X112679285Y-48290785D01*
X112572142Y-48290785D01*
X112500714Y-48326500D01*
X112465000Y-48397928D01*
X112465000Y-48790785D01*
X112465000Y-48397928D02*
X112429285Y-48326500D01*
X112357857Y-48290785D01*
X112250714Y-48290785D01*
X112179285Y-48326500D01*
X112143571Y-48397928D01*
X112143571Y-48790785D01*
X111465000Y-48790785D02*
X111465000Y-48397928D01*
X111500714Y-48326500D01*
X111572142Y-48290785D01*
X111715000Y-48290785D01*
X111786428Y-48326500D01*
X111465000Y-48755071D02*
X111536428Y-48790785D01*
X111715000Y-48790785D01*
X111786428Y-48755071D01*
X111822142Y-48683642D01*
X111822142Y-48612214D01*
X111786428Y-48540785D01*
X111715000Y-48505071D01*
X111536428Y-48505071D01*
X111465000Y-48469357D01*
X111215000Y-48290785D02*
X110929285Y-48290785D01*
X111107857Y-48040785D02*
X111107857Y-48683642D01*
X111072142Y-48755071D01*
X111000714Y-48790785D01*
X110929285Y-48790785D01*
X110679285Y-48790785D02*
X110679285Y-48290785D01*
X110679285Y-48040785D02*
X110715000Y-48076500D01*
X110679285Y-48112214D01*
X110643571Y-48076500D01*
X110679285Y-48040785D01*
X110679285Y-48112214D01*
X110000714Y-48790785D02*
X110000714Y-48397928D01*
X110036428Y-48326500D01*
X110107857Y-48290785D01*
X110250714Y-48290785D01*
X110322142Y-48326500D01*
X110000714Y-48755071D02*
X110072142Y-48790785D01*
X110250714Y-48790785D01*
X110322142Y-48755071D01*
X110357857Y-48683642D01*
X110357857Y-48612214D01*
X110322142Y-48540785D01*
X110250714Y-48505071D01*
X110072142Y-48505071D01*
X110000714Y-48469357D01*
X109679285Y-48755071D02*
X109607857Y-48790785D01*
X109465000Y-48790785D01*
X109393571Y-48755071D01*
X109357857Y-48683642D01*
X109357857Y-48647928D01*
X109393571Y-48576500D01*
X109465000Y-48540785D01*
X109572142Y-48540785D01*
X109643571Y-48505071D01*
X109679285Y-48433642D01*
X109679285Y-48397928D01*
X109643571Y-48326500D01*
X109572142Y-48290785D01*
X109465000Y-48290785D01*
X109393571Y-48326500D01*
X109036428Y-48505071D02*
X108465000Y-48505071D01*
X108000714Y-48790785D02*
X108072142Y-48755071D01*
X108107857Y-48683642D01*
X108107857Y-48040785D01*
X107429285Y-48755071D02*
X107500714Y-48790785D01*
X107643571Y-48790785D01*
X107715000Y-48755071D01*
X107750714Y-48683642D01*
X107750714Y-48397928D01*
X107715000Y-48326500D01*
X107643571Y-48290785D01*
X107500714Y-48290785D01*
X107429285Y-48326500D01*
X107393571Y-48397928D01*
X107393571Y-48469357D01*
X107750714Y-48540785D01*
X107143571Y-48290785D02*
X106965000Y-48790785D01*
X106786428Y-48290785D01*
X106572142Y-48290785D02*
X106393571Y-48790785D01*
X106215000Y-48290785D02*
X106393571Y-48790785D01*
X106465000Y-48969357D01*
X106500714Y-49005071D01*
X106572142Y-49040785D01*
D12*
X112287857Y-50492857D02*
X112287857Y-50992857D01*
X113073571Y-51207142D02*
X113073571Y-50492857D01*
X111573571Y-50492857D01*
X111573571Y-51207142D01*
X113073571Y-51850000D02*
X112073571Y-51850000D01*
X112216428Y-51850000D02*
X112145000Y-51921428D01*
X112073571Y-52064285D01*
X112073571Y-52278571D01*
X112145000Y-52421428D01*
X112287857Y-52492857D01*
X113073571Y-52492857D01*
X112287857Y-52492857D02*
X112145000Y-52564285D01*
X112073571Y-52707142D01*
X112073571Y-52921428D01*
X112145000Y-53064285D01*
X112287857Y-53135714D01*
X113073571Y-53135714D01*
X113073571Y-53850000D02*
X112073571Y-53850000D01*
X111573571Y-53850000D02*
X111645000Y-53778571D01*
X111716428Y-53850000D01*
X111645000Y-53921428D01*
X111573571Y-53850000D01*
X111716428Y-53850000D01*
X113073571Y-54778571D02*
X113002142Y-54635714D01*
X112859285Y-54564285D01*
X111573571Y-54564285D01*
X113073571Y-55350000D02*
X112073571Y-55350000D01*
X111573571Y-55350000D02*
X111645000Y-55278571D01*
X111716428Y-55350000D01*
X111645000Y-55421428D01*
X111573571Y-55350000D01*
X111716428Y-55350000D01*
X113002142Y-56635714D02*
X113073571Y-56492857D01*
X113073571Y-56207142D01*
X113002142Y-56064285D01*
X112859285Y-55992857D01*
X112287857Y-55992857D01*
X112145000Y-56064285D01*
X112073571Y-56207142D01*
X112073571Y-56492857D01*
X112145000Y-56635714D01*
X112287857Y-56707142D01*
X112430714Y-56707142D01*
X112573571Y-55992857D01*
X111645000Y-59278571D02*
X111573571Y-59135714D01*
X111573571Y-58921428D01*
X111645000Y-58707142D01*
X111787857Y-58564285D01*
X111930714Y-58492857D01*
X112216428Y-58421428D01*
X112430714Y-58421428D01*
X112716428Y-58492857D01*
X112859285Y-58564285D01*
X113002142Y-58707142D01*
X113073571Y-58921428D01*
X113073571Y-59064285D01*
X113002142Y-59278571D01*
X112930714Y-59350000D01*
X112430714Y-59350000D01*
X112430714Y-59064285D01*
X113073571Y-59992857D02*
X112073571Y-59992857D01*
X111573571Y-59992857D02*
X111645000Y-59921428D01*
X111716428Y-59992857D01*
X111645000Y-60064285D01*
X111573571Y-59992857D01*
X111716428Y-59992857D01*
X113073571Y-60921428D02*
X113002142Y-60778571D01*
X112859285Y-60707142D01*
X111573571Y-60707142D01*
X113073571Y-61707142D02*
X113002142Y-61564285D01*
X112859285Y-61492857D01*
X111573571Y-61492857D01*
X113002142Y-62850000D02*
X113073571Y-62707142D01*
X113073571Y-62421428D01*
X113002142Y-62278571D01*
X112859285Y-62207142D01*
X112287857Y-62207142D01*
X112145000Y-62278571D01*
X112073571Y-62421428D01*
X112073571Y-62707142D01*
X112145000Y-62850000D01*
X112287857Y-62921428D01*
X112430714Y-62921428D01*
X112573571Y-62207142D01*
X112073571Y-63350000D02*
X112073571Y-63921428D01*
X111573571Y-63564285D02*
X112859285Y-63564285D01*
X113002142Y-63635714D01*
X113073571Y-63778571D01*
X113073571Y-63921428D01*
X113002142Y-64492857D02*
X113073571Y-64492857D01*
X113216428Y-64421428D01*
X113287857Y-64350000D01*
X113002142Y-66921428D02*
X113073571Y-66778571D01*
X113073571Y-66492857D01*
X113002142Y-66350000D01*
X112930714Y-66278571D01*
X112787857Y-66207142D01*
X112359285Y-66207142D01*
X112216428Y-66278571D01*
X112145000Y-66350000D01*
X112073571Y-66492857D01*
X112073571Y-66778571D01*
X112145000Y-66921428D01*
X113002142Y-68207142D02*
X113073571Y-68064285D01*
X113073571Y-67778571D01*
X113002142Y-67635714D01*
X112930714Y-67564285D01*
X112787857Y-67492857D01*
X112359285Y-67492857D01*
X112216428Y-67564285D01*
X112145000Y-67635714D01*
X112073571Y-67778571D01*
X112073571Y-68064285D01*
X112145000Y-68207142D01*
X112502142Y-68850000D02*
X112502142Y-69992857D01*
X113073571Y-70707142D02*
X111573571Y-70707142D01*
X112145000Y-70707142D02*
X112073571Y-70850000D01*
X112073571Y-71135714D01*
X112145000Y-71278571D01*
X112216428Y-71350000D01*
X112359285Y-71421428D01*
X112787857Y-71421428D01*
X112930714Y-71350000D01*
X113002142Y-71278571D01*
X113073571Y-71135714D01*
X113073571Y-70850000D01*
X113002142Y-70707142D01*
X112073571Y-71921428D02*
X113073571Y-72278571D01*
X112073571Y-72635714D02*
X113073571Y-72278571D01*
X113430714Y-72135714D01*
X113502142Y-72064285D01*
X113573571Y-71921428D01*
X112502142Y-73207142D02*
X112502142Y-74350000D01*
X113002142Y-74992857D02*
X113073571Y-75135714D01*
X113073571Y-75421428D01*
X113002142Y-75564285D01*
X112859285Y-75635714D01*
X112787857Y-75635714D01*
X112645000Y-75564285D01*
X112573571Y-75421428D01*
X112573571Y-75207142D01*
X112502142Y-75064285D01*
X112359285Y-74992857D01*
X112287857Y-74992857D01*
X112145000Y-75064285D01*
X112073571Y-75207142D01*
X112073571Y-75421428D01*
X112145000Y-75564285D01*
X113073571Y-76921428D02*
X112287857Y-76921428D01*
X112145000Y-76850000D01*
X112073571Y-76707142D01*
X112073571Y-76421428D01*
X112145000Y-76278571D01*
X113002142Y-76921428D02*
X113073571Y-76778571D01*
X113073571Y-76421428D01*
X113002142Y-76278571D01*
X112859285Y-76207142D01*
X112716428Y-76207142D01*
X112573571Y-76278571D01*
X112502142Y-76421428D01*
X112502142Y-76778571D01*
X112430714Y-76921428D01*
X112502142Y-77635714D02*
X112502142Y-78778571D01*
X111573571Y-79350000D02*
X111573571Y-80278571D01*
X112145000Y-79778571D01*
X112145000Y-79992857D01*
X112216428Y-80135714D01*
X112287857Y-80207142D01*
X112430714Y-80278571D01*
X112787857Y-80278571D01*
X112930714Y-80207142D01*
X113002142Y-80135714D01*
X113073571Y-79992857D01*
X113073571Y-79564285D01*
X113002142Y-79421428D01*
X112930714Y-79350000D01*
X112930714Y-80921428D02*
X113002142Y-80992857D01*
X113073571Y-80921428D01*
X113002142Y-80850000D01*
X112930714Y-80921428D01*
X113073571Y-80921428D01*
X111573571Y-81921428D02*
X111573571Y-82064285D01*
X111645000Y-82207142D01*
X111716428Y-82278571D01*
X111859285Y-82350000D01*
X112145000Y-82421428D01*
X112502142Y-82421428D01*
X112787857Y-82350000D01*
X112930714Y-82278571D01*
X113002142Y-82207142D01*
X113073571Y-82064285D01*
X113073571Y-81921428D01*
X113002142Y-81778571D01*
X112930714Y-81707142D01*
X112787857Y-81635714D01*
X112502142Y-81564285D01*
X112145000Y-81564285D01*
X111859285Y-81635714D01*
X111716428Y-81707142D01*
X111645000Y-81778571D01*
X111573571Y-81921428D01*
X111716428Y-84135714D02*
X111645000Y-84207142D01*
X111573571Y-84350000D01*
X111573571Y-84707142D01*
X111645000Y-84850000D01*
X111716428Y-84921428D01*
X111859285Y-84992857D01*
X112002142Y-84992857D01*
X112216428Y-84921428D01*
X113073571Y-84064285D01*
X113073571Y-84992857D01*
X111573571Y-85921428D02*
X111573571Y-86064285D01*
X111645000Y-86207142D01*
X111716428Y-86278571D01*
X111859285Y-86350000D01*
X112145000Y-86421428D01*
X112502142Y-86421428D01*
X112787857Y-86350000D01*
X112930714Y-86278571D01*
X113002142Y-86207142D01*
X113073571Y-86064285D01*
X113073571Y-85921428D01*
X113002142Y-85778571D01*
X112930714Y-85707142D01*
X112787857Y-85635714D01*
X112502142Y-85564285D01*
X112145000Y-85564285D01*
X111859285Y-85635714D01*
X111716428Y-85707142D01*
X111645000Y-85778571D01*
X111573571Y-85921428D01*
X113073571Y-87850000D02*
X113073571Y-86992857D01*
X113073571Y-87421428D02*
X111573571Y-87421428D01*
X111787857Y-87278571D01*
X111930714Y-87135714D01*
X112002142Y-86992857D01*
X113073571Y-88564285D02*
X113073571Y-88850000D01*
X113002142Y-88992857D01*
X112930714Y-89064285D01*
X112716428Y-89207142D01*
X112430714Y-89278571D01*
X111859285Y-89278571D01*
X111716428Y-89207142D01*
X111645000Y-89135714D01*
X111573571Y-88992857D01*
X111573571Y-88707142D01*
X111645000Y-88564285D01*
X111716428Y-88492857D01*
X111859285Y-88421428D01*
X112216428Y-88421428D01*
X112359285Y-88492857D01*
X112430714Y-88564285D01*
X112502142Y-88707142D01*
X112502142Y-88992857D01*
X112430714Y-89135714D01*
X112359285Y-89207142D01*
X112216428Y-89278571D01*
D13*
X104224955Y-39262857D02*
X104147574Y-39596190D01*
X103986860Y-39262857D01*
X103576145Y-39596190D02*
X103861860Y-39596190D01*
X103719002Y-39596190D02*
X103656502Y-39096190D01*
X103713050Y-39167619D01*
X103766622Y-39215238D01*
X103817217Y-39239047D01*
X103355907Y-39548571D02*
X103335074Y-39572380D01*
X103361860Y-39596190D01*
X103382693Y-39572380D01*
X103355907Y-39548571D01*
X103361860Y-39596190D01*
X102966026Y-39096190D02*
X102918407Y-39096190D01*
X102873764Y-39120000D01*
X102852931Y-39143809D01*
X102835074Y-39191428D01*
X102823169Y-39286666D01*
X102838050Y-39405714D01*
X102873764Y-39500952D01*
X102903526Y-39548571D01*
X102930312Y-39572380D01*
X102980907Y-39596190D01*
X103028526Y-39596190D01*
X103073169Y-39572380D01*
X103094002Y-39548571D01*
X103111860Y-39500952D01*
X103123764Y-39405714D01*
X103108883Y-39286666D01*
X103073169Y-39191428D01*
X103043407Y-39143809D01*
X103016622Y-39120000D01*
X102966026Y-39096190D01*
D14*
X112768548Y-44876980D02*
X112643548Y-43876980D01*
X112209025Y-44210314D02*
X112292358Y-44876980D01*
X112220929Y-44305552D02*
X112167358Y-44257933D01*
X112066167Y-44210314D01*
X111923310Y-44210314D01*
X111834025Y-44257933D01*
X111798310Y-44353171D01*
X111863786Y-44876980D01*
X111429263Y-44829361D02*
X111339977Y-44876980D01*
X111149501Y-44876980D01*
X111048310Y-44829361D01*
X110988786Y-44734123D01*
X110982834Y-44686504D01*
X111018548Y-44591266D01*
X111107834Y-44543647D01*
X111250691Y-44543647D01*
X111339977Y-44496028D01*
X111375691Y-44400790D01*
X111369739Y-44353171D01*
X111310215Y-44257933D01*
X111209025Y-44210314D01*
X111066167Y-44210314D01*
X110976882Y-44257933D01*
X110494739Y-44210314D02*
X110619739Y-45210314D01*
X110500691Y-44257933D02*
X110399501Y-44210314D01*
X110209025Y-44210314D01*
X110119739Y-44257933D01*
X110078072Y-44305552D01*
X110042358Y-44400790D01*
X110078072Y-44686504D01*
X110137596Y-44781742D01*
X110191167Y-44829361D01*
X110292358Y-44876980D01*
X110482834Y-44876980D01*
X110572120Y-44829361D01*
X109673310Y-44876980D02*
X109589977Y-44210314D01*
X109548310Y-43876980D02*
X109601882Y-43924600D01*
X109560215Y-43972219D01*
X109506644Y-43924600D01*
X109548310Y-43876980D01*
X109560215Y-43972219D01*
X109197120Y-44876980D02*
X109113786Y-44210314D01*
X109137596Y-44400790D02*
X109078072Y-44305552D01*
X109024501Y-44257933D01*
X108923310Y-44210314D01*
X108828072Y-44210314D01*
X108191167Y-44829361D02*
X108292358Y-44876980D01*
X108482834Y-44876980D01*
X108572120Y-44829361D01*
X108607834Y-44734123D01*
X108560215Y-44353171D01*
X108500691Y-44257933D01*
X108399501Y-44210314D01*
X108209025Y-44210314D01*
X108119739Y-44257933D01*
X108084025Y-44353171D01*
X108095929Y-44448409D01*
X108584025Y-44543647D01*
X107292358Y-44876980D02*
X107167358Y-43876980D01*
X107286405Y-44829361D02*
X107387596Y-44876980D01*
X107578072Y-44876980D01*
X107667358Y-44829361D01*
X107709025Y-44781742D01*
X107744739Y-44686504D01*
X107709025Y-44400790D01*
X107649501Y-44305552D01*
X107595929Y-44257933D01*
X107494739Y-44210314D01*
X107304263Y-44210314D01*
X107214977Y-44257933D01*
X106054263Y-44876980D02*
X105929263Y-43876980D01*
X105976882Y-44257933D02*
X105875691Y-44210314D01*
X105685215Y-44210314D01*
X105595929Y-44257933D01*
X105554263Y-44305552D01*
X105518548Y-44400790D01*
X105554263Y-44686504D01*
X105613786Y-44781742D01*
X105667358Y-44829361D01*
X105768548Y-44876980D01*
X105959025Y-44876980D01*
X106048310Y-44829361D01*
X105161405Y-44210314D02*
X105006644Y-44876980D01*
X104685215Y-44210314D02*
X105006644Y-44876980D01*
X105131644Y-45115076D01*
X105185215Y-45162695D01*
X105286405Y-45210314D01*
X104375691Y-44781742D02*
X104334025Y-44829361D01*
X104387596Y-44876980D01*
X104429263Y-44829361D01*
X104375691Y-44781742D01*
X104387596Y-44876980D01*
X104310215Y-44257933D02*
X104268548Y-44305552D01*
X104322120Y-44353171D01*
X104363786Y-44305552D01*
X104310215Y-44257933D01*
X104322120Y-44353171D01*
D15*
X112694404Y-40922380D02*
X112694404Y-39922380D01*
X112361071Y-40636666D01*
X112027738Y-39922380D01*
X112027738Y-40922380D01*
X111551547Y-40922380D02*
X111551547Y-40255714D01*
X111551547Y-39922380D02*
X111599166Y-39970000D01*
X111551547Y-40017619D01*
X111503928Y-39970000D01*
X111551547Y-39922380D01*
X111551547Y-40017619D01*
X110646785Y-40255714D02*
X110646785Y-41065238D01*
X110694404Y-41160476D01*
X110742023Y-41208095D01*
X110837261Y-41255714D01*
X110980119Y-41255714D01*
X111075357Y-41208095D01*
X110646785Y-40874761D02*
X110742023Y-40922380D01*
X110932500Y-40922380D01*
X111027738Y-40874761D01*
X111075357Y-40827142D01*
X111122976Y-40731904D01*
X111122976Y-40446190D01*
X111075357Y-40350952D01*
X111027738Y-40303333D01*
X110932500Y-40255714D01*
X110742023Y-40255714D01*
X110646785Y-40303333D01*
X109742023Y-40255714D02*
X109742023Y-40922380D01*
X110170595Y-40255714D02*
X110170595Y-40779523D01*
X110122976Y-40874761D01*
X110027738Y-40922380D01*
X109884880Y-40922380D01*
X109789642Y-40874761D01*
X109742023Y-40827142D01*
X108884880Y-40874761D02*
X108980119Y-40922380D01*
X109170595Y-40922380D01*
X109265833Y-40874761D01*
X109313452Y-40779523D01*
X109313452Y-40398571D01*
X109265833Y-40303333D01*
X109170595Y-40255714D01*
X108980119Y-40255714D01*
X108884880Y-40303333D01*
X108837261Y-40398571D01*
X108837261Y-40493809D01*
X109313452Y-40589047D01*
X108265833Y-40922380D02*
X108361071Y-40874761D01*
X108408690Y-40779523D01*
X108408690Y-39922380D01*
X107122976Y-40922380D02*
X107122976Y-39922380D01*
X106884880Y-39922380D01*
X106742023Y-39970000D01*
X106646785Y-40065238D01*
X106599166Y-40160476D01*
X106551547Y-40350952D01*
X106551547Y-40493809D01*
X106599166Y-40684285D01*
X106646785Y-40779523D01*
X106742023Y-40874761D01*
X106884880Y-40922380D01*
X107122976Y-40922380D01*
X105742023Y-40874761D02*
X105837261Y-40922380D01*
X106027738Y-40922380D01*
X106122976Y-40874761D01*
X106170595Y-40779523D01*
X106170595Y-40398571D01*
X106122976Y-40303333D01*
X106027738Y-40255714D01*
X105837261Y-40255714D01*
X105742023Y-40303333D01*
X105694404Y-40398571D01*
X105694404Y-40493809D01*
X106170595Y-40589047D01*
X104646785Y-39922380D02*
X104075357Y-39922380D01*
X104361071Y-40922380D02*
X104361071Y-39922380D01*
X103742023Y-40922380D02*
X103742023Y-40255714D01*
X103742023Y-40446190D02*
X103694404Y-40350952D01*
X103646785Y-40303333D01*
X103551547Y-40255714D01*
X103456309Y-40255714D01*
X102980119Y-40922380D02*
X103075357Y-40874761D01*
X103122976Y-40827142D01*
X103170595Y-40731904D01*
X103170595Y-40446190D01*
X103122976Y-40350952D01*
X103075357Y-40303333D01*
X102980119Y-40255714D01*
X102837261Y-40255714D01*
X102742023Y-40303333D01*
X102694404Y-40350952D01*
X102646785Y-40446190D01*
X102646785Y-40731904D01*
X102694404Y-40827142D01*
X102742023Y-40874761D01*
X102837261Y-40922380D01*
X102980119Y-40922380D01*
X102075357Y-40922380D02*
X102170595Y-40874761D01*
X102218214Y-40827142D01*
X102265833Y-40731904D01*
X102265833Y-40446190D01*
X102218214Y-40350952D01*
X102170595Y-40303333D01*
X102075357Y-40255714D01*
X101932500Y-40255714D01*
X101837261Y-40303333D01*
X101789642Y-40350952D01*
X101742023Y-40446190D01*
X101742023Y-40731904D01*
X101789642Y-40827142D01*
X101837261Y-40874761D01*
X101932500Y-40922380D01*
X102075357Y-40922380D01*
X101170595Y-40922380D02*
X101265833Y-40874761D01*
X101313452Y-40779523D01*
X101313452Y-39922380D01*
X111884880Y-42532380D02*
X111932500Y-42532380D01*
X112027738Y-42484761D01*
X112170595Y-42341904D01*
X112408690Y-42056190D01*
X112503928Y-41913333D01*
X112551547Y-41770476D01*
X112551547Y-41675238D01*
X112503928Y-41580000D01*
X112408690Y-41532380D01*
X112361071Y-41532380D01*
X112265833Y-41580000D01*
X112218214Y-41675238D01*
X112218214Y-41722857D01*
X112265833Y-41818095D01*
X112313452Y-41865714D01*
X112599166Y-42056190D01*
X112646785Y-42103809D01*
X112694404Y-42199047D01*
X112694404Y-42341904D01*
X112646785Y-42437142D01*
X112599166Y-42484761D01*
X112503928Y-42532380D01*
X112361071Y-42532380D01*
X112265833Y-42484761D01*
X112218214Y-42437142D01*
X112075357Y-42246666D01*
X112027738Y-42103809D01*
X112027738Y-42008571D01*
X110027738Y-42627619D02*
X110122976Y-42580000D01*
X110218214Y-42484761D01*
X110361071Y-42341904D01*
X110456309Y-42294285D01*
X110551547Y-42294285D01*
X110503928Y-42532380D02*
X110599166Y-42484761D01*
X110694404Y-42389523D01*
X110742023Y-42199047D01*
X110742023Y-41865714D01*
X110694404Y-41675238D01*
X110599166Y-41580000D01*
X110503928Y-41532380D01*
X110313452Y-41532380D01*
X110218214Y-41580000D01*
X110122976Y-41675238D01*
X110075357Y-41865714D01*
X110075357Y-42199047D01*
X110122976Y-42389523D01*
X110218214Y-42484761D01*
X110313452Y-42532380D01*
X110503928Y-42532380D01*
X109218214Y-41865714D02*
X109218214Y-42532380D01*
X109646785Y-41865714D02*
X109646785Y-42389523D01*
X109599166Y-42484761D01*
X109503928Y-42532380D01*
X109361071Y-42532380D01*
X109265833Y-42484761D01*
X109218214Y-42437142D01*
X108742023Y-42532380D02*
X108742023Y-41865714D01*
X108742023Y-41532380D02*
X108789642Y-41580000D01*
X108742023Y-41627619D01*
X108694404Y-41580000D01*
X108742023Y-41532380D01*
X108742023Y-41627619D01*
X108265833Y-41865714D02*
X108265833Y-42532380D01*
X108265833Y-41960952D02*
X108218214Y-41913333D01*
X108122976Y-41865714D01*
X107980119Y-41865714D01*
X107884880Y-41913333D01*
X107837261Y-42008571D01*
X107837261Y-42532380D01*
X107361071Y-42532380D02*
X107361071Y-41865714D01*
X107361071Y-41532380D02*
X107408690Y-41580000D01*
X107361071Y-41627619D01*
X107313452Y-41580000D01*
X107361071Y-41532380D01*
X107361071Y-41627619D01*
X106503928Y-42484761D02*
X106599166Y-42532380D01*
X106789642Y-42532380D01*
X106884880Y-42484761D01*
X106932500Y-42389523D01*
X106932500Y-42008571D01*
X106884880Y-41913333D01*
X106789642Y-41865714D01*
X106599166Y-41865714D01*
X106503928Y-41913333D01*
X106456309Y-42008571D01*
X106456309Y-42103809D01*
X106932500Y-42199047D01*
%TO.C,U4*%
X106806904Y-53437380D02*
X106806904Y-54246904D01*
X106759285Y-54342142D01*
X106711666Y-54389761D01*
X106616428Y-54437380D01*
X106425952Y-54437380D01*
X106330714Y-54389761D01*
X106283095Y-54342142D01*
X106235476Y-54246904D01*
X106235476Y-53437380D01*
X105330714Y-53770714D02*
X105330714Y-54437380D01*
X105568809Y-53389761D02*
X105806904Y-54104047D01*
X105187857Y-54104047D01*
%TO.C,J3*%
X120348333Y-132802380D02*
X120348333Y-133516666D01*
X120395952Y-133659523D01*
X120491190Y-133754761D01*
X120634047Y-133802380D01*
X120729285Y-133802380D01*
X119967380Y-132802380D02*
X119348333Y-132802380D01*
X119681666Y-133183333D01*
X119538809Y-133183333D01*
X119443571Y-133230952D01*
X119395952Y-133278571D01*
X119348333Y-133373809D01*
X119348333Y-133611904D01*
X119395952Y-133707142D01*
X119443571Y-133754761D01*
X119538809Y-133802380D01*
X119824523Y-133802380D01*
X119919761Y-133754761D01*
X119967380Y-133707142D01*
D16*
%TO.C,U1*%
X127677333Y-61743166D02*
X127677333Y-62462833D01*
X127635000Y-62547500D01*
X127592666Y-62589833D01*
X127508000Y-62632166D01*
X127338666Y-62632166D01*
X127254000Y-62589833D01*
X127211666Y-62547500D01*
X127169333Y-62462833D01*
X127169333Y-61743166D01*
X126280333Y-62632166D02*
X126788333Y-62632166D01*
X126534333Y-62632166D02*
X126534333Y-61743166D01*
X126619000Y-61870166D01*
X126703666Y-61954833D01*
X126788333Y-61997166D01*
X128752600Y-63726700D02*
X128625600Y-63769033D01*
X128583266Y-63811366D01*
X128540933Y-63896033D01*
X128540933Y-64023033D01*
X128583266Y-64107700D01*
X128625600Y-64150033D01*
X128710266Y-64192366D01*
X129048933Y-64192366D01*
X129048933Y-63303366D01*
X128752600Y-63303366D01*
X128667933Y-63345700D01*
X128625600Y-63388033D01*
X128583266Y-63472700D01*
X128583266Y-63557366D01*
X128625600Y-63642033D01*
X128667933Y-63684366D01*
X128752600Y-63726700D01*
X129048933Y-63726700D01*
X128032933Y-64192366D02*
X128117600Y-64150033D01*
X128159933Y-64065366D01*
X128159933Y-63303366D01*
X127313266Y-63599700D02*
X127313266Y-64192366D01*
X127694266Y-63599700D02*
X127694266Y-64065366D01*
X127651933Y-64150033D01*
X127567266Y-64192366D01*
X127440266Y-64192366D01*
X127355600Y-64150033D01*
X127313266Y-64107700D01*
X126551266Y-64150033D02*
X126635933Y-64192366D01*
X126805266Y-64192366D01*
X126889933Y-64150033D01*
X126932266Y-64065366D01*
X126932266Y-63726700D01*
X126889933Y-63642033D01*
X126805266Y-63599700D01*
X126635933Y-63599700D01*
X126551266Y-63642033D01*
X126508933Y-63726700D01*
X126508933Y-63811366D01*
X126932266Y-63896033D01*
X126127933Y-63599700D02*
X126127933Y-64488700D01*
X126127933Y-63642033D02*
X126043266Y-63599700D01*
X125873933Y-63599700D01*
X125789266Y-63642033D01*
X125746933Y-63684366D01*
X125704600Y-63769033D01*
X125704600Y-64023033D01*
X125746933Y-64107700D01*
X125789266Y-64150033D01*
X125873933Y-64192366D01*
X126043266Y-64192366D01*
X126127933Y-64150033D01*
X125323600Y-64192366D02*
X125323600Y-63599700D01*
X125323600Y-63303366D02*
X125365933Y-63345700D01*
X125323600Y-63388033D01*
X125281266Y-63345700D01*
X125323600Y-63303366D01*
X125323600Y-63388033D01*
X124773266Y-64192366D02*
X124857933Y-64150033D01*
X124900266Y-64065366D01*
X124900266Y-63303366D01*
X124307600Y-64192366D02*
X124392266Y-64150033D01*
X124434600Y-64065366D01*
X124434600Y-63303366D01*
D15*
%TO.C,C6*%
X102401666Y-132437142D02*
X102449285Y-132484761D01*
X102592142Y-132532380D01*
X102687380Y-132532380D01*
X102830238Y-132484761D01*
X102925476Y-132389523D01*
X102973095Y-132294285D01*
X103020714Y-132103809D01*
X103020714Y-131960952D01*
X102973095Y-131770476D01*
X102925476Y-131675238D01*
X102830238Y-131580000D01*
X102687380Y-131532380D01*
X102592142Y-131532380D01*
X102449285Y-131580000D01*
X102401666Y-131627619D01*
X101544523Y-131532380D02*
X101735000Y-131532380D01*
X101830238Y-131580000D01*
X101877857Y-131627619D01*
X101973095Y-131770476D01*
X102020714Y-131960952D01*
X102020714Y-132341904D01*
X101973095Y-132437142D01*
X101925476Y-132484761D01*
X101830238Y-132532380D01*
X101639761Y-132532380D01*
X101544523Y-132484761D01*
X101496904Y-132437142D01*
X101449285Y-132341904D01*
X101449285Y-132103809D01*
X101496904Y-132008571D01*
X101544523Y-131960952D01*
X101639761Y-131913333D01*
X101830238Y-131913333D01*
X101925476Y-131960952D01*
X101973095Y-132008571D01*
X102020714Y-132103809D01*
%TO.C,C7*%
X132881666Y-132022029D02*
X132929285Y-132069648D01*
X133072142Y-132117267D01*
X133167380Y-132117267D01*
X133310238Y-132069648D01*
X133405476Y-131974410D01*
X133453095Y-131879172D01*
X133500714Y-131688696D01*
X133500714Y-131545839D01*
X133453095Y-131355363D01*
X133405476Y-131260125D01*
X133310238Y-131164887D01*
X133167380Y-131117267D01*
X133072142Y-131117267D01*
X132929285Y-131164887D01*
X132881666Y-131212506D01*
X132548333Y-131117267D02*
X131881666Y-131117267D01*
X132310238Y-132117267D01*
%TO.C,C8*%
X106211666Y-121007142D02*
X106259285Y-121054761D01*
X106402142Y-121102380D01*
X106497380Y-121102380D01*
X106640238Y-121054761D01*
X106735476Y-120959523D01*
X106783095Y-120864285D01*
X106830714Y-120673809D01*
X106830714Y-120530952D01*
X106783095Y-120340476D01*
X106735476Y-120245238D01*
X106640238Y-120150000D01*
X106497380Y-120102380D01*
X106402142Y-120102380D01*
X106259285Y-120150000D01*
X106211666Y-120197619D01*
X105640238Y-120530952D02*
X105735476Y-120483333D01*
X105783095Y-120435714D01*
X105830714Y-120340476D01*
X105830714Y-120292857D01*
X105783095Y-120197619D01*
X105735476Y-120150000D01*
X105640238Y-120102380D01*
X105449761Y-120102380D01*
X105354523Y-120150000D01*
X105306904Y-120197619D01*
X105259285Y-120292857D01*
X105259285Y-120340476D01*
X105306904Y-120435714D01*
X105354523Y-120483333D01*
X105449761Y-120530952D01*
X105640238Y-120530952D01*
X105735476Y-120578571D01*
X105783095Y-120626190D01*
X105830714Y-120721428D01*
X105830714Y-120911904D01*
X105783095Y-121007142D01*
X105735476Y-121054761D01*
X105640238Y-121102380D01*
X105449761Y-121102380D01*
X105354523Y-121054761D01*
X105306904Y-121007142D01*
X105259285Y-120911904D01*
X105259285Y-120721428D01*
X105306904Y-120626190D01*
X105354523Y-120578571D01*
X105449761Y-120530952D01*
%TO.C,U5*%
X106806904Y-102322380D02*
X106806904Y-103131904D01*
X106759285Y-103227142D01*
X106711666Y-103274761D01*
X106616428Y-103322380D01*
X106425952Y-103322380D01*
X106330714Y-103274761D01*
X106283095Y-103227142D01*
X106235476Y-103131904D01*
X106235476Y-102322380D01*
X105283095Y-102322380D02*
X105759285Y-102322380D01*
X105806904Y-102798571D01*
X105759285Y-102750952D01*
X105664047Y-102703333D01*
X105425952Y-102703333D01*
X105330714Y-102750952D01*
X105283095Y-102798571D01*
X105235476Y-102893809D01*
X105235476Y-103131904D01*
X105283095Y-103227142D01*
X105330714Y-103274761D01*
X105425952Y-103322380D01*
X105664047Y-103322380D01*
X105759285Y-103274761D01*
X105806904Y-103227142D01*
D17*
%TO.C,U4*%
X107035000Y-48845000D02*
X108685000Y-48845000D01*
X103385000Y-48845000D02*
X105035000Y-48845000D01*
X108685000Y-48845000D02*
X108685000Y-59125000D01*
X108685000Y-59125000D02*
X103385000Y-59125000D01*
X103385000Y-59125000D02*
X103385000Y-48845000D01*
X105035000Y-48845000D02*
G75*
G03*
X107035000Y-48845000I1000000J0D01*
G01*
%TO.C,J3*%
X117965000Y-133425000D02*
X117965000Y-134735000D01*
X129005000Y-126925000D02*
X111025000Y-126925000D01*
X122065000Y-134735000D02*
X122065000Y-133425000D01*
X109725000Y-125615000D02*
X109725000Y-134735000D01*
X122065000Y-133425000D02*
X129005000Y-133425000D01*
X129005000Y-133425000D02*
X129005000Y-126925000D01*
X109725000Y-134735000D02*
X130305000Y-134735000D01*
X117965000Y-133425000D02*
X117965000Y-133425000D01*
X124595000Y-135874000D02*
X125095000Y-134874000D01*
X125095000Y-134874000D02*
X125595000Y-135874000D01*
X130305000Y-125615000D02*
X109725000Y-125615000D01*
X111025000Y-133425000D02*
X117965000Y-133425000D01*
X130305000Y-134735000D02*
X130305000Y-125615000D01*
X111025000Y-126925000D02*
X111025000Y-133425000D01*
X125595000Y-135874000D02*
X124595000Y-135874000D01*
D18*
%TO.C,U1*%
X137865000Y-90180000D02*
X137865000Y-36780000D01*
X114865000Y-36780000D02*
X114865000Y-90180000D01*
X137865000Y-36780000D02*
X114865000Y-36780000D01*
X114865000Y-90180000D02*
X137865000Y-90180000D01*
D17*
%TO.C,C6*%
X102680000Y-130470888D02*
X103735000Y-130470888D01*
X103050000Y-126395113D02*
X103550000Y-126395113D01*
X102446000Y-130070888D02*
X103735000Y-130070888D01*
X102206000Y-129189888D02*
X103735000Y-129189888D01*
X103032000Y-130870888D02*
X103735000Y-130870888D01*
X102307000Y-129710888D02*
X103735000Y-129710888D01*
X105815000Y-129349888D02*
X107325000Y-129349888D01*
X102528000Y-130230888D02*
X103735000Y-130230888D01*
X105815000Y-129910888D02*
X107173000Y-129910888D01*
X103524000Y-131230888D02*
X103735000Y-131230888D01*
X102320000Y-129750888D02*
X103735000Y-129750888D01*
X102465000Y-130110888D02*
X103735000Y-130110888D01*
X105815000Y-129830888D02*
X107203000Y-129830888D01*
X103275000Y-131070888D02*
X103735000Y-131070888D01*
X105815000Y-129990888D02*
X107140000Y-129990888D01*
X105815000Y-129790888D02*
X107217000Y-129790888D01*
X103170000Y-130990888D02*
X103735000Y-130990888D01*
X105815000Y-130870888D02*
X106518000Y-130870888D01*
X102195000Y-128949888D02*
X107355000Y-128949888D01*
X105815000Y-130950888D02*
X106428000Y-130950888D01*
X102197000Y-129069888D02*
X107353000Y-129069888D01*
X102232000Y-129389888D02*
X103735000Y-129389888D01*
X105815000Y-130150888D02*
X107065000Y-130150888D01*
X105815000Y-130270888D02*
X106999000Y-130270888D01*
X102990000Y-130830888D02*
X103735000Y-130830888D01*
X105815000Y-130910888D02*
X106474000Y-130910888D01*
X102911000Y-130750888D02*
X103735000Y-130750888D01*
X105815000Y-129309888D02*
X107331000Y-129309888D01*
X103392000Y-131150888D02*
X103735000Y-131150888D01*
X105815000Y-129389888D02*
X107318000Y-129389888D01*
X105815000Y-129629888D02*
X107266000Y-129629888D01*
X102393000Y-129950888D02*
X103735000Y-129950888D01*
X105815000Y-131190888D02*
X106094000Y-131190888D01*
X105815000Y-131110888D02*
X106218000Y-131110888D01*
X105815000Y-130830888D02*
X106560000Y-130830888D01*
X102740000Y-130550888D02*
X103735000Y-130550888D01*
X103300000Y-126145113D02*
X103300000Y-126645113D01*
X102219000Y-129309888D02*
X103735000Y-129309888D01*
X103860000Y-131390888D02*
X105690000Y-131390888D01*
X102274000Y-129589888D02*
X103735000Y-129589888D01*
X102195000Y-128989888D02*
X107355000Y-128989888D01*
X103122000Y-130950888D02*
X103735000Y-130950888D01*
X102333000Y-129790888D02*
X103735000Y-129790888D01*
X105815000Y-129269888D02*
X107336000Y-129269888D01*
X102361000Y-129870888D02*
X103735000Y-129870888D01*
X104491000Y-131550888D02*
X105059000Y-131550888D01*
X105815000Y-130470888D02*
X106870000Y-130470888D01*
X105815000Y-130390888D02*
X106924000Y-130390888D01*
X105815000Y-130630888D02*
X106746000Y-130630888D01*
X105815000Y-129429888D02*
X107311000Y-129429888D01*
X102210000Y-129229888D02*
X103735000Y-129229888D01*
X105815000Y-130990888D02*
X106380000Y-130990888D01*
X102427000Y-130030888D02*
X103735000Y-130030888D01*
X103456000Y-131190888D02*
X103735000Y-131190888D01*
X102626000Y-130390888D02*
X103735000Y-130390888D01*
X105815000Y-129589888D02*
X107276000Y-129589888D01*
X105815000Y-130750888D02*
X106639000Y-130750888D01*
X105815000Y-130230888D02*
X107022000Y-130230888D01*
X103970000Y-131430888D02*
X105580000Y-131430888D01*
X105815000Y-129870888D02*
X107189000Y-129870888D01*
X105815000Y-129189888D02*
X107344000Y-129189888D01*
X102284000Y-129629888D02*
X103735000Y-129629888D01*
X105815000Y-130790888D02*
X106601000Y-130790888D01*
X102653000Y-130430888D02*
X103735000Y-130430888D01*
X105815000Y-130590888D02*
X106779000Y-130590888D01*
X102255000Y-129509888D02*
X103735000Y-129509888D01*
X102202000Y-129149888D02*
X107348000Y-129149888D01*
X105815000Y-131150888D02*
X106158000Y-131150888D01*
X102600000Y-130350888D02*
X103735000Y-130350888D01*
X102838000Y-130670888D02*
X103735000Y-130670888D01*
X105815000Y-131070888D02*
X106275000Y-131070888D01*
X104098000Y-131470888D02*
X105452000Y-131470888D01*
X102710000Y-130510888D02*
X103735000Y-130510888D01*
X102575000Y-130310888D02*
X103735000Y-130310888D01*
X105815000Y-130670888D02*
X106712000Y-130670888D01*
X103332000Y-131110888D02*
X103735000Y-131110888D01*
X102874000Y-130710888D02*
X103735000Y-130710888D01*
X102485000Y-130150888D02*
X103735000Y-130150888D01*
X105815000Y-129229888D02*
X107340000Y-129229888D01*
X105815000Y-130710888D02*
X106676000Y-130710888D01*
X102225000Y-129349888D02*
X103735000Y-129349888D01*
X103221000Y-131030888D02*
X103735000Y-131030888D01*
X102507000Y-130190888D02*
X103735000Y-130190888D01*
X105815000Y-130350888D02*
X106950000Y-130350888D01*
X105815000Y-130030888D02*
X107123000Y-130030888D01*
X105815000Y-130430888D02*
X106897000Y-130430888D01*
X103764000Y-131350888D02*
X105786000Y-131350888D01*
X102247000Y-129469888D02*
X103735000Y-129469888D01*
X102771000Y-130590888D02*
X103735000Y-130590888D01*
X102551000Y-130270888D02*
X103735000Y-130270888D01*
X102264000Y-129549888D02*
X103735000Y-129549888D01*
X102199000Y-129109888D02*
X107351000Y-129109888D01*
X105815000Y-129750888D02*
X107230000Y-129750888D01*
X103597000Y-131270888D02*
X105953000Y-131270888D01*
X105815000Y-131030888D02*
X106329000Y-131030888D01*
X105815000Y-129710888D02*
X107243000Y-129710888D01*
X105815000Y-130510888D02*
X106840000Y-130510888D01*
X102804000Y-130630888D02*
X103735000Y-130630888D01*
X105815000Y-130550888D02*
X106810000Y-130550888D01*
X105815000Y-130110888D02*
X107085000Y-130110888D01*
X102295000Y-129670888D02*
X103735000Y-129670888D01*
X103076000Y-130910888D02*
X103735000Y-130910888D01*
X102949000Y-130790888D02*
X103735000Y-130790888D01*
X105815000Y-129670888D02*
X107255000Y-129670888D01*
X102196000Y-129029888D02*
X107354000Y-129029888D01*
X102347000Y-129830888D02*
X103735000Y-129830888D01*
X105815000Y-129509888D02*
X107295000Y-129509888D01*
X102410000Y-129990888D02*
X103735000Y-129990888D01*
X105815000Y-129950888D02*
X107157000Y-129950888D01*
X105815000Y-131230888D02*
X106026000Y-131230888D01*
X105815000Y-130070888D02*
X107104000Y-130070888D01*
X105815000Y-129469888D02*
X107303000Y-129469888D01*
X102214000Y-129269888D02*
X103735000Y-129269888D01*
X104257000Y-131510888D02*
X105293000Y-131510888D01*
X105815000Y-129549888D02*
X107286000Y-129549888D01*
X105815000Y-130310888D02*
X106975000Y-130310888D01*
X102377000Y-129910888D02*
X103735000Y-129910888D01*
X102239000Y-129429888D02*
X103735000Y-129429888D01*
X103677000Y-131310888D02*
X105873000Y-131310888D01*
X105815000Y-130190888D02*
X107043000Y-130190888D01*
X107395000Y-128949888D02*
G75*
G03*
X107395000Y-128949888I-2620000J0D01*
G01*
%TO.C,C7*%
X137766000Y-128260112D02*
X136295000Y-128260112D01*
X137683000Y-127979112D02*
X136295000Y-127979112D01*
X137565000Y-127699112D02*
X136295000Y-127699112D01*
X134215000Y-128420112D02*
X132712000Y-128420112D01*
X134215000Y-126819112D02*
X133650000Y-126819112D01*
X134215000Y-127579112D02*
X133008000Y-127579112D01*
X134215000Y-127499112D02*
X133055000Y-127499112D01*
X135773000Y-126299112D02*
X134737000Y-126299112D01*
X137156000Y-127099112D02*
X136295000Y-127099112D01*
X137791000Y-128380112D02*
X136295000Y-128380112D01*
X134215000Y-127099112D02*
X133354000Y-127099112D01*
X134215000Y-127939112D02*
X132841000Y-127939112D01*
X137833000Y-128740112D02*
X132677000Y-128740112D01*
X134215000Y-127859112D02*
X132873000Y-127859112D01*
X137545000Y-127659112D02*
X136295000Y-127659112D01*
X136170000Y-126419112D02*
X134340000Y-126419112D01*
X134215000Y-126739112D02*
X133755000Y-126739112D01*
X137119000Y-127059112D02*
X136295000Y-127059112D01*
X136954000Y-126899112D02*
X136295000Y-126899112D01*
X134215000Y-128460112D02*
X132705000Y-128460112D01*
X137603000Y-127779112D02*
X136295000Y-127779112D01*
X137350000Y-127339112D02*
X136295000Y-127339112D01*
X134215000Y-127779112D02*
X132907000Y-127779112D01*
X134215000Y-128220112D02*
X132754000Y-128220112D01*
X137697000Y-128019112D02*
X136295000Y-128019112D01*
X137455000Y-127499112D02*
X136295000Y-127499112D01*
X134215000Y-126619112D02*
X133936000Y-126619112D01*
X134215000Y-128580112D02*
X132690000Y-128580112D01*
X137831000Y-128700112D02*
X132679000Y-128700112D01*
X136980000Y-131414887D02*
X136480000Y-131414887D01*
X134215000Y-127459112D02*
X133080000Y-127459112D01*
X136506000Y-126579112D02*
X136295000Y-126579112D01*
X134215000Y-128300112D02*
X132735000Y-128300112D01*
X134215000Y-127979112D02*
X132827000Y-127979112D01*
X134215000Y-127339112D02*
X133160000Y-127339112D01*
X136638000Y-126659112D02*
X136295000Y-126659112D01*
X137746000Y-128180112D02*
X136295000Y-128180112D01*
X134215000Y-126859112D02*
X133602000Y-126859112D01*
X134215000Y-127379112D02*
X133133000Y-127379112D01*
X137040000Y-126979112D02*
X136295000Y-126979112D01*
X137798000Y-128420112D02*
X136295000Y-128420112D01*
X136755000Y-126739112D02*
X136295000Y-126739112D01*
X136998000Y-126939112D02*
X136295000Y-126939112D01*
X134215000Y-127299112D02*
X133190000Y-127299112D01*
X134215000Y-127179112D02*
X133284000Y-127179112D01*
X134215000Y-128260112D02*
X132744000Y-128260112D01*
X136353000Y-126499112D02*
X134157000Y-126499112D01*
X137290000Y-127259112D02*
X136295000Y-127259112D01*
X137226000Y-127179112D02*
X136295000Y-127179112D01*
X134215000Y-128500112D02*
X132699000Y-128500112D01*
X134215000Y-127539112D02*
X133031000Y-127539112D01*
X136860000Y-126819112D02*
X136295000Y-126819112D01*
X137835000Y-128820112D02*
X132675000Y-128820112D01*
X134215000Y-128380112D02*
X132719000Y-128380112D01*
X134215000Y-128139112D02*
X132775000Y-128139112D01*
X134215000Y-127659112D02*
X132965000Y-127659112D01*
X136908000Y-126859112D02*
X136295000Y-126859112D01*
X134215000Y-127059112D02*
X133391000Y-127059112D01*
X136698000Y-126699112D02*
X136295000Y-126699112D01*
X137669000Y-127939112D02*
X136295000Y-127939112D01*
X134215000Y-127899112D02*
X132857000Y-127899112D01*
X137820000Y-128580112D02*
X136295000Y-128580112D01*
X137816000Y-128540112D02*
X136295000Y-128540112D01*
X137637000Y-127859112D02*
X136295000Y-127859112D01*
X134215000Y-126659112D02*
X133872000Y-126659112D01*
X135932000Y-126339112D02*
X134578000Y-126339112D01*
X137320000Y-127299112D02*
X136295000Y-127299112D01*
X137723000Y-128099112D02*
X136295000Y-128099112D01*
X134215000Y-127419112D02*
X133106000Y-127419112D01*
X134215000Y-128620112D02*
X132686000Y-128620112D01*
X134215000Y-128340112D02*
X132727000Y-128340112D01*
X137710000Y-128059112D02*
X136295000Y-128059112D01*
X136809000Y-126779112D02*
X136295000Y-126779112D01*
X134215000Y-127139112D02*
X133318000Y-127139112D01*
X134215000Y-126579112D02*
X134004000Y-126579112D01*
X137523000Y-127619112D02*
X136295000Y-127619112D01*
X134215000Y-127259112D02*
X133220000Y-127259112D01*
X137502000Y-127579112D02*
X136295000Y-127579112D01*
X134215000Y-127739112D02*
X132926000Y-127739112D01*
X134215000Y-127019112D02*
X133429000Y-127019112D01*
X134215000Y-126779112D02*
X133701000Y-126779112D01*
X134215000Y-127699112D02*
X132945000Y-127699112D01*
X137834000Y-128780112D02*
X132676000Y-128780112D01*
X137404000Y-127419112D02*
X136295000Y-127419112D01*
X134215000Y-126899112D02*
X133556000Y-126899112D01*
X137192000Y-127139112D02*
X136295000Y-127139112D01*
X134215000Y-128019112D02*
X132813000Y-128019112D01*
X137756000Y-128220112D02*
X136295000Y-128220112D01*
X135539000Y-126259112D02*
X134971000Y-126259112D01*
X137584000Y-127739112D02*
X136295000Y-127739112D01*
X136060000Y-126379112D02*
X134450000Y-126379112D01*
X134215000Y-128059112D02*
X132800000Y-128059112D01*
X136574000Y-126619112D02*
X136295000Y-126619112D01*
X134215000Y-126939112D02*
X133512000Y-126939112D01*
X136266000Y-126459112D02*
X134244000Y-126459112D01*
X137430000Y-127459112D02*
X136295000Y-127459112D01*
X134215000Y-127219112D02*
X133251000Y-127219112D01*
X137479000Y-127539112D02*
X136295000Y-127539112D01*
X137735000Y-128139112D02*
X136295000Y-128139112D01*
X136730000Y-131664887D02*
X136730000Y-131164887D01*
X137081000Y-127019112D02*
X136295000Y-127019112D01*
X137620000Y-127819112D02*
X136295000Y-127819112D01*
X136433000Y-126539112D02*
X134077000Y-126539112D01*
X137828000Y-128660112D02*
X132682000Y-128660112D01*
X137653000Y-127899112D02*
X136295000Y-127899112D01*
X137775000Y-128300112D02*
X136295000Y-128300112D01*
X134215000Y-127819112D02*
X132890000Y-127819112D01*
X137811000Y-128500112D02*
X136295000Y-128500112D01*
X137835000Y-128860112D02*
X132675000Y-128860112D01*
X134215000Y-128180112D02*
X132764000Y-128180112D01*
X137824000Y-128620112D02*
X136295000Y-128620112D01*
X134215000Y-126979112D02*
X133470000Y-126979112D01*
X134215000Y-128540112D02*
X132694000Y-128540112D01*
X134215000Y-127619112D02*
X132987000Y-127619112D01*
X134215000Y-128099112D02*
X132787000Y-128099112D01*
X137783000Y-128340112D02*
X136295000Y-128340112D01*
X137259000Y-127219112D02*
X136295000Y-127219112D01*
X134215000Y-126699112D02*
X133812000Y-126699112D01*
X137377000Y-127379112D02*
X136295000Y-127379112D01*
X137805000Y-128460112D02*
X136295000Y-128460112D01*
X137875000Y-128860112D02*
G75*
G03*
X137875000Y-128860112I-2620000J0D01*
G01*
%TO.C,C8*%
X106620413Y-118960000D02*
X106620413Y-119363000D01*
X108781413Y-115340000D02*
X108781413Y-120500000D01*
X107180413Y-118960000D02*
X107180413Y-119955000D01*
X107860413Y-118960000D02*
X107860413Y-120334000D01*
X108341413Y-118960000D02*
X108341413Y-120463000D01*
X107940413Y-118960000D02*
X107940413Y-120362000D01*
X108541413Y-115351000D02*
X108541413Y-116880000D01*
X107620413Y-115610000D02*
X107620413Y-116880000D01*
X107660413Y-118960000D02*
X107660413Y-120249000D01*
X107220413Y-118960000D02*
X107220413Y-119985000D01*
X107860413Y-115506000D02*
X107860413Y-116880000D01*
X108101413Y-115429000D02*
X108101413Y-116880000D01*
X107900413Y-118960000D02*
X107900413Y-120348000D01*
X106860413Y-116177000D02*
X106860413Y-116880000D01*
X106460413Y-116742000D02*
X106460413Y-119098000D01*
X108461413Y-118960000D02*
X108461413Y-120481000D01*
X106980413Y-118960000D02*
X106980413Y-119784000D01*
X106940413Y-116094000D02*
X106940413Y-116880000D01*
X106820413Y-118960000D02*
X106820413Y-119619000D01*
X108020413Y-115452000D02*
X108020413Y-116880000D01*
X108501413Y-118960000D02*
X108501413Y-120485000D01*
X106180413Y-117636000D02*
X106180413Y-118204000D01*
X108381413Y-115370000D02*
X108381413Y-116880000D01*
X108461413Y-115359000D02*
X108461413Y-116880000D01*
X107500413Y-115673000D02*
X107500413Y-116880000D01*
X108421413Y-118960000D02*
X108421413Y-120476000D01*
X108341413Y-115377000D02*
X108341413Y-116880000D01*
X107540413Y-115652000D02*
X107540413Y-116880000D01*
X107140413Y-118960000D02*
X107140413Y-119924000D01*
X106940413Y-118960000D02*
X106940413Y-119746000D01*
X106900413Y-118960000D02*
X106900413Y-119705000D01*
X106540413Y-118960000D02*
X106540413Y-119239000D01*
X106700413Y-116366000D02*
X106700413Y-116880000D01*
X107740413Y-115555000D02*
X107740413Y-116880000D01*
X106740413Y-116315000D02*
X106740413Y-116880000D01*
X107100413Y-115949000D02*
X107100413Y-116880000D01*
X107340413Y-115771000D02*
X107340413Y-116880000D01*
X108581413Y-115347000D02*
X108581413Y-120493000D01*
X107260413Y-115825000D02*
X107260413Y-116880000D01*
X107980413Y-115465000D02*
X107980413Y-116880000D01*
X106420413Y-116822000D02*
X106420413Y-119018000D01*
X106340413Y-117005000D02*
X106340413Y-118835000D01*
X108221413Y-118960000D02*
X108221413Y-120440000D01*
X106500413Y-116669000D02*
X106500413Y-116880000D01*
X106580413Y-116537000D02*
X106580413Y-116880000D01*
X107580413Y-115630000D02*
X107580413Y-116880000D01*
X107020413Y-118960000D02*
X107020413Y-119821000D01*
X106780413Y-116267000D02*
X106780413Y-116880000D01*
X106660413Y-118960000D02*
X106660413Y-119420000D01*
X107980413Y-118960000D02*
X107980413Y-120375000D01*
X106620413Y-116477000D02*
X106620413Y-116880000D01*
X108301413Y-115384000D02*
X108301413Y-116880000D01*
X107460413Y-118960000D02*
X107460413Y-120144000D01*
X106900413Y-116135000D02*
X106900413Y-116880000D01*
X108301413Y-118960000D02*
X108301413Y-120456000D01*
X107260413Y-118960000D02*
X107260413Y-120015000D01*
X108141413Y-115419000D02*
X108141413Y-116880000D01*
X108421413Y-115364000D02*
X108421413Y-116880000D01*
X108020413Y-118960000D02*
X108020413Y-120388000D01*
X107060413Y-115983000D02*
X107060413Y-116880000D01*
X107140413Y-115916000D02*
X107140413Y-116880000D01*
X106540413Y-116601000D02*
X106540413Y-116880000D01*
X108621413Y-115344000D02*
X108621413Y-120496000D01*
X107820413Y-115522000D02*
X107820413Y-116880000D01*
X108101413Y-118960000D02*
X108101413Y-120411000D01*
X108381413Y-118960000D02*
X108381413Y-120470000D01*
X108181413Y-118960000D02*
X108181413Y-120431000D01*
X106380413Y-116909000D02*
X106380413Y-118931000D01*
X108661413Y-115342000D02*
X108661413Y-120498000D01*
X107020413Y-116019000D02*
X107020413Y-116880000D01*
X106220413Y-117402000D02*
X106220413Y-118438000D01*
X107380413Y-115745000D02*
X107380413Y-116880000D01*
X107540413Y-118960000D02*
X107540413Y-120188000D01*
X108060413Y-118960000D02*
X108060413Y-120400000D01*
X107660413Y-115591000D02*
X107660413Y-116880000D01*
X108541413Y-118960000D02*
X108541413Y-120489000D01*
X107820413Y-118960000D02*
X107820413Y-120318000D01*
X108261413Y-115392000D02*
X108261413Y-116880000D01*
X107220413Y-115855000D02*
X107220413Y-116880000D01*
X106700413Y-118960000D02*
X106700413Y-119474000D01*
X107580413Y-118960000D02*
X107580413Y-120210000D01*
X107100413Y-118960000D02*
X107100413Y-119891000D01*
X108701413Y-115341000D02*
X108701413Y-120499000D01*
X106500413Y-118960000D02*
X106500413Y-119171000D01*
X106300413Y-117115000D02*
X106300413Y-118725000D01*
X111336188Y-116195000D02*
X111336188Y-116695000D01*
X106660413Y-116420000D02*
X106660413Y-116880000D01*
X108181413Y-115409000D02*
X108181413Y-116880000D01*
X107780413Y-118960000D02*
X107780413Y-120302000D01*
X108060413Y-115440000D02*
X108060413Y-116880000D01*
X107460413Y-115696000D02*
X107460413Y-116880000D01*
X108501413Y-115355000D02*
X108501413Y-116880000D01*
X107740413Y-118960000D02*
X107740413Y-120285000D01*
X106980413Y-116056000D02*
X106980413Y-116880000D01*
X107780413Y-115538000D02*
X107780413Y-116880000D01*
X106580413Y-118960000D02*
X106580413Y-119303000D01*
X106780413Y-118960000D02*
X106780413Y-119573000D01*
X106740413Y-118960000D02*
X106740413Y-119525000D01*
X107500413Y-118960000D02*
X107500413Y-120167000D01*
X107700413Y-118960000D02*
X107700413Y-120268000D01*
X108221413Y-115400000D02*
X108221413Y-116880000D01*
X107940413Y-115478000D02*
X107940413Y-116880000D01*
X107900413Y-115492000D02*
X107900413Y-116880000D01*
X108261413Y-118960000D02*
X108261413Y-120448000D01*
X107420413Y-115720000D02*
X107420413Y-116880000D01*
X107620413Y-118960000D02*
X107620413Y-120230000D01*
X107340413Y-118960000D02*
X107340413Y-120069000D01*
X107300413Y-118960000D02*
X107300413Y-120042000D01*
X106260413Y-117243000D02*
X106260413Y-118597000D01*
X107180413Y-115885000D02*
X107180413Y-116880000D01*
X107300413Y-115798000D02*
X107300413Y-116880000D01*
X106860413Y-118960000D02*
X106860413Y-119663000D01*
X107700413Y-115572000D02*
X107700413Y-116880000D01*
X107060413Y-118960000D02*
X107060413Y-119857000D01*
X107380413Y-118960000D02*
X107380413Y-120095000D01*
X108741413Y-115340000D02*
X108741413Y-120500000D01*
X111586188Y-116445000D02*
X111086188Y-116445000D01*
X106820413Y-116221000D02*
X106820413Y-116880000D01*
X107420413Y-118960000D02*
X107420413Y-120120000D01*
X108141413Y-118960000D02*
X108141413Y-120421000D01*
X111401413Y-117920000D02*
G75*
G03*
X111401413Y-117920000I-2620000J0D01*
G01*
%TO.C,U5*%
X108585000Y-110125000D02*
X108585000Y-112665000D01*
X103505000Y-110125000D02*
X103505000Y-112665000D01*
X111165000Y-94235000D02*
X100925000Y-94235000D01*
X111165000Y-110125000D02*
X100925000Y-110125000D01*
X111165000Y-94235000D02*
X111165000Y-110125000D01*
X106045000Y-110125000D02*
X106045000Y-112665000D01*
X100925000Y-94235000D02*
X100925000Y-110125000D01*
%TD*%
D19*
%TO.C,U1*%
X118745000Y-87640800D03*
D20*
X118745000Y-85100800D03*
X118745000Y-82560800D03*
X118745000Y-80020800D03*
X118745000Y-77480800D03*
X118745000Y-74940800D03*
X118745000Y-72400800D03*
X118745000Y-69860800D03*
X118745000Y-67320800D03*
X118745000Y-64780800D03*
X118745000Y-62240800D03*
X118745000Y-59700800D03*
X118745000Y-57160800D03*
X118745000Y-54620800D03*
X118745000Y-52080800D03*
X118745000Y-49540800D03*
X118745000Y-47000800D03*
X118745000Y-44460800D03*
X118745000Y-41920800D03*
X118745000Y-39380800D03*
X133985000Y-39380800D03*
X133985000Y-41920800D03*
X133985000Y-44460800D03*
X133985000Y-47000800D03*
X133985000Y-49540800D03*
X133985000Y-52080800D03*
X133985000Y-54620800D03*
X133985000Y-57160800D03*
X133985000Y-59700800D03*
X133985000Y-62240800D03*
X133985000Y-64780800D03*
X133985000Y-67320800D03*
X133985000Y-69860800D03*
X133985000Y-72400800D03*
X133985000Y-74940800D03*
X133985000Y-77480800D03*
X133985000Y-80020800D03*
X133985000Y-82560800D03*
X133985000Y-85100800D03*
X133985000Y-87691600D03*
%TD*%
M02*
