%TF.GenerationSoftware,KiCad,Pcbnew,(6.0.0)*%
%TF.CreationDate,2022-11-14T01:28:36+01:00*%
%TF.ProjectId,Apeks,4170656b-732e-46b6-9963-61645f706362,rev?*%
%TF.SameCoordinates,Original*%
%TF.FileFunction,Legend,Top*%
%TF.FilePolarity,Positive*%
%FSLAX46Y46*%
G04 Gerber Fmt 4.6, Leading zero omitted, Abs format (unit mm)*
G04 Created by KiCad (PCBNEW (6.0.0)) date 2022-11-14 01:28:36*
%MOMM*%
%LPD*%
G01*
G04 APERTURE LIST*
%ADD10C,0.300000*%
%ADD11C,0.150000*%
%ADD12C,0.120000*%
G04 APERTURE END LIST*
D10*
X112287857Y-89207142D02*
X112287857Y-88707142D01*
X113073571Y-88492857D02*
X113073571Y-89207142D01*
X111573571Y-89207142D01*
X111573571Y-88492857D01*
X113073571Y-87850000D02*
X112073571Y-87850000D01*
X112216428Y-87850000D02*
X112145000Y-87778571D01*
X112073571Y-87635714D01*
X112073571Y-87421428D01*
X112145000Y-87278571D01*
X112287857Y-87207142D01*
X113073571Y-87207142D01*
X112287857Y-87207142D02*
X112145000Y-87135714D01*
X112073571Y-86992857D01*
X112073571Y-86778571D01*
X112145000Y-86635714D01*
X112287857Y-86564285D01*
X113073571Y-86564285D01*
X113073571Y-85850000D02*
X112073571Y-85850000D01*
X111573571Y-85850000D02*
X111645000Y-85921428D01*
X111716428Y-85850000D01*
X111645000Y-85778571D01*
X111573571Y-85850000D01*
X111716428Y-85850000D01*
X113073571Y-84921428D02*
X113002142Y-85064285D01*
X112859285Y-85135714D01*
X111573571Y-85135714D01*
X113073571Y-84350000D02*
X112073571Y-84350000D01*
X111573571Y-84350000D02*
X111645000Y-84421428D01*
X111716428Y-84350000D01*
X111645000Y-84278571D01*
X111573571Y-84350000D01*
X111716428Y-84350000D01*
X113002142Y-83064285D02*
X113073571Y-83207142D01*
X113073571Y-83492857D01*
X113002142Y-83635714D01*
X112859285Y-83707142D01*
X112287857Y-83707142D01*
X112145000Y-83635714D01*
X112073571Y-83492857D01*
X112073571Y-83207142D01*
X112145000Y-83064285D01*
X112287857Y-82992857D01*
X112430714Y-82992857D01*
X112573571Y-83707142D01*
X111645000Y-80421428D02*
X111573571Y-80564285D01*
X111573571Y-80778571D01*
X111645000Y-80992857D01*
X111787857Y-81135714D01*
X111930714Y-81207142D01*
X112216428Y-81278571D01*
X112430714Y-81278571D01*
X112716428Y-81207142D01*
X112859285Y-81135714D01*
X113002142Y-80992857D01*
X113073571Y-80778571D01*
X113073571Y-80635714D01*
X113002142Y-80421428D01*
X112930714Y-80350000D01*
X112430714Y-80350000D01*
X112430714Y-80635714D01*
X113073571Y-79707142D02*
X112073571Y-79707142D01*
X111573571Y-79707142D02*
X111645000Y-79778571D01*
X111716428Y-79707142D01*
X111645000Y-79635714D01*
X111573571Y-79707142D01*
X111716428Y-79707142D01*
X113073571Y-78778571D02*
X113002142Y-78921428D01*
X112859285Y-78992857D01*
X111573571Y-78992857D01*
X113073571Y-77992857D02*
X113002142Y-78135714D01*
X112859285Y-78207142D01*
X111573571Y-78207142D01*
X113002142Y-76850000D02*
X113073571Y-76992857D01*
X113073571Y-77278571D01*
X113002142Y-77421428D01*
X112859285Y-77492857D01*
X112287857Y-77492857D01*
X112145000Y-77421428D01*
X112073571Y-77278571D01*
X112073571Y-76992857D01*
X112145000Y-76850000D01*
X112287857Y-76778571D01*
X112430714Y-76778571D01*
X112573571Y-77492857D01*
X112073571Y-76350000D02*
X112073571Y-75778571D01*
X111573571Y-76135714D02*
X112859285Y-76135714D01*
X113002142Y-76064285D01*
X113073571Y-75921428D01*
X113073571Y-75778571D01*
X113002142Y-75207142D02*
X113073571Y-75207142D01*
X113216428Y-75278571D01*
X113287857Y-75350000D01*
X113002142Y-72778571D02*
X113073571Y-72921428D01*
X113073571Y-73207142D01*
X113002142Y-73350000D01*
X112930714Y-73421428D01*
X112787857Y-73492857D01*
X112359285Y-73492857D01*
X112216428Y-73421428D01*
X112145000Y-73350000D01*
X112073571Y-73207142D01*
X112073571Y-72921428D01*
X112145000Y-72778571D01*
X113002142Y-71492857D02*
X113073571Y-71635714D01*
X113073571Y-71921428D01*
X113002142Y-72064285D01*
X112930714Y-72135714D01*
X112787857Y-72207142D01*
X112359285Y-72207142D01*
X112216428Y-72135714D01*
X112145000Y-72064285D01*
X112073571Y-71921428D01*
X112073571Y-71635714D01*
X112145000Y-71492857D01*
X112502142Y-70850000D02*
X112502142Y-69707142D01*
X113073571Y-68992857D02*
X111573571Y-68992857D01*
X112145000Y-68992857D02*
X112073571Y-68850000D01*
X112073571Y-68564285D01*
X112145000Y-68421428D01*
X112216428Y-68350000D01*
X112359285Y-68278571D01*
X112787857Y-68278571D01*
X112930714Y-68350000D01*
X113002142Y-68421428D01*
X113073571Y-68564285D01*
X113073571Y-68850000D01*
X113002142Y-68992857D01*
X112073571Y-67778571D02*
X113073571Y-67421428D01*
X112073571Y-67064285D02*
X113073571Y-67421428D01*
X113430714Y-67564285D01*
X113502142Y-67635714D01*
X113573571Y-67778571D01*
X112502142Y-66492857D02*
X112502142Y-65350000D01*
X113002142Y-64707142D02*
X113073571Y-64564285D01*
X113073571Y-64278571D01*
X113002142Y-64135714D01*
X112859285Y-64064285D01*
X112787857Y-64064285D01*
X112645000Y-64135714D01*
X112573571Y-64278571D01*
X112573571Y-64492857D01*
X112502142Y-64635714D01*
X112359285Y-64707142D01*
X112287857Y-64707142D01*
X112145000Y-64635714D01*
X112073571Y-64492857D01*
X112073571Y-64278571D01*
X112145000Y-64135714D01*
X113073571Y-62778571D02*
X112287857Y-62778571D01*
X112145000Y-62850000D01*
X112073571Y-62992857D01*
X112073571Y-63278571D01*
X112145000Y-63421428D01*
X113002142Y-62778571D02*
X113073571Y-62921428D01*
X113073571Y-63278571D01*
X113002142Y-63421428D01*
X112859285Y-63492857D01*
X112716428Y-63492857D01*
X112573571Y-63421428D01*
X112502142Y-63278571D01*
X112502142Y-62921428D01*
X112430714Y-62778571D01*
X112502142Y-62064285D02*
X112502142Y-60921428D01*
X111573571Y-60350000D02*
X111573571Y-59421428D01*
X112145000Y-59921428D01*
X112145000Y-59707142D01*
X112216428Y-59564285D01*
X112287857Y-59492857D01*
X112430714Y-59421428D01*
X112787857Y-59421428D01*
X112930714Y-59492857D01*
X113002142Y-59564285D01*
X113073571Y-59707142D01*
X113073571Y-60135714D01*
X113002142Y-60278571D01*
X112930714Y-60350000D01*
X112930714Y-58778571D02*
X113002142Y-58707142D01*
X113073571Y-58778571D01*
X113002142Y-58850000D01*
X112930714Y-58778571D01*
X113073571Y-58778571D01*
X111573571Y-57778571D02*
X111573571Y-57635714D01*
X111645000Y-57492857D01*
X111716428Y-57421428D01*
X111859285Y-57350000D01*
X112145000Y-57278571D01*
X112502142Y-57278571D01*
X112787857Y-57350000D01*
X112930714Y-57421428D01*
X113002142Y-57492857D01*
X113073571Y-57635714D01*
X113073571Y-57778571D01*
X113002142Y-57921428D01*
X112930714Y-57992857D01*
X112787857Y-58064285D01*
X112502142Y-58135714D01*
X112145000Y-58135714D01*
X111859285Y-58064285D01*
X111716428Y-57992857D01*
X111645000Y-57921428D01*
X111573571Y-57778571D01*
X111716428Y-55564285D02*
X111645000Y-55492857D01*
X111573571Y-55350000D01*
X111573571Y-54992857D01*
X111645000Y-54850000D01*
X111716428Y-54778571D01*
X111859285Y-54707142D01*
X112002142Y-54707142D01*
X112216428Y-54778571D01*
X113073571Y-55635714D01*
X113073571Y-54707142D01*
X111573571Y-53778571D02*
X111573571Y-53635714D01*
X111645000Y-53492857D01*
X111716428Y-53421428D01*
X111859285Y-53350000D01*
X112145000Y-53278571D01*
X112502142Y-53278571D01*
X112787857Y-53350000D01*
X112930714Y-53421428D01*
X113002142Y-53492857D01*
X113073571Y-53635714D01*
X113073571Y-53778571D01*
X113002142Y-53921428D01*
X112930714Y-53992857D01*
X112787857Y-54064285D01*
X112502142Y-54135714D01*
X112145000Y-54135714D01*
X111859285Y-54064285D01*
X111716428Y-53992857D01*
X111645000Y-53921428D01*
X111573571Y-53778571D01*
X113073571Y-51850000D02*
X113073571Y-52707142D01*
X113073571Y-52278571D02*
X111573571Y-52278571D01*
X111787857Y-52421428D01*
X111930714Y-52564285D01*
X112002142Y-52707142D01*
X113073571Y-51135714D02*
X113073571Y-50850000D01*
X113002142Y-50707142D01*
X112930714Y-50635714D01*
X112716428Y-50492857D01*
X112430714Y-50421428D01*
X111859285Y-50421428D01*
X111716428Y-50492857D01*
X111645000Y-50564285D01*
X111573571Y-50707142D01*
X111573571Y-50992857D01*
X111645000Y-51135714D01*
X111716428Y-51207142D01*
X111859285Y-51278571D01*
X112216428Y-51278571D01*
X112359285Y-51207142D01*
X112430714Y-51135714D01*
X112502142Y-50992857D01*
X112502142Y-50707142D01*
X112430714Y-50564285D01*
X112359285Y-50492857D01*
X112216428Y-50421428D01*
D11*
%TO.C,C10*%
X114757142Y-96547857D02*
X114804761Y-96595476D01*
X114852380Y-96738333D01*
X114852380Y-96833571D01*
X114804761Y-96976428D01*
X114709523Y-97071666D01*
X114614285Y-97119285D01*
X114423809Y-97166904D01*
X114280952Y-97166904D01*
X114090476Y-97119285D01*
X113995238Y-97071666D01*
X113900000Y-96976428D01*
X113852380Y-96833571D01*
X113852380Y-96738333D01*
X113900000Y-96595476D01*
X113947619Y-96547857D01*
X114852380Y-95595476D02*
X114852380Y-96166904D01*
X114852380Y-95881190D02*
X113852380Y-95881190D01*
X113995238Y-95976428D01*
X114090476Y-96071666D01*
X114138095Y-96166904D01*
X113852380Y-94976428D02*
X113852380Y-94881190D01*
X113900000Y-94785952D01*
X113947619Y-94738333D01*
X114042857Y-94690714D01*
X114233333Y-94643095D01*
X114471428Y-94643095D01*
X114661904Y-94690714D01*
X114757142Y-94738333D01*
X114804761Y-94785952D01*
X114852380Y-94881190D01*
X114852380Y-94976428D01*
X114804761Y-95071666D01*
X114757142Y-95119285D01*
X114661904Y-95166904D01*
X114471428Y-95214523D01*
X114233333Y-95214523D01*
X114042857Y-95166904D01*
X113947619Y-95119285D01*
X113900000Y-95071666D01*
X113852380Y-94976428D01*
%TO.C,R6*%
X105842933Y-63104180D02*
X105509600Y-62627990D01*
X105271504Y-63104180D02*
X105271504Y-62104180D01*
X105652457Y-62104180D01*
X105747695Y-62151800D01*
X105795314Y-62199419D01*
X105842933Y-62294657D01*
X105842933Y-62437514D01*
X105795314Y-62532752D01*
X105747695Y-62580371D01*
X105652457Y-62627990D01*
X105271504Y-62627990D01*
X106700076Y-62104180D02*
X106509600Y-62104180D01*
X106414361Y-62151800D01*
X106366742Y-62199419D01*
X106271504Y-62342276D01*
X106223885Y-62532752D01*
X106223885Y-62913704D01*
X106271504Y-63008942D01*
X106319123Y-63056561D01*
X106414361Y-63104180D01*
X106604838Y-63104180D01*
X106700076Y-63056561D01*
X106747695Y-63008942D01*
X106795314Y-62913704D01*
X106795314Y-62675609D01*
X106747695Y-62580371D01*
X106700076Y-62532752D01*
X106604838Y-62485133D01*
X106414361Y-62485133D01*
X106319123Y-62532752D01*
X106271504Y-62580371D01*
X106223885Y-62675609D01*
%TO.C,R4*%
X131176733Y-119883180D02*
X130843400Y-119406990D01*
X130605304Y-119883180D02*
X130605304Y-118883180D01*
X130986257Y-118883180D01*
X131081495Y-118930800D01*
X131129114Y-118978419D01*
X131176733Y-119073657D01*
X131176733Y-119216514D01*
X131129114Y-119311752D01*
X131081495Y-119359371D01*
X130986257Y-119406990D01*
X130605304Y-119406990D01*
X132033876Y-119216514D02*
X132033876Y-119883180D01*
X131795780Y-118835561D02*
X131557685Y-119549847D01*
X132176733Y-119549847D01*
%TO.C,C9*%
X136247142Y-96071666D02*
X136294761Y-96119285D01*
X136342380Y-96262142D01*
X136342380Y-96357380D01*
X136294761Y-96500238D01*
X136199523Y-96595476D01*
X136104285Y-96643095D01*
X135913809Y-96690714D01*
X135770952Y-96690714D01*
X135580476Y-96643095D01*
X135485238Y-96595476D01*
X135390000Y-96500238D01*
X135342380Y-96357380D01*
X135342380Y-96262142D01*
X135390000Y-96119285D01*
X135437619Y-96071666D01*
X136342380Y-95595476D02*
X136342380Y-95405000D01*
X136294761Y-95309761D01*
X136247142Y-95262142D01*
X136104285Y-95166904D01*
X135913809Y-95119285D01*
X135532857Y-95119285D01*
X135437619Y-95166904D01*
X135390000Y-95214523D01*
X135342380Y-95309761D01*
X135342380Y-95500238D01*
X135390000Y-95595476D01*
X135437619Y-95643095D01*
X135532857Y-95690714D01*
X135770952Y-95690714D01*
X135866190Y-95643095D01*
X135913809Y-95595476D01*
X135961428Y-95500238D01*
X135961428Y-95309761D01*
X135913809Y-95214523D01*
X135866190Y-95166904D01*
X135770952Y-95119285D01*
%TO.C,D1*%
X109624904Y-123642380D02*
X109624904Y-122642380D01*
X109863000Y-122642380D01*
X110005857Y-122690000D01*
X110101095Y-122785238D01*
X110148714Y-122880476D01*
X110196333Y-123070952D01*
X110196333Y-123213809D01*
X110148714Y-123404285D01*
X110101095Y-123499523D01*
X110005857Y-123594761D01*
X109863000Y-123642380D01*
X109624904Y-123642380D01*
X111148714Y-123642380D02*
X110577285Y-123642380D01*
X110863000Y-123642380D02*
X110863000Y-122642380D01*
X110767761Y-122785238D01*
X110672523Y-122880476D01*
X110577285Y-122928095D01*
X106392695Y-122905780D02*
X106392695Y-121905780D01*
X106964123Y-122905780D02*
X106535552Y-122334352D01*
X106964123Y-121905780D02*
X106392695Y-122477209D01*
%TO.C,D2*%
X129868704Y-123845580D02*
X129868704Y-122845580D01*
X130106800Y-122845580D01*
X130249657Y-122893200D01*
X130344895Y-122988438D01*
X130392514Y-123083676D01*
X130440133Y-123274152D01*
X130440133Y-123417009D01*
X130392514Y-123607485D01*
X130344895Y-123702723D01*
X130249657Y-123797961D01*
X130106800Y-123845580D01*
X129868704Y-123845580D01*
X130821085Y-122940819D02*
X130868704Y-122893200D01*
X130963942Y-122845580D01*
X131202038Y-122845580D01*
X131297276Y-122893200D01*
X131344895Y-122940819D01*
X131392514Y-123036057D01*
X131392514Y-123131295D01*
X131344895Y-123274152D01*
X130773466Y-123845580D01*
X131392514Y-123845580D01*
X122864595Y-123870980D02*
X122864595Y-122870980D01*
X123436023Y-123870980D02*
X123007452Y-123299552D01*
X123436023Y-122870980D02*
X122864595Y-123442409D01*
%TO.C,J6*%
X114601666Y-49192380D02*
X114601666Y-49906666D01*
X114554047Y-50049523D01*
X114458809Y-50144761D01*
X114315952Y-50192380D01*
X114220714Y-50192380D01*
X115506428Y-49192380D02*
X115315952Y-49192380D01*
X115220714Y-49240000D01*
X115173095Y-49287619D01*
X115077857Y-49430476D01*
X115030238Y-49620952D01*
X115030238Y-50001904D01*
X115077857Y-50097142D01*
X115125476Y-50144761D01*
X115220714Y-50192380D01*
X115411190Y-50192380D01*
X115506428Y-50144761D01*
X115554047Y-50097142D01*
X115601666Y-50001904D01*
X115601666Y-49763809D01*
X115554047Y-49668571D01*
X115506428Y-49620952D01*
X115411190Y-49573333D01*
X115220714Y-49573333D01*
X115125476Y-49620952D01*
X115077857Y-49668571D01*
X115030238Y-49763809D01*
%TO.C,C11*%
X102468442Y-116562142D02*
X102420823Y-116609761D01*
X102277966Y-116657380D01*
X102182728Y-116657380D01*
X102039871Y-116609761D01*
X101944633Y-116514523D01*
X101897014Y-116419285D01*
X101849395Y-116228809D01*
X101849395Y-116085952D01*
X101897014Y-115895476D01*
X101944633Y-115800238D01*
X102039871Y-115705000D01*
X102182728Y-115657380D01*
X102277966Y-115657380D01*
X102420823Y-115705000D01*
X102468442Y-115752619D01*
X103420823Y-116657380D02*
X102849395Y-116657380D01*
X103135109Y-116657380D02*
X103135109Y-115657380D01*
X103039871Y-115800238D01*
X102944633Y-115895476D01*
X102849395Y-115943095D01*
X104373204Y-116657380D02*
X103801776Y-116657380D01*
X104087490Y-116657380D02*
X104087490Y-115657380D01*
X103992252Y-115800238D01*
X103897014Y-115895476D01*
X103801776Y-115943095D01*
%TO.C,C1*%
X116662142Y-118911666D02*
X116709761Y-118959285D01*
X116757380Y-119102142D01*
X116757380Y-119197380D01*
X116709761Y-119340238D01*
X116614523Y-119435476D01*
X116519285Y-119483095D01*
X116328809Y-119530714D01*
X116185952Y-119530714D01*
X115995476Y-119483095D01*
X115900238Y-119435476D01*
X115805000Y-119340238D01*
X115757380Y-119197380D01*
X115757380Y-119102142D01*
X115805000Y-118959285D01*
X115852619Y-118911666D01*
X116757380Y-117959285D02*
X116757380Y-118530714D01*
X116757380Y-118245000D02*
X115757380Y-118245000D01*
X115900238Y-118340238D01*
X115995476Y-118435476D01*
X116043095Y-118530714D01*
%TO.C,C4*%
X136782142Y-103651666D02*
X136829761Y-103699285D01*
X136877380Y-103842142D01*
X136877380Y-103937380D01*
X136829761Y-104080238D01*
X136734523Y-104175476D01*
X136639285Y-104223095D01*
X136448809Y-104270714D01*
X136305952Y-104270714D01*
X136115476Y-104223095D01*
X136020238Y-104175476D01*
X135925000Y-104080238D01*
X135877380Y-103937380D01*
X135877380Y-103842142D01*
X135925000Y-103699285D01*
X135972619Y-103651666D01*
X136210714Y-102794523D02*
X136877380Y-102794523D01*
X135829761Y-103032619D02*
X136544047Y-103270714D01*
X136544047Y-102651666D01*
%TO.C,R14*%
X132506980Y-96573257D02*
X132030790Y-96906590D01*
X132506980Y-97144685D02*
X131506980Y-97144685D01*
X131506980Y-96763733D01*
X131554600Y-96668495D01*
X131602219Y-96620876D01*
X131697457Y-96573257D01*
X131840314Y-96573257D01*
X131935552Y-96620876D01*
X131983171Y-96668495D01*
X132030790Y-96763733D01*
X132030790Y-97144685D01*
X132506980Y-95620876D02*
X132506980Y-96192304D01*
X132506980Y-95906590D02*
X131506980Y-95906590D01*
X131649838Y-96001828D01*
X131745076Y-96097066D01*
X131792695Y-96192304D01*
X131840314Y-94763733D02*
X132506980Y-94763733D01*
X131459361Y-95001828D02*
X132173647Y-95239923D01*
X132173647Y-94620876D01*
%TO.C,R7*%
X105979933Y-73426580D02*
X105646600Y-72950390D01*
X105408504Y-73426580D02*
X105408504Y-72426580D01*
X105789457Y-72426580D01*
X105884695Y-72474200D01*
X105932314Y-72521819D01*
X105979933Y-72617057D01*
X105979933Y-72759914D01*
X105932314Y-72855152D01*
X105884695Y-72902771D01*
X105789457Y-72950390D01*
X105408504Y-72950390D01*
X106313266Y-72426580D02*
X106979933Y-72426580D01*
X106551361Y-73426580D01*
%TO.C,J7*%
X137461666Y-79252380D02*
X137461666Y-79966666D01*
X137414047Y-80109523D01*
X137318809Y-80204761D01*
X137175952Y-80252380D01*
X137080714Y-80252380D01*
X137842619Y-79252380D02*
X138509285Y-79252380D01*
X138080714Y-80252380D01*
%TO.C,R10*%
X137637780Y-111767857D02*
X137161590Y-112101190D01*
X137637780Y-112339285D02*
X136637780Y-112339285D01*
X136637780Y-111958333D01*
X136685400Y-111863095D01*
X136733019Y-111815476D01*
X136828257Y-111767857D01*
X136971114Y-111767857D01*
X137066352Y-111815476D01*
X137113971Y-111863095D01*
X137161590Y-111958333D01*
X137161590Y-112339285D01*
X137637780Y-110815476D02*
X137637780Y-111386904D01*
X137637780Y-111101190D02*
X136637780Y-111101190D01*
X136780638Y-111196428D01*
X136875876Y-111291666D01*
X136923495Y-111386904D01*
X136637780Y-110196428D02*
X136637780Y-110101190D01*
X136685400Y-110005952D01*
X136733019Y-109958333D01*
X136828257Y-109910714D01*
X137018733Y-109863095D01*
X137256828Y-109863095D01*
X137447304Y-109910714D01*
X137542542Y-109958333D01*
X137590161Y-110005952D01*
X137637780Y-110101190D01*
X137637780Y-110196428D01*
X137590161Y-110291666D01*
X137542542Y-110339285D01*
X137447304Y-110386904D01*
X137256828Y-110434523D01*
X137018733Y-110434523D01*
X136828257Y-110386904D01*
X136733019Y-110339285D01*
X136685400Y-110291666D01*
X136637780Y-110196428D01*
%TO.C,R11*%
X134919980Y-111737057D02*
X134443790Y-112070390D01*
X134919980Y-112308485D02*
X133919980Y-112308485D01*
X133919980Y-111927533D01*
X133967600Y-111832295D01*
X134015219Y-111784676D01*
X134110457Y-111737057D01*
X134253314Y-111737057D01*
X134348552Y-111784676D01*
X134396171Y-111832295D01*
X134443790Y-111927533D01*
X134443790Y-112308485D01*
X134919980Y-110784676D02*
X134919980Y-111356104D01*
X134919980Y-111070390D02*
X133919980Y-111070390D01*
X134062838Y-111165628D01*
X134158076Y-111260866D01*
X134205695Y-111356104D01*
X134919980Y-109832295D02*
X134919980Y-110403723D01*
X134919980Y-110118009D02*
X133919980Y-110118009D01*
X134062838Y-110213247D01*
X134158076Y-110308485D01*
X134205695Y-110403723D01*
%TO.C,C12*%
X117057142Y-104167857D02*
X117104761Y-104215476D01*
X117152380Y-104358333D01*
X117152380Y-104453571D01*
X117104761Y-104596428D01*
X117009523Y-104691666D01*
X116914285Y-104739285D01*
X116723809Y-104786904D01*
X116580952Y-104786904D01*
X116390476Y-104739285D01*
X116295238Y-104691666D01*
X116200000Y-104596428D01*
X116152380Y-104453571D01*
X116152380Y-104358333D01*
X116200000Y-104215476D01*
X116247619Y-104167857D01*
X117152380Y-103215476D02*
X117152380Y-103786904D01*
X117152380Y-103501190D02*
X116152380Y-103501190D01*
X116295238Y-103596428D01*
X116390476Y-103691666D01*
X116438095Y-103786904D01*
X116247619Y-102834523D02*
X116200000Y-102786904D01*
X116152380Y-102691666D01*
X116152380Y-102453571D01*
X116200000Y-102358333D01*
X116247619Y-102310714D01*
X116342857Y-102263095D01*
X116438095Y-102263095D01*
X116580952Y-102310714D01*
X117152380Y-102882142D01*
X117152380Y-102263095D01*
%TO.C,R8*%
X105802133Y-65882780D02*
X105468800Y-65406590D01*
X105230704Y-65882780D02*
X105230704Y-64882780D01*
X105611657Y-64882780D01*
X105706895Y-64930400D01*
X105754514Y-64978019D01*
X105802133Y-65073257D01*
X105802133Y-65216114D01*
X105754514Y-65311352D01*
X105706895Y-65358971D01*
X105611657Y-65406590D01*
X105230704Y-65406590D01*
X106373561Y-65311352D02*
X106278323Y-65263733D01*
X106230704Y-65216114D01*
X106183085Y-65120876D01*
X106183085Y-65073257D01*
X106230704Y-64978019D01*
X106278323Y-64930400D01*
X106373561Y-64882780D01*
X106564038Y-64882780D01*
X106659276Y-64930400D01*
X106706895Y-64978019D01*
X106754514Y-65073257D01*
X106754514Y-65120876D01*
X106706895Y-65216114D01*
X106659276Y-65263733D01*
X106564038Y-65311352D01*
X106373561Y-65311352D01*
X106278323Y-65358971D01*
X106230704Y-65406590D01*
X106183085Y-65501828D01*
X106183085Y-65692304D01*
X106230704Y-65787542D01*
X106278323Y-65835161D01*
X106373561Y-65882780D01*
X106564038Y-65882780D01*
X106659276Y-65835161D01*
X106706895Y-65787542D01*
X106754514Y-65692304D01*
X106754514Y-65501828D01*
X106706895Y-65406590D01*
X106659276Y-65358971D01*
X106564038Y-65311352D01*
%TO.C,C2*%
X105878333Y-69572142D02*
X105830714Y-69619761D01*
X105687857Y-69667380D01*
X105592619Y-69667380D01*
X105449761Y-69619761D01*
X105354523Y-69524523D01*
X105306904Y-69429285D01*
X105259285Y-69238809D01*
X105259285Y-69095952D01*
X105306904Y-68905476D01*
X105354523Y-68810238D01*
X105449761Y-68715000D01*
X105592619Y-68667380D01*
X105687857Y-68667380D01*
X105830714Y-68715000D01*
X105878333Y-68762619D01*
X106259285Y-68762619D02*
X106306904Y-68715000D01*
X106402142Y-68667380D01*
X106640238Y-68667380D01*
X106735476Y-68715000D01*
X106783095Y-68762619D01*
X106830714Y-68857857D01*
X106830714Y-68953095D01*
X106783095Y-69095952D01*
X106211666Y-69667380D01*
X106830714Y-69667380D01*
%TO.C,C3*%
X105878333Y-79732142D02*
X105830714Y-79779761D01*
X105687857Y-79827380D01*
X105592619Y-79827380D01*
X105449761Y-79779761D01*
X105354523Y-79684523D01*
X105306904Y-79589285D01*
X105259285Y-79398809D01*
X105259285Y-79255952D01*
X105306904Y-79065476D01*
X105354523Y-78970238D01*
X105449761Y-78875000D01*
X105592619Y-78827380D01*
X105687857Y-78827380D01*
X105830714Y-78875000D01*
X105878333Y-78922619D01*
X106211666Y-78827380D02*
X106830714Y-78827380D01*
X106497380Y-79208333D01*
X106640238Y-79208333D01*
X106735476Y-79255952D01*
X106783095Y-79303571D01*
X106830714Y-79398809D01*
X106830714Y-79636904D01*
X106783095Y-79732142D01*
X106735476Y-79779761D01*
X106640238Y-79827380D01*
X106354523Y-79827380D01*
X106259285Y-79779761D01*
X106211666Y-79732142D01*
%TO.C,R12*%
X113431580Y-111844057D02*
X112955390Y-112177390D01*
X113431580Y-112415485D02*
X112431580Y-112415485D01*
X112431580Y-112034533D01*
X112479200Y-111939295D01*
X112526819Y-111891676D01*
X112622057Y-111844057D01*
X112764914Y-111844057D01*
X112860152Y-111891676D01*
X112907771Y-111939295D01*
X112955390Y-112034533D01*
X112955390Y-112415485D01*
X113431580Y-110891676D02*
X113431580Y-111463104D01*
X113431580Y-111177390D02*
X112431580Y-111177390D01*
X112574438Y-111272628D01*
X112669676Y-111367866D01*
X112717295Y-111463104D01*
X112526819Y-110510723D02*
X112479200Y-110463104D01*
X112431580Y-110367866D01*
X112431580Y-110129771D01*
X112479200Y-110034533D01*
X112526819Y-109986914D01*
X112622057Y-109939295D01*
X112717295Y-109939295D01*
X112860152Y-109986914D01*
X113431580Y-110558342D01*
X113431580Y-109939295D01*
%TO.C,R9*%
X105929133Y-75941180D02*
X105595800Y-75464990D01*
X105357704Y-75941180D02*
X105357704Y-74941180D01*
X105738657Y-74941180D01*
X105833895Y-74988800D01*
X105881514Y-75036419D01*
X105929133Y-75131657D01*
X105929133Y-75274514D01*
X105881514Y-75369752D01*
X105833895Y-75417371D01*
X105738657Y-75464990D01*
X105357704Y-75464990D01*
X106405323Y-75941180D02*
X106595800Y-75941180D01*
X106691038Y-75893561D01*
X106738657Y-75845942D01*
X106833895Y-75703085D01*
X106881514Y-75512609D01*
X106881514Y-75131657D01*
X106833895Y-75036419D01*
X106786276Y-74988800D01*
X106691038Y-74941180D01*
X106500561Y-74941180D01*
X106405323Y-74988800D01*
X106357704Y-75036419D01*
X106310085Y-75131657D01*
X106310085Y-75369752D01*
X106357704Y-75464990D01*
X106405323Y-75512609D01*
X106500561Y-75560228D01*
X106691038Y-75560228D01*
X106786276Y-75512609D01*
X106833895Y-75464990D01*
X106881514Y-75369752D01*
%TO.C,R15*%
X118587780Y-96420857D02*
X118111590Y-96754190D01*
X118587780Y-96992285D02*
X117587780Y-96992285D01*
X117587780Y-96611333D01*
X117635400Y-96516095D01*
X117683019Y-96468476D01*
X117778257Y-96420857D01*
X117921114Y-96420857D01*
X118016352Y-96468476D01*
X118063971Y-96516095D01*
X118111590Y-96611333D01*
X118111590Y-96992285D01*
X118587780Y-95468476D02*
X118587780Y-96039904D01*
X118587780Y-95754190D02*
X117587780Y-95754190D01*
X117730638Y-95849428D01*
X117825876Y-95944666D01*
X117873495Y-96039904D01*
X117587780Y-94563714D02*
X117587780Y-95039904D01*
X118063971Y-95087523D01*
X118016352Y-95039904D01*
X117968733Y-94944666D01*
X117968733Y-94706571D01*
X118016352Y-94611333D01*
X118063971Y-94563714D01*
X118159209Y-94516095D01*
X118397304Y-94516095D01*
X118492542Y-94563714D01*
X118540161Y-94611333D01*
X118587780Y-94706571D01*
X118587780Y-94944666D01*
X118540161Y-95039904D01*
X118492542Y-95087523D01*
%TO.C,C5*%
X114122142Y-103671666D02*
X114169761Y-103719285D01*
X114217380Y-103862142D01*
X114217380Y-103957380D01*
X114169761Y-104100238D01*
X114074523Y-104195476D01*
X113979285Y-104243095D01*
X113788809Y-104290714D01*
X113645952Y-104290714D01*
X113455476Y-104243095D01*
X113360238Y-104195476D01*
X113265000Y-104100238D01*
X113217380Y-103957380D01*
X113217380Y-103862142D01*
X113265000Y-103719285D01*
X113312619Y-103671666D01*
X113217380Y-102766904D02*
X113217380Y-103243095D01*
X113693571Y-103290714D01*
X113645952Y-103243095D01*
X113598333Y-103147857D01*
X113598333Y-102909761D01*
X113645952Y-102814523D01*
X113693571Y-102766904D01*
X113788809Y-102719285D01*
X114026904Y-102719285D01*
X114122142Y-102766904D01*
X114169761Y-102814523D01*
X114217380Y-102909761D01*
X114217380Y-103147857D01*
X114169761Y-103243095D01*
X114122142Y-103290714D01*
%TO.C,R17*%
X124401342Y-91841580D02*
X124068009Y-91365390D01*
X123829914Y-91841580D02*
X123829914Y-90841580D01*
X124210866Y-90841580D01*
X124306104Y-90889200D01*
X124353723Y-90936819D01*
X124401342Y-91032057D01*
X124401342Y-91174914D01*
X124353723Y-91270152D01*
X124306104Y-91317771D01*
X124210866Y-91365390D01*
X123829914Y-91365390D01*
X125353723Y-91841580D02*
X124782295Y-91841580D01*
X125068009Y-91841580D02*
X125068009Y-90841580D01*
X124972771Y-90984438D01*
X124877533Y-91079676D01*
X124782295Y-91127295D01*
X125687057Y-90841580D02*
X126353723Y-90841580D01*
X125925152Y-91841580D01*
%TO.C,R16*%
X124502942Y-94533980D02*
X124169609Y-94057790D01*
X123931514Y-94533980D02*
X123931514Y-93533980D01*
X124312466Y-93533980D01*
X124407704Y-93581600D01*
X124455323Y-93629219D01*
X124502942Y-93724457D01*
X124502942Y-93867314D01*
X124455323Y-93962552D01*
X124407704Y-94010171D01*
X124312466Y-94057790D01*
X123931514Y-94057790D01*
X125455323Y-94533980D02*
X124883895Y-94533980D01*
X125169609Y-94533980D02*
X125169609Y-93533980D01*
X125074371Y-93676838D01*
X124979133Y-93772076D01*
X124883895Y-93819695D01*
X126312466Y-93533980D02*
X126121990Y-93533980D01*
X126026752Y-93581600D01*
X125979133Y-93629219D01*
X125883895Y-93772076D01*
X125836276Y-93962552D01*
X125836276Y-94343504D01*
X125883895Y-94438742D01*
X125931514Y-94486361D01*
X126026752Y-94533980D01*
X126217228Y-94533980D01*
X126312466Y-94486361D01*
X126360085Y-94438742D01*
X126407704Y-94343504D01*
X126407704Y-94105409D01*
X126360085Y-94010171D01*
X126312466Y-93962552D01*
X126217228Y-93914933D01*
X126026752Y-93914933D01*
X125931514Y-93962552D01*
X125883895Y-94010171D01*
X125836276Y-94105409D01*
%TO.C,U2*%
X121793095Y-119467380D02*
X121793095Y-120276904D01*
X121840714Y-120372142D01*
X121888333Y-120419761D01*
X121983571Y-120467380D01*
X122174047Y-120467380D01*
X122269285Y-120419761D01*
X122316904Y-120372142D01*
X122364523Y-120276904D01*
X122364523Y-119467380D01*
X122793095Y-119562619D02*
X122840714Y-119515000D01*
X122935952Y-119467380D01*
X123174047Y-119467380D01*
X123269285Y-119515000D01*
X123316904Y-119562619D01*
X123364523Y-119657857D01*
X123364523Y-119753095D01*
X123316904Y-119895952D01*
X122745476Y-120467380D01*
X123364523Y-120467380D01*
%TO.C,R13*%
X116022380Y-111864057D02*
X115546190Y-112197390D01*
X116022380Y-112435485D02*
X115022380Y-112435485D01*
X115022380Y-112054533D01*
X115070000Y-111959295D01*
X115117619Y-111911676D01*
X115212857Y-111864057D01*
X115355714Y-111864057D01*
X115450952Y-111911676D01*
X115498571Y-111959295D01*
X115546190Y-112054533D01*
X115546190Y-112435485D01*
X116022380Y-110911676D02*
X116022380Y-111483104D01*
X116022380Y-111197390D02*
X115022380Y-111197390D01*
X115165238Y-111292628D01*
X115260476Y-111387866D01*
X115308095Y-111483104D01*
X115022380Y-110578342D02*
X115022380Y-109959295D01*
X115403333Y-110292628D01*
X115403333Y-110149771D01*
X115450952Y-110054533D01*
X115498571Y-110006914D01*
X115593809Y-109959295D01*
X115831904Y-109959295D01*
X115927142Y-110006914D01*
X115974761Y-110054533D01*
X116022380Y-110149771D01*
X116022380Y-110435485D01*
X115974761Y-110530723D01*
X115927142Y-110578342D01*
%TO.C,U3*%
X123530295Y-110623180D02*
X123530295Y-111432704D01*
X123577914Y-111527942D01*
X123625533Y-111575561D01*
X123720771Y-111623180D01*
X123911247Y-111623180D01*
X124006485Y-111575561D01*
X124054104Y-111527942D01*
X124101723Y-111432704D01*
X124101723Y-110623180D01*
X124482676Y-110623180D02*
X125101723Y-110623180D01*
X124768390Y-111004133D01*
X124911247Y-111004133D01*
X125006485Y-111051752D01*
X125054104Y-111099371D01*
X125101723Y-111194609D01*
X125101723Y-111432704D01*
X125054104Y-111527942D01*
X125006485Y-111575561D01*
X124911247Y-111623180D01*
X124625533Y-111623180D01*
X124530295Y-111575561D01*
X124482676Y-111527942D01*
%TO.C,R25*%
X132532380Y-111813257D02*
X132056190Y-112146590D01*
X132532380Y-112384685D02*
X131532380Y-112384685D01*
X131532380Y-112003733D01*
X131580000Y-111908495D01*
X131627619Y-111860876D01*
X131722857Y-111813257D01*
X131865714Y-111813257D01*
X131960952Y-111860876D01*
X132008571Y-111908495D01*
X132056190Y-112003733D01*
X132056190Y-112384685D01*
X131627619Y-111432304D02*
X131580000Y-111384685D01*
X131532380Y-111289447D01*
X131532380Y-111051352D01*
X131580000Y-110956114D01*
X131627619Y-110908495D01*
X131722857Y-110860876D01*
X131818095Y-110860876D01*
X131960952Y-110908495D01*
X132532380Y-111479923D01*
X132532380Y-110860876D01*
X131532380Y-109956114D02*
X131532380Y-110432304D01*
X132008571Y-110479923D01*
X131960952Y-110432304D01*
X131913333Y-110337066D01*
X131913333Y-110098971D01*
X131960952Y-110003733D01*
X132008571Y-109956114D01*
X132103809Y-109908495D01*
X132341904Y-109908495D01*
X132437142Y-109956114D01*
X132484761Y-110003733D01*
X132532380Y-110098971D01*
X132532380Y-110337066D01*
X132484761Y-110432304D01*
X132437142Y-110479923D01*
%TO.C,C13*%
X133857142Y-104167857D02*
X133904761Y-104215476D01*
X133952380Y-104358333D01*
X133952380Y-104453571D01*
X133904761Y-104596428D01*
X133809523Y-104691666D01*
X133714285Y-104739285D01*
X133523809Y-104786904D01*
X133380952Y-104786904D01*
X133190476Y-104739285D01*
X133095238Y-104691666D01*
X133000000Y-104596428D01*
X132952380Y-104453571D01*
X132952380Y-104358333D01*
X133000000Y-104215476D01*
X133047619Y-104167857D01*
X133952380Y-103215476D02*
X133952380Y-103786904D01*
X133952380Y-103501190D02*
X132952380Y-103501190D01*
X133095238Y-103596428D01*
X133190476Y-103691666D01*
X133238095Y-103786904D01*
X132952380Y-102882142D02*
X132952380Y-102263095D01*
X133333333Y-102596428D01*
X133333333Y-102453571D01*
X133380952Y-102358333D01*
X133428571Y-102310714D01*
X133523809Y-102263095D01*
X133761904Y-102263095D01*
X133857142Y-102310714D01*
X133904761Y-102358333D01*
X133952380Y-102453571D01*
X133952380Y-102739285D01*
X133904761Y-102834523D01*
X133857142Y-102882142D01*
%TO.C,R26*%
X118689380Y-111876757D02*
X118213190Y-112210090D01*
X118689380Y-112448185D02*
X117689380Y-112448185D01*
X117689380Y-112067233D01*
X117737000Y-111971995D01*
X117784619Y-111924376D01*
X117879857Y-111876757D01*
X118022714Y-111876757D01*
X118117952Y-111924376D01*
X118165571Y-111971995D01*
X118213190Y-112067233D01*
X118213190Y-112448185D01*
X117784619Y-111495804D02*
X117737000Y-111448185D01*
X117689380Y-111352947D01*
X117689380Y-111114852D01*
X117737000Y-111019614D01*
X117784619Y-110971995D01*
X117879857Y-110924376D01*
X117975095Y-110924376D01*
X118117952Y-110971995D01*
X118689380Y-111543423D01*
X118689380Y-110924376D01*
X117689380Y-110067233D02*
X117689380Y-110257709D01*
X117737000Y-110352947D01*
X117784619Y-110400566D01*
X117927476Y-110495804D01*
X118117952Y-110543423D01*
X118498904Y-110543423D01*
X118594142Y-110495804D01*
X118641761Y-110448185D01*
X118689380Y-110352947D01*
X118689380Y-110162471D01*
X118641761Y-110067233D01*
X118594142Y-110019614D01*
X118498904Y-109971995D01*
X118260809Y-109971995D01*
X118165571Y-110019614D01*
X118117952Y-110067233D01*
X118070333Y-110162471D01*
X118070333Y-110352947D01*
X118117952Y-110448185D01*
X118165571Y-110495804D01*
X118260809Y-110543423D01*
%TO.C,H1*%
X126688095Y-58237380D02*
X126688095Y-57237380D01*
X126688095Y-57713571D02*
X127259523Y-57713571D01*
X127259523Y-58237380D02*
X127259523Y-57237380D01*
X128259523Y-58237380D02*
X127688095Y-58237380D01*
X127973809Y-58237380D02*
X127973809Y-57237380D01*
X127878571Y-57380238D01*
X127783333Y-57475476D01*
X127688095Y-57523095D01*
D12*
%TO.C,C10*%
X114400000Y-97725000D02*
X114645000Y-97725000D01*
X114400000Y-97725000D02*
X114400000Y-94085000D01*
X116495000Y-94085000D02*
X116740000Y-94085000D01*
X116740000Y-97725000D02*
X116740000Y-94085000D01*
X114400000Y-94085000D02*
X114645000Y-94085000D01*
X116495000Y-97725000D02*
X116740000Y-97725000D01*
%TO.C,R6*%
X107965000Y-61945000D02*
X104125000Y-61945000D01*
X108915000Y-62865000D02*
X107965000Y-62865000D01*
X104125000Y-61945000D02*
X104125000Y-63785000D01*
X107965000Y-63785000D02*
X107965000Y-61945000D01*
X103175000Y-62865000D02*
X104125000Y-62865000D01*
X104125000Y-63785000D02*
X107965000Y-63785000D01*
%TO.C,R4*%
X128575000Y-119380000D02*
X129525000Y-119380000D01*
X129525000Y-118460000D02*
X129525000Y-120300000D01*
X129525000Y-120300000D02*
X133365000Y-120300000D01*
X134315000Y-119380000D02*
X133365000Y-119380000D01*
X133365000Y-118460000D02*
X129525000Y-118460000D01*
X133365000Y-120300000D02*
X133365000Y-118460000D01*
%TO.C,C9*%
X135790000Y-97725000D02*
X135790000Y-94085000D01*
X135545000Y-97725000D02*
X135790000Y-97725000D01*
X133450000Y-97725000D02*
X133695000Y-97725000D01*
X133450000Y-94085000D02*
X133695000Y-94085000D01*
X135545000Y-94085000D02*
X135790000Y-94085000D01*
X133450000Y-97725000D02*
X133450000Y-94085000D01*
%TO.C,D1*%
X112575000Y-121720000D02*
X107135000Y-121720000D01*
X106115000Y-123190000D02*
X107135000Y-123190000D01*
X107135000Y-121720000D02*
X107135000Y-124660000D01*
X107135000Y-124660000D02*
X112575000Y-124660000D01*
X108155000Y-121720000D02*
X108155000Y-124660000D01*
X112575000Y-124660000D02*
X112575000Y-121720000D01*
X107915000Y-121720000D02*
X107915000Y-124660000D01*
X113595000Y-123190000D02*
X112575000Y-123190000D01*
X108035000Y-121720000D02*
X108035000Y-124660000D01*
%TO.C,D2*%
X133915000Y-123190000D02*
X132895000Y-123190000D01*
X128475000Y-121720000D02*
X128475000Y-124660000D01*
X132895000Y-124660000D02*
X132895000Y-121720000D01*
X127455000Y-124660000D02*
X132895000Y-124660000D01*
X128355000Y-121720000D02*
X128355000Y-124660000D01*
X126435000Y-123190000D02*
X127455000Y-123190000D01*
X132895000Y-121720000D02*
X127455000Y-121720000D01*
X127455000Y-121720000D02*
X127455000Y-124660000D01*
X128235000Y-121720000D02*
X128235000Y-124660000D01*
%TO.C,J6*%
X113605000Y-52070000D02*
X113605000Y-50740000D01*
X113605000Y-53340000D02*
X113605000Y-78800000D01*
X113605000Y-50740000D02*
X114935000Y-50740000D01*
X113605000Y-53340000D02*
X116265000Y-53340000D01*
X116265000Y-53340000D02*
X116265000Y-78800000D01*
X113605000Y-78800000D02*
X116265000Y-78800000D01*
%TO.C,C11*%
X101291300Y-119090000D02*
X104931300Y-119090000D01*
X101291300Y-118845000D02*
X101291300Y-119090000D01*
X104931300Y-116750000D02*
X104931300Y-116995000D01*
X101291300Y-116750000D02*
X101291300Y-116995000D01*
X104931300Y-118845000D02*
X104931300Y-119090000D01*
X101291300Y-116750000D02*
X104931300Y-116750000D01*
%TO.C,C1*%
X118645000Y-120565000D02*
X118400000Y-120565000D01*
X118645000Y-116925000D02*
X118400000Y-116925000D01*
X116305000Y-116925000D02*
X116305000Y-120565000D01*
X118645000Y-116925000D02*
X118645000Y-120565000D01*
X116550000Y-120565000D02*
X116305000Y-120565000D01*
X116550000Y-116925000D02*
X116305000Y-116925000D01*
%TO.C,C4*%
X136425000Y-101665000D02*
X136425000Y-105305000D01*
X134330000Y-101665000D02*
X134085000Y-101665000D01*
X136425000Y-105305000D02*
X136180000Y-105305000D01*
X134330000Y-105305000D02*
X134085000Y-105305000D01*
X136425000Y-101665000D02*
X136180000Y-101665000D01*
X134085000Y-101665000D02*
X134085000Y-105305000D01*
%TO.C,R14*%
X131160000Y-93985000D02*
X131160000Y-97825000D01*
X131160000Y-97825000D02*
X133000000Y-97825000D01*
X133000000Y-97825000D02*
X133000000Y-93985000D01*
X132080000Y-93035000D02*
X132080000Y-93985000D01*
X132080000Y-98775000D02*
X132080000Y-97825000D01*
X133000000Y-93985000D02*
X131160000Y-93985000D01*
%TO.C,R7*%
X107965000Y-72105000D02*
X104125000Y-72105000D01*
X108915000Y-73025000D02*
X107965000Y-73025000D01*
X107965000Y-73945000D02*
X107965000Y-72105000D01*
X103175000Y-73025000D02*
X104125000Y-73025000D01*
X104125000Y-72105000D02*
X104125000Y-73945000D01*
X104125000Y-73945000D02*
X107965000Y-73945000D01*
%TO.C,J7*%
X136465000Y-76200000D02*
X136465000Y-53280000D01*
X139125000Y-78800000D02*
X137795000Y-78800000D01*
X139125000Y-53280000D02*
X136465000Y-53280000D01*
X139125000Y-76200000D02*
X139125000Y-53280000D01*
X139125000Y-77470000D02*
X139125000Y-78800000D01*
X139125000Y-76200000D02*
X136465000Y-76200000D01*
%TO.C,R10*%
X136240000Y-109205000D02*
X136240000Y-113045000D01*
X138080000Y-109205000D02*
X136240000Y-109205000D01*
X137160000Y-113995000D02*
X137160000Y-113045000D01*
X136240000Y-113045000D02*
X138080000Y-113045000D01*
X137160000Y-108255000D02*
X137160000Y-109205000D01*
X138080000Y-113045000D02*
X138080000Y-109205000D01*
%TO.C,R11*%
X133700000Y-113065000D02*
X135540000Y-113065000D01*
X133700000Y-109225000D02*
X133700000Y-113065000D01*
X135540000Y-113065000D02*
X135540000Y-109225000D01*
X135540000Y-109225000D02*
X133700000Y-109225000D01*
X134620000Y-114015000D02*
X134620000Y-113065000D01*
X134620000Y-108275000D02*
X134620000Y-109225000D01*
%TO.C,C12*%
X117185000Y-105345000D02*
X116940000Y-105345000D01*
X116940000Y-101705000D02*
X116940000Y-105345000D01*
X117185000Y-101705000D02*
X116940000Y-101705000D01*
X119280000Y-101705000D02*
X119035000Y-101705000D01*
X119280000Y-105345000D02*
X119035000Y-105345000D01*
X119280000Y-101705000D02*
X119280000Y-105345000D01*
%TO.C,R8*%
X107965000Y-64485000D02*
X104125000Y-64485000D01*
X104125000Y-66325000D02*
X107965000Y-66325000D01*
X104125000Y-64485000D02*
X104125000Y-66325000D01*
X107965000Y-66325000D02*
X107965000Y-64485000D01*
X103175000Y-65405000D02*
X104125000Y-65405000D01*
X108915000Y-65405000D02*
X107965000Y-65405000D01*
%TO.C,C2*%
X104225000Y-66775000D02*
X104225000Y-67020000D01*
X107865000Y-68870000D02*
X107865000Y-69115000D01*
X107865000Y-66775000D02*
X107865000Y-67020000D01*
X104225000Y-69115000D02*
X107865000Y-69115000D01*
X104225000Y-68870000D02*
X104225000Y-69115000D01*
X104225000Y-66775000D02*
X107865000Y-66775000D01*
%TO.C,C3*%
X104225000Y-79030000D02*
X104225000Y-79275000D01*
X104225000Y-76935000D02*
X104225000Y-77180000D01*
X104225000Y-79275000D02*
X107865000Y-79275000D01*
X104225000Y-76935000D02*
X107865000Y-76935000D01*
X107865000Y-79030000D02*
X107865000Y-79275000D01*
X107865000Y-76935000D02*
X107865000Y-77180000D01*
%TO.C,R12*%
X113950000Y-109205000D02*
X112110000Y-109205000D01*
X113030000Y-113995000D02*
X113030000Y-113045000D01*
X113030000Y-108255000D02*
X113030000Y-109205000D01*
X113950000Y-113045000D02*
X113950000Y-109205000D01*
X112110000Y-113045000D02*
X113950000Y-113045000D01*
X112110000Y-109205000D02*
X112110000Y-113045000D01*
%TO.C,R9*%
X107965000Y-74645000D02*
X104125000Y-74645000D01*
X103175000Y-75565000D02*
X104125000Y-75565000D01*
X108915000Y-75565000D02*
X107965000Y-75565000D01*
X104125000Y-76485000D02*
X107965000Y-76485000D01*
X107965000Y-76485000D02*
X107965000Y-74645000D01*
X104125000Y-74645000D02*
X104125000Y-76485000D01*
%TO.C,R15*%
X118110000Y-93035000D02*
X118110000Y-93985000D01*
X117190000Y-93985000D02*
X117190000Y-97825000D01*
X119030000Y-97825000D02*
X119030000Y-93985000D01*
X119030000Y-93985000D02*
X117190000Y-93985000D01*
X117190000Y-97825000D02*
X119030000Y-97825000D01*
X118110000Y-98775000D02*
X118110000Y-97825000D01*
%TO.C,C5*%
X114010000Y-105325000D02*
X113765000Y-105325000D01*
X116105000Y-105325000D02*
X115860000Y-105325000D01*
X116105000Y-101685000D02*
X115860000Y-101685000D01*
X116105000Y-101685000D02*
X116105000Y-105325000D01*
X114010000Y-101685000D02*
X113765000Y-101685000D01*
X113765000Y-101685000D02*
X113765000Y-105325000D01*
%TO.C,R17*%
X123175000Y-92360000D02*
X127015000Y-92360000D01*
X122225000Y-91440000D02*
X123175000Y-91440000D01*
X123175000Y-90520000D02*
X123175000Y-92360000D01*
X127015000Y-92360000D02*
X127015000Y-90520000D01*
X127965000Y-91440000D02*
X127015000Y-91440000D01*
X127015000Y-90520000D02*
X123175000Y-90520000D01*
%TO.C,R16*%
X123175000Y-94900000D02*
X127015000Y-94900000D01*
X127015000Y-93060000D02*
X123175000Y-93060000D01*
X127965000Y-93980000D02*
X127015000Y-93980000D01*
X127015000Y-94900000D02*
X127015000Y-93060000D01*
X123175000Y-93060000D02*
X123175000Y-94900000D01*
X122225000Y-93980000D02*
X123175000Y-93980000D01*
%TO.C,U2*%
X124355000Y-116535000D02*
X120755000Y-116535000D01*
X124879184Y-117262205D02*
G75*
G03*
X124355000Y-116535000I-2324175J-1122789D01*
G01*
X120198600Y-119483807D02*
G75*
G03*
X122555000Y-120985000I2356399J1098804D01*
G01*
X120755000Y-116535000D02*
G75*
G03*
X120230816Y-117262205I1799991J-1849994D01*
G01*
X122555000Y-120985000D02*
G75*
G03*
X124911400Y-119483807I-2J2600002D01*
G01*
%TO.C,R13*%
X116490000Y-113065000D02*
X116490000Y-109225000D01*
X115570000Y-114015000D02*
X115570000Y-113065000D01*
X116490000Y-109225000D02*
X114650000Y-109225000D01*
X114650000Y-113065000D02*
X116490000Y-113065000D01*
X114650000Y-109225000D02*
X114650000Y-113065000D01*
X115570000Y-108275000D02*
X115570000Y-109225000D01*
%TO.C,U3*%
X130355000Y-113780000D02*
X130355000Y-95760000D01*
X124105000Y-95820000D02*
X122855000Y-95820000D01*
X127355000Y-113720000D02*
X127355000Y-95820000D01*
X127355000Y-95820000D02*
X126105000Y-95820000D01*
X119855000Y-95760000D02*
X119855000Y-113780000D01*
X122855000Y-95820000D02*
X122855000Y-113720000D01*
X122855000Y-113720000D02*
X127355000Y-113720000D01*
X130355000Y-95760000D02*
X119855000Y-95760000D01*
X119855000Y-113780000D02*
X130355000Y-113780000D01*
X124105000Y-95820000D02*
G75*
G03*
X126105000Y-95820000I1000000J0D01*
G01*
%TO.C,R25*%
X131160000Y-109225000D02*
X131160000Y-113065000D01*
X133000000Y-109225000D02*
X131160000Y-109225000D01*
X132080000Y-108275000D02*
X132080000Y-109225000D01*
X133000000Y-113065000D02*
X133000000Y-109225000D01*
X131160000Y-113065000D02*
X133000000Y-113065000D01*
X132080000Y-114015000D02*
X132080000Y-113065000D01*
%TO.C,C13*%
X130910000Y-101705000D02*
X131155000Y-101705000D01*
X133005000Y-101705000D02*
X133250000Y-101705000D01*
X133250000Y-105345000D02*
X133250000Y-101705000D01*
X130910000Y-105345000D02*
X130910000Y-101705000D01*
X133005000Y-105345000D02*
X133250000Y-105345000D01*
X130910000Y-105345000D02*
X131155000Y-105345000D01*
%TO.C,R26*%
X118110000Y-108275000D02*
X118110000Y-109225000D01*
X118110000Y-114015000D02*
X118110000Y-113065000D01*
X119030000Y-113065000D02*
X119030000Y-109225000D01*
X119030000Y-109225000D02*
X117190000Y-109225000D01*
X117190000Y-109225000D02*
X117190000Y-113065000D01*
X117190000Y-113065000D02*
X119030000Y-113065000D01*
%TD*%
M02*
