M48
; DRILL file {KiCad (6.0.0)} date Mon Nov 14 01:28:35 2022
; FORMAT={-:-/ absolute / metric / decimal}
; #@! TF.CreationDate,2022-11-14T01:28:35+01:00
; #@! TF.GenerationSoftware,Kicad,Pcbnew,(6.0.0)
; #@! TF.FileFunction,MixedPlating,1,2
FMAT,2
METRIC
; #@! TA.AperFunction,Plated,PTH,ComponentDrill
T1C0.700
; #@! TA.AperFunction,Plated,PTH,ComponentDrill
T2C0.800
; #@! TA.AperFunction,Plated,PTH,ComponentDrill
T3C1.000
; #@! TA.AperFunction,Plated,PTH,ComponentDrill
T4C1.016
; #@! TA.AperFunction,Plated,PTH,ComponentDrill
T5C1.100
; #@! TA.AperFunction,NonPlated,NPTH,ComponentDrill
T6C3.200
; #@! TA.AperFunction,NonPlated,NPTH,ComponentDrill
T7C3.500
%
G90
G05
T1
X102.235Y-62.865
X102.235Y-65.405
X102.235Y-73.025
X102.235Y-75.565
X109.855Y-62.865
X109.855Y-65.405
X109.855Y-73.025
X109.855Y-75.565
X113.03Y-107.315
X113.03Y-114.935
X115.57Y-107.335
X115.57Y-114.955
X118.11Y-92.095
X118.11Y-99.715
X118.11Y-107.335
X118.11Y-114.955
X121.285Y-91.44
X121.285Y-93.98
X127.635Y-119.38
X128.905Y-91.44
X128.905Y-93.98
X132.08Y-92.095
X132.08Y-99.715
X132.08Y-107.335
X132.08Y-114.955
X134.62Y-107.335
X134.62Y-114.955
X135.255Y-119.38
X137.16Y-107.315
X137.16Y-114.935
T2
X101.861Y-117.92
X102.225Y-50.175
X102.225Y-52.715
X102.225Y-55.255
X102.225Y-57.795
X104.361Y-117.92
X104.775Y-127.7
X104.775Y-130.2
X104.795Y-67.945
X104.795Y-78.105
X107.295Y-67.945
X107.295Y-78.105
X107.531Y-117.92
X109.845Y-50.175
X109.845Y-52.715
X109.845Y-55.255
X109.845Y-57.795
X110.031Y-117.92
X114.935Y-102.255
X114.935Y-104.755
X115.57Y-94.655
X115.57Y-97.155
X117.475Y-117.495
X117.475Y-119.995
X118.11Y-102.275
X118.11Y-104.775
X120.015Y-118.385
X121.295Y-97.15
X121.295Y-99.69
X121.295Y-102.23
X121.295Y-104.77
X121.295Y-107.31
X121.295Y-109.85
X121.295Y-112.39
X122.555Y-118.385
X125.095Y-118.385
X128.915Y-97.15
X128.915Y-99.69
X128.915Y-102.23
X128.915Y-104.77
X128.915Y-107.31
X128.915Y-109.85
X128.915Y-112.39
X132.08Y-102.275
X132.08Y-104.775
X134.62Y-94.655
X134.62Y-97.155
X135.255Y-102.235
X135.255Y-104.735
X135.255Y-127.61
X135.255Y-130.11
T3
X114.935Y-52.07
X114.935Y-54.61
X114.935Y-57.15
X114.935Y-59.69
X114.935Y-62.23
X114.935Y-64.77
X114.935Y-67.31
X114.935Y-69.85
X114.935Y-72.39
X114.935Y-74.93
X114.935Y-77.47
X114.935Y-128.905
X114.935Y-131.445
X117.475Y-128.905
X117.475Y-131.445
X120.015Y-128.905
X120.015Y-131.445
X122.555Y-128.905
X122.555Y-131.445
X125.095Y-128.905
X125.095Y-131.445
X137.795Y-54.61
X137.795Y-57.15
X137.795Y-59.69
X137.795Y-62.23
X137.795Y-64.77
X137.795Y-67.31
X137.795Y-69.85
X137.795Y-72.39
X137.795Y-74.93
X137.795Y-77.47
T4
X118.745Y-39.381
X118.745Y-41.921
X118.745Y-44.461
X118.745Y-47.001
X118.745Y-49.541
X118.745Y-52.081
X118.745Y-54.621
X118.745Y-57.161
X118.745Y-59.701
X118.745Y-62.241
X118.745Y-64.781
X118.745Y-67.321
X118.745Y-69.861
X118.745Y-72.401
X118.745Y-74.941
X118.745Y-77.481
X118.745Y-80.021
X118.745Y-82.561
X118.745Y-85.101
X118.745Y-87.641
X133.985Y-39.381
X133.985Y-41.921
X133.985Y-44.461
X133.985Y-47.001
X133.985Y-49.541
X133.985Y-52.081
X133.985Y-54.621
X133.985Y-57.161
X133.985Y-59.701
X133.985Y-62.241
X133.985Y-64.781
X133.985Y-67.321
X133.985Y-69.861
X133.985Y-72.401
X133.985Y-74.941
X133.985Y-77.481
X133.985Y-80.021
X133.985Y-82.561
X133.985Y-85.101
X133.985Y-87.692
T5
X103.505Y-113.815
X104.775Y-123.19
X106.045Y-113.815
X108.585Y-113.815
X114.935Y-123.19
X125.095Y-123.19
X135.255Y-123.19
T6
X127.45Y-54.25
T7
X106.045Y-97.155
T0
M30
